{"accessors":[{"bufferView":0,"byteOffset":0,"componentType":5126,"count":505,"max":[18.610000610351563,21.0,5.652949810028076],"min":[8.683237075805664,0.0,-1.0469261407852173],"type":"VEC3"},{"bufferView":1,"byteOffset":0,"componentType":5125,"count":2409,"type":"SCALAR"},{"bufferView":2,"byteOffset":0,"componentType":5126,"count":505,"max":[18.610000610351563,-0.0,5.652949810028076],"min":[8.683237075805664,-21.0,-1.0469261407852173],"type":"VEC3"},{"bufferView":3,"byteOffset":0,"componentType":5125,"count":2409,"type":"SCALAR"},{"bufferView":4,"byteOffset":0,"componentType":5126,"count":202,"max":[32.36379623413086,5.239999771118164,5.300021171569824],"min":[30.0,0.0,5.099978923797607],"type":"VEC3"},{"bufferView":5,"byteOffset":0,"componentType":5125,"count":606,"type":"SCALAR"},{"bufferView":6,"byteOffset":0,"componentType":5126,"count":202,"max":[32.36379623413086,-0.0,5.300021171569824],"min":[30.0,-5.239999771118164,5.099978923797607],"type":"VEC3"},{"bufferView":7,"byteOffset":0,"componentType":5125,"count":606,"type":"SCALAR"},{"bufferView":8,"byteOffset":0,"componentType":5126,"count":303,"max":[31.887943267822266,0.3000634014606476,5.330999851226807],"min":[25.327999114990234,-0.3000634014606476,2.13100004196167],"type":"VEC3"},{"bufferView":9,"byteOffset":0,"componentType":5125,"count":1212,"type":"SCALAR"},{"bufferView":10,"byteOffset":0,"componentType":5126,"count":1344,"max":[33.0,1.5,2.2186403274536133],"min":[0.0,-1.4991798400878906,-0.7836949825286865],"type":"VEC3"},{"bufferView":11,"byteOffset":0,"componentType":5125,"count":6840,"type":"SCALAR"}],"asset":{"generator":"VTK","version":"2.0"},"bufferViews":[{"buffer":0,"byteLength":6060,"byteOffset":0,"target":34962},{"buffer":1,"byteLength":9636,"byteOffset":0,"target":34963},{"buffer":2,"byteLength":6060,"byteOffset":0,"target":34962},{"buffer":3,"byteLength":9636,"byteOffset":0,"target":34963},{"buffer":4,"byteLength":2424,"byteOffset":0,"target":34962},{"buffer":5,"byteLength":2424,"byteOffset":0,"target":34963},{"buffer":6,"byteLength":2424,"byteOffset":0,"target":34962},{"buffer":7,"byteLength":2424,"byteOffset":0,"target":34963},{"buffer":8,"byteLength":3636,"byteOffset":0,"target":34962},{"buffer":9,"byteLength":4848,"byteOffset":0,"target":34963},{"buffer":10,"byteLength":16128,"byteOffset":0,"target":34962},{"buffer":11,"byteLength":27360,"byteOffset":0,"target":34963}],"buffers":[{"byteLength":6060,"uri":"data:application/octet-stream;base64,"},{"byteLength":9636,"uri":"data:application/octet-stream;base64,"},{"byteLength":6060,"uri":"data:application/octet-stream;base64,"},{"byteLength":9636,"uri":"data:application/octet-stream;base64,"},{"byteLength":2424,"uri":"data:application/octet-stream;base64,"},{"byteLength":2424,"uri":"data:application/octet-stream;base64,"},{"byteLength":2424,"uri":"data:application/octet-stream;base64,"},{"byteLength":2424,"uri":"data:application/octet-stream;base64,"},{"byteLength":3636,"uri":"data:application/octet-stream;base64,"},{"byteLength":4848,"uri":"data:application/octet-stream;base64,"},{"byteLength":16128,"uri":"data:application/octet-stream;base64,"},{"byteLength":27360,"uri":"data:application/octet-stream;base64,"}],"cameras":[{"perspective":{"aspectRatio":1.0,"yfov":0.5235987755982988,"zfar":172.049969208448,"znear":50.13156329946917},"type":"perspective"}],"materials":[{"pbrMetallicRoughness":{"baseColorFactor":[0.5019607843137255,0.5019607843137255,0.5019607843137255,0.5],"metallicFactor":0.0,"roughnessFactor":1.0}},{"pbrMetallicRoughness":{"baseColorFactor":[0.5019607843137255,0.5019607843137255,0.5019607843137255,0.5],"metallicFactor":0.0,"roughnessFactor":1.0}},{"pbrMetallicRoughness":{"baseColorFactor":[0.5019607843137255,0.5019607843137255,0.5019607843137255,0.5],"metallicFactor":0.0,"roughnessFactor":1.0}},{"pbrMetallicRoughness":{"baseColorFactor":[0.5019607843137255,0.5019607843137255,0.5019607843137255,0.5],"metallicFactor":0.0,"roughnessFactor":1.0}},{"pbrMetallicRoughness":{"baseColorFactor":[0.5019607843137255,0.5019607843137255,0.5019607843137255,0.5],"metallicFactor":0.0,"roughnessFactor":1.0}},{"pbrMetallicRoughness":{"baseColorFactor":[0.5019607843137255,0.5019607843137255,0.5019607843137255,0.5],"metallicFactor":0.0,"roughnessFactor":1.0}}],"meshes":[{"name":"mesh0","primitives":[{"attributes":{"POSITION":0},"indices":1,"material":0,"mode":4}]},{"name":"mesh1","primitives":[{"attributes":{"POSITION":2},"indices":3,"material":1,"mode":4}]},{"name":"mesh2","primitives":[{"attributes":{"POSITION":4},"indices":5,"material":2,"mode":4}]},{"name":"mesh3","primitives":[{"attributes":{"POSITION":6},"indices":7,"material":3,"mode":4}]},{"name":"mesh4","primitives":[{"attributes":{"POSITION":8},"indices":9,"material":4,"mode":4}]},{"name":"mesh5","primitives":[{"attributes":{"POSITION":10},"indices":11,"material":5,"mode":4}]}],"nodes":[{"mesh":0,"name":"mesh0"},{"mesh":1,"name":"mesh1"},{"mesh":2,"name":"mesh2"},{"mesh":3,"name":"mesh3"},{"mesh":4,"name":"mesh4"},{"mesh":5,"name":"mesh5"},{"camera":0,"matrix":[0.7071067811865476,-0.7071067811865476,1.3163025823474793e-18,-0.0,0.16987489334070155,0.16987489334070155,0.9707136762325804,0.0,-0.6863982230545803,-0.6863982230545803,0.2402393780691031,-0.0,-54.88233462603523,-71.38233462603523,27.28682895373376,1.0],"name":"Camera Node"},{"children":[0,1,2,3,4,5,6],"name":"Renderer Node"}],"scene":0,"scenes":[{"name":"Layer 0","nodes":[7]}]}