{"accessors":[{"bufferView":0,"byteOffset":0,"componentType":5126,"count":202,"max":[3.8457393646240234,5.083000183105469,0.2052694410085678],"min":[1.6525555849075317,0.0,-0.7075948119163513],"type":"VEC3"},{"bufferView":1,"byteOffset":0,"componentType":5125,"count":606,"type":"SCALAR"},{"bufferView":2,"byteOffset":0,"componentType":5126,"count":202,"max":[3.8457393646240234,-0.0,0.2052694410085678],"min":[1.6525555849075317,-5.083000183105469,-0.7075948119163513],"type":"VEC3"},{"bufferView":3,"byteOffset":0,"componentType":5125,"count":606,"type":"SCALAR"},{"bufferView":4,"byteOffset":0,"componentType":5126,"count":202,"max":[7.7427897453308105,2.0,0.27573108673095703],"min":[6.5451860427856445,0.0,0.1319883018732071],"type":"VEC3"},{"bufferView":5,"byteOffset":0,"componentType":5125,"count":606,"type":"SCALAR"},{"bufferView":6,"byteOffset":0,"componentType":5126,"count":202,"max":[7.7427897453308105,-0.0,0.27573108673095703],"min":[6.5451860427856445,-2.0,0.1319883018732071],"type":"VEC3"},{"bufferView":7,"byteOffset":0,"componentType":5125,"count":606,"type":"SCALAR"},{"bufferView":8,"byteOffset":0,"componentType":5126,"count":202,"max":[8.186697959899902,0.06357312202453613,1.7853509187698364],"min":[7.1273698806762695,-0.06357312202453613,0.3037509620189667],"type":"VEC3"},{"bufferView":9,"byteOffset":0,"componentType":5125,"count":606,"type":"SCALAR"},{"bufferView":10,"byteOffset":0,"componentType":5126,"count":768,"max":[8.349950790405273,0.6101400852203369,0.9505640268325806],"min":[0.0,-0.609806478023529,-0.683627724647522],"type":"VEC3"},{"bufferView":11,"byteOffset":0,"componentType":5125,"count":3990,"type":"SCALAR"},{"bufferView":12,"byteOffset":0,"componentType":5126,"count":2020,"max":[0.055983372032642365,0.054821036756038666,0.9271000027656555],"min":[-0.07116681337356567,-0.0653679296374321,0.20319999754428864],"type":"VEC3"},{"bufferView":13,"byteOffset":0,"componentType":5125,"count":11514,"type":"SCALAR"},{"bufferView":14,"byteOffset":0,"componentType":5126,"count":2020,"max":[0.055983372032642365,0.0653679296374321,-0.20319999754428864],"min":[-0.07116681337356567,-0.054821036756038666,-0.9271000027656555],"type":"VEC3"},{"bufferView":15,"byteOffset":0,"componentType":5125,"count":11514,"type":"SCALAR"},{"bufferView":16,"byteOffset":0,"componentType":5126,"count":10,"max":[3.1923553943634033,5.083000183105469,0.1547049731016159],"min":[1.869868516921997,0.0,-0.6654074192047119],"type":"VEC3"},{"bufferView":17,"byteOffset":0,"componentType":5125,"count":24,"type":"SCALAR"},{"bufferView":18,"byteOffset":0,"componentType":5126,"count":10,"max":[3.1923553943634033,-0.0,0.1547049731016159],"min":[1.869868516921997,-5.083000183105469,-0.6654074192047119],"type":"VEC3"},{"bufferView":19,"byteOffset":0,"componentType":5125,"count":24,"type":"SCALAR"}],"asset":{"generator":"VTK","version":"2.0"},"bufferViews":[{"buffer":0,"byteLength":2424,"byteOffset":0,"target":34962},{"buffer":1,"byteLength":2424,"byteOffset":0,"target":34963},{"buffer":2,"byteLength":2424,"byteOffset":0,"target":34962},{"buffer":3,"byteLength":2424,"byteOffset":0,"target":34963},{"buffer":4,"byteLength":2424,"byteOffset":0,"target":34962},{"buffer":5,"byteLength":2424,"byteOffset":0,"target":34963},{"buffer":6,"byteLength":2424,"byteOffset":0,"target":34962},{"buffer":7,"byteLength":2424,"byteOffset":0,"target":34963},{"buffer":8,"byteLength":2424,"byteOffset":0,"target":34962},{"buffer":9,"byteLength":2424,"byteOffset":0,"target":34963},{"buffer":10,"byteLength":9216,"byteOffset":0,"target":34962},{"buffer":11,"byteLength":15960,"byteOffset":0,"target":34963},{"buffer":12,"byteLength":24240,"byteOffset":0,"target":34962},{"buffer":13,"byteLength":46056,"byteOffset":0,"target":34963},{"buffer":14,"byteLength":24240,"byteOffset":0,"target":34962},{"buffer":15,"byteLength":46056,"byteOffset":0,"target":34963},{"buffer":16,"byteLength":120,"byteOffset":0,"target":34962},{"buffer":17,"byteLength":96,"byteOffset":0,"target":34963},{"buffer":18,"byteLength":120,"byteOffset":0,"target":34962},{"buffer":19,"byteLength":96,"byteOffset":0,"target":34963}],"buffers":[{"byteLength":2424,"uri":"data:application/octet-stream;base64,"},{"byteLength":2424,"uri":"data:application/octet-stream;base64,"},{"byteLength":2424,"uri":"data:application/octet-stream;base64,"},{"byteLength":2424,"uri":"data:application/octet-stream;base64,"},{"byteLength":2424,"uri":"data:application/octet-stream;base64,"},{"byteLength":2424,"uri":"data:application/octet-stream;base64,"},{"byteLength":2424,"uri":"data:application/octet-stream;base64,"},{"byteLength":2424,"uri":"data:application/octet-stream;base64,"},{"byteLength":2424,"uri":"data:application/octet-stream;base64,"},{"byteLength":2424,"uri":"data:application/octet-stream;base64,"},{"byteLength":9216,"uri":"data:application/octet-stream;base64,"},{"byteLength":15960,"uri":"data:application/octet-stream;base64,"},{"byteLength":24240,"uri":"data:application/octet-stream;base64,"},{"byteLength":46056,"uri":"data:application/octet-stream;base64,"},{"byteLength":24240,"uri":"data:application/octet-stream;base64,"},{"byteLength":46056,"uri":"data:application/octet-stream;base64,"},{"byteLength":120,"uri":"data:application/octet-stream;base64,"},{"byteLength":96,"uri":"data:application/octet-stream;base64,"},{"byteLength":120,"uri":"data:application/octet-stream;base64,"},{"byteLength":96,"uri":"data:application/octet-stream;base64,"}],"cameras":[{"perspective":{"aspectRatio":1.0,"yfov":0.5235987755982988,"zfar":43.22119505815449,"znear":12.43179210161179},"type":"perspective"}],"materials":[{"pbrMetallicRoughness":{"baseColorFactor":[0.5019607843137255,0.5019607843137255,0.5019607843137255,0.5],"metallicFactor":0.0,"roughnessFactor":1.0}},{"pbrMetallicRoughness":{"baseColorFactor":[0.5019607843137255,0.5019607843137255,0.5019607843137255,0.5],"metallicFactor":0.0,"roughnessFactor":1.0}},{"pbrMetallicRoughness":{"baseColorFactor":[0.5019607843137255,0.5019607843137255,0.5019607843137255,0.5],"metallicFactor":0.0,"roughnessFactor":1.0}},{"pbrMetallicRoughness":{"baseColorFactor":[0.5019607843137255,0.5019607843137255,0.5019607843137255,0.5],"metallicFactor":0.0,"roughnessFactor":1.0}},{"pbrMetallicRoughness":{"baseColorFactor":[0.5019607843137255,0.5019607843137255,0.5019607843137255,0.5],"metallicFactor":0.0,"roughnessFactor":1.0}},{"pbrMetallicRoughness":{"baseColorFactor":[0.5019607843137255,0.5019607843137255,0.5019607843137255,0.5],"metallicFactor":0.0,"roughnessFactor":1.0}},{"pbrMetallicRoughness":{"baseColorFactor":[0.0,0.0,0.0,0.6],"metallicFactor":0.0,"roughnessFactor":1.0}},{"pbrMetallicRoughness":{"baseColorFactor":[0.0,0.0,0.0,0.6],"metallicFactor":0.0,"roughnessFactor":1.0}},{"pbrMetallicRoughness":{"baseColorFactor":[1.0,0.6470588235294118,0.0,0.5],"metallicFactor":0.0,"roughnessFactor":1.0}},{"pbrMetallicRoughness":{"baseColorFactor":[1.0,0.6470588235294118,0.0,0.5],"metallicFactor":0.0,"roughnessFactor":1.0}}],"meshes":[{"name":"mesh0","primitives":[{"attributes":{"POSITION":0},"indices":1,"material":0,"mode":4}]},{"name":"mesh1","primitives":[{"attributes":{"POSITION":2},"indices":3,"material":1,"mode":4}]},{"name":"mesh2","primitives":[{"attributes":{"POSITION":4},"indices":5,"material":2,"mode":4}]},{"name":"mesh3","primitives":[{"attributes":{"POSITION":6},"indices":7,"material":3,"mode":4}]},{"name":"mesh4","primitives":[{"attributes":{"POSITION":8},"indices":9,"material":4,"mode":4}]},{"name":"mesh5","primitives":[{"attributes":{"POSITION":10},"indices":11,"material":5,"mode":4}]},{"name":"mesh6","primitives":[{"attributes":{"POSITION":12},"indices":13,"material":6,"mode":4}]},{"name":"mesh7","primitives":[{"attributes":{"POSITION":14},"indices":15,"material":7,"mode":4}]},{"name":"mesh8","primitives":[{"attributes":{"POSITION":16},"indices":17,"material":8,"mode":4}]},{"name":"mesh9","primitives":[{"attributes":{"POSITION":18},"indices":19,"material":9,"mode":4}]}],"nodes":[{"mesh":0,"name":"mesh0"},{"mesh":1,"name":"mesh1"},{"mesh":2,"name":"mesh2"},{"mesh":3,"name":"mesh3"},{"mesh":4,"name":"mesh4"},{"mesh":5,"name":"mesh5"},{"mesh":6,"name":"mesh6"},{"mesh":7,"name":"mesh7"},{"mesh":8,"name":"mesh8"},{"mesh":9,"name":"mesh9"},{"camera":0,"matrix":[0.7071067811865475,-0.7071067811865476,-3.8572873922627866e-18,-0.0,0.16987489334070152,0.1698748933407015,0.9707136762325802,0.0,-0.6863982230545803,-0.6863982230545802,0.24023937806910303,-0.0,-13.730913197809887,-17.87030518632574,6.6837322732160995,1.0],"name":"Camera Node"},{"children":[0,1,2,3,4,5,6,7,8,9,10],"name":"Renderer Node"}],"scene":0,"scenes":[{"name":"Layer 0","nodes":[11]}]}