{"accessors":[{"bufferView":0,"byteOffset":0,"componentType":5126,"count":808,"max":[15.975322723388672,6.519499778747559,0.7131625413894653],"min":[4.14425802230835,0.0,0.36578992009162903],"type":"VEC3"},{"bufferView":1,"byteOffset":0,"componentType":5125,"count":4242,"type":"SCALAR"},{"bufferView":2,"byteOffset":0,"componentType":5126,"count":808,"max":[15.975322723388672,-0.0,0.7131625413894653],"min":[4.14425802230835,-6.519499778747559,0.36578992009162903],"type":"VEC3"},{"bufferView":3,"byteOffset":0,"componentType":5125,"count":4242,"type":"SCALAR"},{"bufferView":4,"byteOffset":0,"componentType":5126,"count":303,"max":[15.472000122070313,4.240314960479736,0.48076415061950684],"min":[12.75,1.3109999895095825,0.37192749977111816],"type":"VEC3"},{"bufferView":5,"byteOffset":0,"componentType":5125,"count":1212,"type":"SCALAR"},{"bufferView":6,"byteOffset":0,"componentType":5126,"count":303,"max":[15.472000122070313,-1.3109999895095825,0.48076415061950684],"min":[12.75,-4.240314960479736,0.37192749977111816],"type":"VEC3"},{"bufferView":7,"byteOffset":0,"componentType":5125,"count":1212,"type":"SCALAR"},{"bufferView":8,"byteOffset":0,"componentType":5126,"count":202,"max":[15.065979957580566,2.575000047683716,2.363823890686035],"min":[11.685999870300293,1.475000023841858,0.37744995951652527],"type":"VEC3"},{"bufferView":9,"byteOffset":0,"componentType":5125,"count":606,"type":"SCALAR"},{"bufferView":10,"byteOffset":0,"componentType":5126,"count":202,"max":[15.065979957580566,-1.475000023841858,2.363823890686035],"min":[11.685999870300293,-2.575000047683716,0.37744995951652527],"type":"VEC3"},{"bufferView":11,"byteOffset":0,"componentType":5125,"count":606,"type":"SCALAR"},{"bufferView":12,"byteOffset":0,"componentType":5126,"count":1440,"max":[13.600000381469727,0.875,1.5588933229446411],"min":[0.0,-0.874264121055603,-0.6516107320785522],"type":"VEC3"},{"bufferView":13,"byteOffset":0,"componentType":5125,"count":7410,"type":"SCALAR"},{"bufferView":14,"byteOffset":0,"componentType":5126,"count":480,"max":[14.005000114440918,1.7837029695510864,0.5882565975189209],"min":[4.047915458679199,0.5971567630767822,-0.5207355618476868],"type":"VEC3"},{"bufferView":15,"byteOffset":0,"componentType":5125,"count":1995,"type":"SCALAR"},{"bufferView":16,"byteOffset":0,"componentType":5126,"count":480,"max":[14.005000114440918,-0.5970005393028259,0.5883166790008545],"min":[4.048077583312988,-1.7835502624511719,-0.5206754803657532],"type":"VEC3"},{"bufferView":17,"byteOffset":0,"componentType":5125,"count":1995,"type":"SCALAR"}],"asset":{"generator":"VTK","version":"2.0"},"bufferViews":[{"buffer":0,"byteLength":9696,"byteOffset":0,"target":34962},{"buffer":1,"byteLength":16968,"byteOffset":0,"target":34963},{"buffer":2,"byteLength":9696,"byteOffset":0,"target":34962},{"buffer":3,"byteLength":16968,"byteOffset":0,"target":34963},{"buffer":4,"byteLength":3636,"byteOffset":0,"target":34962},{"buffer":5,"byteLength":4848,"byteOffset":0,"target":34963},{"buffer":6,"byteLength":3636,"byteOffset":0,"target":34962},{"buffer":7,"byteLength":4848,"byteOffset":0,"target":34963},{"buffer":8,"byteLength":2424,"byteOffset":0,"target":34962},{"buffer":9,"byteLength":2424,"byteOffset":0,"target":34963},{"buffer":10,"byteLength":2424,"byteOffset":0,"target":34962},{"buffer":11,"byteLength":2424,"byteOffset":0,"target":34963},{"buffer":12,"byteLength":17280,"byteOffset":0,"target":34962},{"buffer":13,"byteLength":29640,"byteOffset":0,"target":34963},{"buffer":14,"byteLength":5760,"byteOffset":0,"target":34962},{"buffer":15,"byteLength":7980,"byteOffset":0,"target":34963},{"buffer":16,"byteLength":5760,"byteOffset":0,"target":34962},{"buffer":17,"byteLength":7980,"byteOffset":0,"target":34963}],"buffers":[{"byteLength":9696,"uri":"data:application/octet-stream;base64,"},{"byteLength":16968,"uri":"data:application/octet-stream;base64,"},{"byteLength":9696,"uri":"data:application/octet-stream;base64,"},{"byteLength":16968,"uri":"data:application/octet-stream;base64,"},{"byteLength":3636,"uri":"data:application/octet-stream;base64,"},{"byteLength":4848,"uri":"data:application/octet-stream;base64,"},{"byteLength":3636,"uri":"data:application/octet-stream;base64,"},{"byteLength":4848,"uri":"data:application/octet-stream;base64,"},{"byteLength":2424,"uri":"data:application/octet-stream;base64,"},{"byteLength":2424,"uri":"data:application/octet-stream;base64,"},{"byteLength":2424,"uri":"data:application/octet-stream;base64,"},{"byteLength":2424,"uri":"data:application/octet-stream;base64,"},{"byteLength":17280,"uri":"data:application/octet-stream;base64,"},{"byteLength":29640,"uri":"data:application/octet-stream;base64,"},{"byteLength":5760,"uri":"data:application/octet-stream;base64,"},{"byteLength":7980,"uri":"data:application/octet-stream;base64,"},{"byteLength":5760,"uri":"data:application/octet-stream;base64,"},{"byteLength":7980,"uri":"data:application/octet-stream;base64,"}],"cameras":[{"perspective":{"aspectRatio":1.0,"yfov":0.5235987755982988,"zfar":66.7156856351424,"znear":19.32121243381996},"type":"perspective"}],"materials":[{"pbrMetallicRoughness":{"baseColorFactor":[0.5019607843137255,0.5019607843137255,0.5019607843137255,0.5],"metallicFactor":0.0,"roughnessFactor":1.0}},{"pbrMetallicRoughness":{"baseColorFactor":[0.5019607843137255,0.5019607843137255,0.5019607843137255,0.5],"metallicFactor":0.0,"roughnessFactor":1.0}},{"pbrMetallicRoughness":{"baseColorFactor":[0.5019607843137255,0.5019607843137255,0.5019607843137255,0.5],"metallicFactor":0.0,"roughnessFactor":1.0}},{"pbrMetallicRoughness":{"baseColorFactor":[0.5019607843137255,0.5019607843137255,0.5019607843137255,0.5],"metallicFactor":0.0,"roughnessFactor":1.0}},{"pbrMetallicRoughness":{"baseColorFactor":[0.5019607843137255,0.5019607843137255,0.5019607843137255,0.5],"metallicFactor":0.0,"roughnessFactor":1.0}},{"pbrMetallicRoughness":{"baseColorFactor":[0.5019607843137255,0.5019607843137255,0.5019607843137255,0.5],"metallicFactor":0.0,"roughnessFactor":1.0}},{"pbrMetallicRoughness":{"baseColorFactor":[0.5019607843137255,0.5019607843137255,0.5019607843137255,0.5],"metallicFactor":0.0,"roughnessFactor":1.0}},{"pbrMetallicRoughness":{"baseColorFactor":[0.5019607843137255,0.5019607843137255,0.5019607843137255,1.0],"metallicFactor":0.0,"roughnessFactor":1.0}},{"pbrMetallicRoughness":{"baseColorFactor":[0.5019607843137255,0.5019607843137255,0.5019607843137255,1.0],"metallicFactor":0.0,"roughnessFactor":1.0}}],"meshes":[{"name":"mesh0","primitives":[{"attributes":{"POSITION":0},"indices":1,"material":0,"mode":4}]},{"name":"mesh1","primitives":[{"attributes":{"POSITION":2},"indices":3,"material":1,"mode":4}]},{"name":"mesh2","primitives":[{"attributes":{"POSITION":4},"indices":5,"material":2,"mode":4}]},{"name":"mesh3","primitives":[{"attributes":{"POSITION":6},"indices":7,"material":3,"mode":4}]},{"name":"mesh4","primitives":[{"attributes":{"POSITION":8},"indices":9,"material":4,"mode":4}]},{"name":"mesh5","primitives":[{"attributes":{"POSITION":10},"indices":11,"material":5,"mode":4}]},{"name":"mesh6","primitives":[{"attributes":{"POSITION":12},"indices":13,"material":6,"mode":4}]},{"name":"mesh7","primitives":[{"attributes":{"POSITION":14},"indices":15,"material":7,"mode":4}]},{"name":"mesh8","primitives":[{"attributes":{"POSITION":16},"indices":17,"material":8,"mode":4}]}],"nodes":[{"mesh":0,"name":"mesh0"},{"mesh":1,"name":"mesh1"},{"mesh":2,"name":"mesh2"},{"mesh":3,"name":"mesh3"},{"mesh":4,"name":"mesh4"},{"mesh":5,"name":"mesh5"},{"mesh":6,"name":"mesh6"},{"mesh":7,"name":"mesh7"},{"mesh":8,"name":"mesh8"},{"camera":0,"matrix":[0.7071067811865476,-0.7071067811865476,-3.857287392262788e-18,-0.0,0.16987489334070158,0.16987489334070158,0.9707136762325804,0.0,-0.6863982230545803,-0.6863982230545803,0.24023937806910312,-0.0,-19.647021467088177,-27.634682828782516,10.52824556937762,1.0],"name":"Camera Node"},{"children":[0,1,2,3,4,5,6,7,8,9],"name":"Renderer Node"}],"scene":0,"scenes":[{"name":"Layer 0","nodes":[10]}]}