{"accessors":[{"bufferView":0,"byteOffset":0,"componentType":5126,"count":404,"max":[22.267112731933594,11.625,1.2409765720367432],"min":[13.380000114440918,0.0,-0.9175857901573181],"type":"VEC3"},{"bufferView":1,"byteOffset":0,"componentType":5125,"count":1809,"type":"SCALAR"},{"bufferView":2,"byteOffset":0,"componentType":5126,"count":404,"max":[22.267112731933594,-0.0,1.2409765720367432],"min":[13.380000114440918,-11.625,-0.9175857901573181],"type":"VEC3"},{"bufferView":3,"byteOffset":0,"componentType":5125,"count":1809,"type":"SCALAR"},{"bufferView":4,"byteOffset":0,"componentType":5126,"count":202,"max":[32.53209686279297,4.269999980926514,4.681316375732422],"min":[28.5,0.0,4.206081867218018],"type":"VEC3"},{"bufferView":5,"byteOffset":0,"componentType":5125,"count":606,"type":"SCALAR"},{"bufferView":6,"byteOffset":0,"componentType":5126,"count":202,"max":[32.53209686279297,-0.0,4.681316375732422],"min":[28.5,-4.269999980926514,4.206081867218018],"type":"VEC3"},{"bufferView":7,"byteOffset":0,"componentType":5125,"count":606,"type":"SCALAR"},{"bufferView":8,"byteOffset":0,"componentType":5126,"count":404,"max":[31.031143188476563,0.2700570523738861,5.150000095367432],"min":[24.962472915649414,-0.2700570523738861,1.25],"type":"VEC3"},{"bufferView":9,"byteOffset":0,"componentType":5125,"count":1818,"type":"SCALAR"},{"bufferView":10,"byteOffset":0,"componentType":5126,"count":1248,"max":[29.68000030517578,1.3450000286102295,2.027456045150757],"min":[0.0,-1.3442646265029907,-0.6621761322021484],"type":"VEC3"},{"bufferView":11,"byteOffset":0,"componentType":5125,"count":6270,"type":"SCALAR"},{"bufferView":12,"byteOffset":0,"componentType":5126,"count":4896,"max":[25.399999618530273,-1.1550058126449585,2.4948513507843018],"min":[21.5,-3.2444229125976563,0.40514859557151794],"type":"VEC3"},{"bufferView":13,"byteOffset":0,"componentType":5125,"count":28500,"type":"SCALAR"},{"bufferView":14,"byteOffset":0,"componentType":5126,"count":4896,"max":[25.399999618530273,3.2449941635131836,2.4948513507843018],"min":[21.5,1.1555770635604858,0.40514859557151794],"type":"VEC3"},{"bufferView":15,"byteOffset":0,"componentType":5125,"count":28500,"type":"SCALAR"},{"bufferView":16,"byteOffset":0,"componentType":5126,"count":10,"max":[17.853788375854492,4.650000095367432,-0.16503451764583588],"min":[13.860135078430176,0.0,-0.6921172738075256],"type":"VEC3"},{"bufferView":17,"byteOffset":0,"componentType":5125,"count":24,"type":"SCALAR"},{"bufferView":18,"byteOffset":0,"componentType":5126,"count":10,"max":[17.853788375854492,-0.0,-0.16503451764583588],"min":[13.860135078430176,-4.650000095367432,-0.6921172738075256],"type":"VEC3"},{"bufferView":19,"byteOffset":0,"componentType":5125,"count":24,"type":"SCALAR"},{"bufferView":20,"byteOffset":0,"componentType":5126,"count":10,"max":[20.862024307250977,11.392499923706055,-0.05862850323319435],"min":[16.397066116333008,4.650000095367432,-0.38829752802848816],"type":"VEC3"},{"bufferView":21,"byteOffset":0,"componentType":5125,"count":24,"type":"SCALAR"},{"bufferView":22,"byteOffset":0,"componentType":5126,"count":10,"max":[20.862024307250977,-4.650000095367432,-0.05862850323319435],"min":[16.397066116333008,-11.392499923706055,-0.38829752802848816],"type":"VEC3"},{"bufferView":23,"byteOffset":0,"componentType":5125,"count":24,"type":"SCALAR"}],"asset":{"generator":"VTK","version":"2.0"},"bufferViews":[{"buffer":0,"byteLength":4848,"byteOffset":0,"target":34962},{"buffer":1,"byteLength":7236,"byteOffset":0,"target":34963},{"buffer":2,"byteLength":4848,"byteOffset":0,"target":34962},{"buffer":3,"byteLength":7236,"byteOffset":0,"target":34963},{"buffer":4,"byteLength":2424,"byteOffset":0,"target":34962},{"buffer":5,"byteLength":2424,"byteOffset":0,"target":34963},{"buffer":6,"byteLength":2424,"byteOffset":0,"target":34962},{"buffer":7,"byteLength":2424,"byteOffset":0,"target":34963},{"buffer":8,"byteLength":4848,"byteOffset":0,"target":34962},{"buffer":9,"byteLength":7272,"byteOffset":0,"target":34963},{"buffer":10,"byteLength":14976,"byteOffset":0,"target":34962},{"buffer":11,"byteLength":25080,"byteOffset":0,"target":34963},{"buffer":12,"byteLength":58752,"byteOffset":0,"target":34962},{"buffer":13,"byteLength":114000,"byteOffset":0,"target":34963},{"buffer":14,"byteLength":58752,"byteOffset":0,"target":34962},{"buffer":15,"byteLength":114000,"byteOffset":0,"target":34963},{"buffer":16,"byteLength":120,"byteOffset":0,"target":34962},{"buffer":17,"byteLength":96,"byteOffset":0,"target":34963},{"buffer":18,"byteLength":120,"byteOffset":0,"target":34962},{"buffer":19,"byteLength":96,"byteOffset":0,"target":34963},{"buffer":20,"byteLength":120,"byteOffset":0,"target":34962},{"buffer":21,"byteLength":96,"byteOffset":0,"target":34963},{"buffer":22,"byteLength":120,"byteOffset":0,"target":34962},{"buffer":23,"byteLength":96,"byteOffset":0,"target":34963}],"buffers":[{"byteLength":4848,"uri":"data:application/octet-stream;base64,"},{"byteLength":7236,"uri":"data:application/octet-stream;base64,"},{"byteLength":4848,"uri":"data:application/octet-stream;base64,"},{"byteLength":7236,"uri":"data:application/octet-stream;base64,"},{"byteLength":2424,"uri":"data:application/octet-stream;base64,"},{"byteLength":2424,"uri":"data:application/octet-stream;base64,"},{"byteLength":2424,"uri":"data:application/octet-stream;base64,"},{"byteLength":2424,"uri":"data:application/octet-stream;base64,"},{"byteLength":4848,"uri":"data:application/octet-stream;base64,"},{"byteLength":7272,"uri":"data:application/octet-stream;base64,"},{"byteLength":14976,"uri":"data:application/octet-stream;base64,"},{"byteLength":25080,"uri":"data:application/octet-stream;base64,"},{"byteLength":58752,"uri":"data:application/octet-stream;base64,"},{"byteLength":114000,"uri":"data:application/octet-stream;base64,"},{"byteLength":58752,"uri":"data:application/octet-stream;base64,"},{"byteLength":114000,"uri":"data:application/octet-stream;base64,"},{"byteLength":120,"uri":"data:application/octet-stream;base64,"},{"byteLength":96,"uri":"data:application/octet-stream;base64,"},{"byteLength":120,"uri":"data:application/octet-stream;base64,"},{"byteLength":96,"uri":"data:application/octet-stream;base64,"},{"byteLength":120,"uri":"data:application/octet-stream;base64,"},{"byteLength":96,"uri":"data:application/octet-stream;base64,"},{"byteLength":120,"uri":"data:application/octet-stream;base64,"},{"byteLength":96,"uri":"data:application/octet-stream;base64,"}],"cameras":[{"perspective":{"aspectRatio":1.0,"yfov":0.5235987755982988,"zfar":129.08611642151047,"znear":37.80277649548792},"type":"perspective"}],"materials":[{"pbrMetallicRoughness":{"baseColorFactor":[0.5019607843137255,0.5019607843137255,0.5019607843137255,0.5],"metallicFactor":0.0,"roughnessFactor":1.0}},{"pbrMetallicRoughness":{"baseColorFactor":[0.5019607843137255,0.5019607843137255,0.5019607843137255,0.5],"metallicFactor":0.0,"roughnessFactor":1.0}},{"pbrMetallicRoughness":{"baseColorFactor":[0.5019607843137255,0.5019607843137255,0.5019607843137255,0.5],"metallicFactor":0.0,"roughnessFactor":1.0}},{"pbrMetallicRoughness":{"baseColorFactor":[0.5019607843137255,0.5019607843137255,0.5019607843137255,0.5],"metallicFactor":0.0,"roughnessFactor":1.0}},{"pbrMetallicRoughness":{"baseColorFactor":[0.5019607843137255,0.5019607843137255,0.5019607843137255,0.5],"metallicFactor":0.0,"roughnessFactor":1.0}},{"pbrMetallicRoughness":{"baseColorFactor":[0.5019607843137255,0.5019607843137255,0.5019607843137255,0.5],"metallicFactor":0.0,"roughnessFactor":1.0}},{"pbrMetallicRoughness":{"baseColorFactor":[0.5019607843137255,0.5019607843137255,0.5019607843137255,1.0],"metallicFactor":0.0,"roughnessFactor":1.0}},{"pbrMetallicRoughness":{"baseColorFactor":[0.5019607843137255,0.5019607843137255,0.5019607843137255,1.0],"metallicFactor":0.0,"roughnessFactor":1.0}},{"pbrMetallicRoughness":{"baseColorFactor":[1.0,0.6470588235294118,0.0,0.5],"metallicFactor":0.0,"roughnessFactor":1.0}},{"pbrMetallicRoughness":{"baseColorFactor":[1.0,0.6470588235294118,0.0,0.5],"metallicFactor":0.0,"roughnessFactor":1.0}},{"pbrMetallicRoughness":{"baseColorFactor":[1.0,0.6470588235294118,0.0,0.5],"metallicFactor":0.0,"roughnessFactor":1.0}},{"pbrMetallicRoughness":{"baseColorFactor":[1.0,0.6470588235294118,0.0,0.5],"metallicFactor":0.0,"roughnessFactor":1.0}}],"meshes":[{"name":"mesh0","primitives":[{"attributes":{"POSITION":0},"indices":1,"material":0,"mode":4}]},{"name":"mesh1","primitives":[{"attributes":{"POSITION":2},"indices":3,"material":1,"mode":4}]},{"name":"mesh2","primitives":[{"attributes":{"POSITION":4},"indices":5,"material":2,"mode":4}]},{"name":"mesh3","primitives":[{"attributes":{"POSITION":6},"indices":7,"material":3,"mode":4}]},{"name":"mesh4","primitives":[{"attributes":{"POSITION":8},"indices":9,"material":4,"mode":4}]},{"name":"mesh5","primitives":[{"attributes":{"POSITION":10},"indices":11,"material":5,"mode":4}]},{"name":"mesh6","primitives":[{"attributes":{"POSITION":12},"indices":13,"material":6,"mode":4}]},{"name":"mesh7","primitives":[{"attributes":{"POSITION":14},"indices":15,"material":7,"mode":4}]},{"name":"mesh8","primitives":[{"attributes":{"POSITION":16},"indices":17,"material":8,"mode":4}]},{"name":"mesh9","primitives":[{"attributes":{"POSITION":18},"indices":19,"material":9,"mode":4}]},{"name":"mesh10","primitives":[{"attributes":{"POSITION":20},"indices":21,"material":10,"mode":4}]},{"name":"mesh11","primitives":[{"attributes":{"POSITION":22},"indices":23,"material":11,"mode":4}]}],"nodes":[{"mesh":0,"name":"mesh0"},{"mesh":1,"name":"mesh1"},{"mesh":2,"name":"mesh2"},{"mesh":3,"name":"mesh3"},{"mesh":4,"name":"mesh4"},{"mesh":5,"name":"mesh5"},{"mesh":6,"name":"mesh6"},{"mesh":7,"name":"mesh7"},{"mesh":8,"name":"mesh8"},{"mesh":9,"name":"mesh9"},{"mesh":10,"name":"mesh10"},{"mesh":11,"name":"mesh11"},{"camera":0,"matrix":[0.7071067811865476,-0.7071067811865476,-5.308793515113359e-18,-0.0,0.16987489334070155,0.16987489334070155,0.9707136762325802,0.0,-0.6863982230545803,-0.6863982230545803,0.2402393780691031,-0.0,-37.36345785372764,-53.62950628512413,20.886534352398506,1.0],"name":"Camera Node"},{"children":[0,1,2,3,4,5,6,7,8,9,10,11,12],"name":"Renderer Node"}],"scene":0,"scenes":[{"name":"Layer 0","nodes":[13]}]}