{"accessors":[{"bufferView":0,"byteOffset":0,"componentType":5126,"count":202,"max":[7.4184699058532715,9.904999732971191,1.5418236255645752],"min":[5.380000114440918,0.0,1.2471632957458496],"type":"VEC3"},{"bufferView":1,"byteOffset":0,"componentType":5125,"count":606,"type":"SCALAR"},{"bufferView":2,"byteOffset":0,"componentType":5126,"count":202,"max":[7.4184699058532715,-0.0,1.5418236255645752],"min":[5.380000114440918,-9.904999732971191,1.2471632957458496],"type":"VEC3"},{"bufferView":3,"byteOffset":0,"componentType":5125,"count":606,"type":"SCALAR"},{"bufferView":4,"byteOffset":0,"componentType":5126,"count":202,"max":[14.51200008392334,3.1449999809265137,1.3431396484375],"min":[12.960000038146973,0.0,1.1568603515625],"type":"VEC3"},{"bufferView":5,"byteOffset":0,"componentType":5125,"count":606,"type":"SCALAR"},{"bufferView":6,"byteOffset":0,"componentType":5126,"count":202,"max":[14.51200008392334,-0.0,1.3431396484375],"min":[12.960000038146973,-3.1449999809265137,1.1568603515625],"type":"VEC3"},{"bufferView":7,"byteOffset":0,"componentType":5125,"count":606,"type":"SCALAR"},{"bufferView":8,"byteOffset":0,"componentType":5126,"count":202,"max":[15.770578384399414,0.18003803491592407,4.25],"min":[12.222000122070313,-0.18003803491592407,0.75],"type":"VEC3"},{"bufferView":9,"byteOffset":0,"componentType":5125,"count":606,"type":"SCALAR"},{"bufferView":10,"byteOffset":0,"componentType":5126,"count":1056,"max":[15.770000457763672,0.875,1.3744630813598633],"min":[0.0,-0.8747607469558716,-0.7953886389732361],"type":"VEC3"},{"bufferView":11,"byteOffset":0,"componentType":5125,"count":5130,"type":"SCALAR"},{"bufferView":12,"byteOffset":0,"componentType":5126,"count":24,"max":[4.135000228881836,0.8889999985694885,0.45719999074935913],"min":[3.677799940109253,0.4318000078201294,0.0],"type":"VEC3"},{"bufferView":13,"byteOffset":0,"componentType":5126,"count":24,"normalized":false,"type":"VEC2"},{"bufferView":14,"byteOffset":0,"componentType":5125,"count":36,"type":"SCALAR"},{"bufferView":15,"byteOffset":0,"componentType":5126,"count":24,"max":[4.135000228881836,-0.4318000078201294,0.45719999074935913],"min":[3.677799940109253,-0.8889999985694885,0.0],"type":"VEC3"},{"bufferView":16,"byteOffset":0,"componentType":5126,"count":24,"normalized":false,"type":"VEC2"},{"bufferView":17,"byteOffset":0,"componentType":5125,"count":36,"type":"SCALAR"},{"bufferView":18,"byteOffset":0,"componentType":5126,"count":24,"max":[4.135000228881836,0.4318000078201294,0.45719999074935913],"min":[3.677799940109253,-0.02539999969303608,0.0],"type":"VEC3"},{"bufferView":19,"byteOffset":0,"componentType":5126,"count":24,"normalized":false,"type":"VEC2"},{"bufferView":20,"byteOffset":0,"componentType":5125,"count":36,"type":"SCALAR"},{"bufferView":21,"byteOffset":0,"componentType":5126,"count":24,"max":[4.947800159454346,0.8889999985694885,0.45719999074935913],"min":[4.490600109100342,0.4318000078201294,0.0],"type":"VEC3"},{"bufferView":22,"byteOffset":0,"componentType":5126,"count":24,"normalized":false,"type":"VEC2"},{"bufferView":23,"byteOffset":0,"componentType":5125,"count":36,"type":"SCALAR"},{"bufferView":24,"byteOffset":0,"componentType":5126,"count":24,"max":[4.947800159454346,-0.4318000078201294,0.45719999074935913],"min":[4.490600109100342,-0.8889999985694885,0.0],"type":"VEC3"},{"bufferView":25,"byteOffset":0,"componentType":5126,"count":24,"normalized":false,"type":"VEC2"},{"bufferView":26,"byteOffset":0,"componentType":5125,"count":36,"type":"SCALAR"},{"bufferView":27,"byteOffset":0,"componentType":5126,"count":24,"max":[4.947800159454346,0.4318000078201294,0.45719999074935913],"min":[4.490600109100342,-0.02539999969303608,0.0],"type":"VEC3"},{"bufferView":28,"byteOffset":0,"componentType":5126,"count":24,"normalized":false,"type":"VEC2"},{"bufferView":29,"byteOffset":0,"componentType":5125,"count":36,"type":"SCALAR"},{"bufferView":30,"byteOffset":0,"componentType":5126,"count":24,"max":[5.7606000900268555,0.8889999985694885,0.45719999074935913],"min":[5.303400039672852,0.4318000078201294,0.0],"type":"VEC3"},{"bufferView":31,"byteOffset":0,"componentType":5126,"count":24,"normalized":false,"type":"VEC2"},{"bufferView":32,"byteOffset":0,"componentType":5125,"count":36,"type":"SCALAR"},{"bufferView":33,"byteOffset":0,"componentType":5126,"count":24,"max":[5.7606000900268555,-0.4318000078201294,0.45719999074935913],"min":[5.303400039672852,-0.8889999985694885,0.0],"type":"VEC3"},{"bufferView":34,"byteOffset":0,"componentType":5126,"count":24,"normalized":false,"type":"VEC2"},{"bufferView":35,"byteOffset":0,"componentType":5125,"count":36,"type":"SCALAR"},{"bufferView":36,"byteOffset":0,"componentType":5126,"count":24,"max":[5.7606000900268555,0.4318000078201294,0.45719999074935913],"min":[5.303400039672852,-0.02539999969303608,0.0],"type":"VEC3"},{"bufferView":37,"byteOffset":0,"componentType":5126,"count":24,"normalized":false,"type":"VEC2"},{"bufferView":38,"byteOffset":0,"componentType":5125,"count":36,"type":"SCALAR"},{"bufferView":39,"byteOffset":0,"componentType":5126,"count":24,"max":[6.573400020599365,0.8889999985694885,0.45719999074935913],"min":[6.116199970245361,0.4318000078201294,0.0],"type":"VEC3"},{"bufferView":40,"byteOffset":0,"componentType":5126,"count":24,"normalized":false,"type":"VEC2"},{"bufferView":41,"byteOffset":0,"componentType":5125,"count":36,"type":"SCALAR"},{"bufferView":42,"byteOffset":0,"componentType":5126,"count":24,"max":[6.573400020599365,-0.4318000078201294,0.45719999074935913],"min":[6.116199970245361,-0.8889999985694885,0.0],"type":"VEC3"},{"bufferView":43,"byteOffset":0,"componentType":5126,"count":24,"normalized":false,"type":"VEC2"},{"bufferView":44,"byteOffset":0,"componentType":5125,"count":36,"type":"SCALAR"},{"bufferView":45,"byteOffset":0,"componentType":5126,"count":24,"max":[6.573400020599365,0.4318000078201294,0.45719999074935913],"min":[6.116199970245361,-0.02539999969303608,0.0],"type":"VEC3"},{"bufferView":46,"byteOffset":0,"componentType":5126,"count":24,"normalized":false,"type":"VEC2"},{"bufferView":47,"byteOffset":0,"componentType":5125,"count":36,"type":"SCALAR"},{"bufferView":48,"byteOffset":0,"componentType":5126,"count":24,"max":[7.386199951171875,0.8889999985694885,0.45719999074935913],"min":[6.928999900817871,0.4318000078201294,0.0],"type":"VEC3"},{"bufferView":49,"byteOffset":0,"componentType":5126,"count":24,"normalized":false,"type":"VEC2"},{"bufferView":50,"byteOffset":0,"componentType":5125,"count":36,"type":"SCALAR"},{"bufferView":51,"byteOffset":0,"componentType":5126,"count":24,"max":[7.386199951171875,-0.4318000078201294,0.45719999074935913],"min":[6.928999900817871,-0.8889999985694885,0.0],"type":"VEC3"},{"bufferView":52,"byteOffset":0,"componentType":5126,"count":24,"normalized":false,"type":"VEC2"},{"bufferView":53,"byteOffset":0,"componentType":5125,"count":36,"type":"SCALAR"},{"bufferView":54,"byteOffset":0,"componentType":5126,"count":24,"max":[7.386199951171875,0.4318000078201294,0.45719999074935913],"min":[6.928999900817871,-0.02539999969303608,0.0],"type":"VEC3"},{"bufferView":55,"byteOffset":0,"componentType":5126,"count":24,"normalized":false,"type":"VEC2"},{"bufferView":56,"byteOffset":0,"componentType":5125,"count":36,"type":"SCALAR"},{"bufferView":57,"byteOffset":0,"componentType":5126,"count":24,"max":[8.199000358581543,0.8889999985694885,0.45719999074935913],"min":[7.741799831390381,0.4318000078201294,0.0],"type":"VEC3"},{"bufferView":58,"byteOffset":0,"componentType":5126,"count":24,"normalized":false,"type":"VEC2"},{"bufferView":59,"byteOffset":0,"componentType":5125,"count":36,"type":"SCALAR"},{"bufferView":60,"byteOffset":0,"componentType":5126,"count":24,"max":[8.199000358581543,-0.4318000078201294,0.45719999074935913],"min":[7.741799831390381,-0.8889999985694885,0.0],"type":"VEC3"},{"bufferView":61,"byteOffset":0,"componentType":5126,"count":24,"normalized":false,"type":"VEC2"},{"bufferView":62,"byteOffset":0,"componentType":5125,"count":36,"type":"SCALAR"},{"bufferView":63,"byteOffset":0,"componentType":5126,"count":24,"max":[8.199000358581543,0.4318000078201294,0.45719999074935913],"min":[7.741799831390381,-0.02539999969303608,0.0],"type":"VEC3"},{"bufferView":64,"byteOffset":0,"componentType":5126,"count":24,"normalized":false,"type":"VEC2"},{"bufferView":65,"byteOffset":0,"componentType":5125,"count":36,"type":"SCALAR"},{"bufferView":66,"byteOffset":0,"componentType":5126,"count":864,"max":[7.5,3.181382179260254,1.4400140047073364],"min":[3.5,2.4446191787719727,0.34166890382766724],"type":"VEC3"},{"bufferView":67,"byteOffset":0,"componentType":5125,"count":4275,"type":"SCALAR"},{"bufferView":68,"byteOffset":0,"componentType":5126,"count":2550,"max":[2.875477538487949e-16,1.2924445867538452,1.2949999570846558],"min":[-2.875477538487949e-16,-1.2924445867538452,-1.2949999570846558],"type":"VEC3"},{"bufferView":69,"byteOffset":0,"componentType":5125,"count":15000,"type":"SCALAR"},{"bufferView":70,"byteOffset":0,"componentType":5126,"count":864,"max":[7.5,-2.444417715072632,1.660014033317566],"min":[3.5,-3.181180715560913,0.5616689324378967],"type":"VEC3"},{"bufferView":71,"byteOffset":0,"componentType":5125,"count":4275,"type":"SCALAR"},{"bufferView":72,"byteOffset":0,"componentType":5126,"count":2550,"max":[2.875477538487949e-16,1.2924445867538452,1.2949999570846558],"min":[-2.875477538487949e-16,-1.2924445867538452,-1.2949999570846558],"type":"VEC3"},{"bufferView":73,"byteOffset":0,"componentType":5125,"count":15000,"type":"SCALAR"}],"asset":{"generator":"VTK","version":"2.0"},"bufferViews":[{"buffer":0,"byteLength":2424,"byteOffset":0,"target":34962},{"buffer":1,"byteLength":2424,"byteOffset":0,"target":34963},{"buffer":2,"byteLength":2424,"byteOffset":0,"target":34962},{"buffer":3,"byteLength":2424,"byteOffset":0,"target":34963},{"buffer":4,"byteLength":2424,"byteOffset":0,"target":34962},{"buffer":5,"byteLength":2424,"byteOffset":0,"target":34963},{"buffer":6,"byteLength":2424,"byteOffset":0,"target":34962},{"buffer":7,"byteLength":2424,"byteOffset":0,"target":34963},{"buffer":8,"byteLength":2424,"byteOffset":0,"target":34962},{"buffer":9,"byteLength":2424,"byteOffset":0,"target":34963},{"buffer":10,"byteLength":12672,"byteOffset":0,"target":34962},{"buffer":11,"byteLength":20520,"byteOffset":0,"target":34963},{"buffer":12,"byteLength":288,"byteOffset":0,"target":34962},{"buffer":13,"byteLength":192,"byteOffset":0,"target":34962},{"buffer":14,"byteLength":144,"byteOffset":0,"target":34963},{"buffer":15,"byteLength":288,"byteOffset":0,"target":34962},{"buffer":16,"byteLength":192,"byteOffset":0,"target":34962},{"buffer":17,"byteLength":144,"byteOffset":0,"target":34963},{"buffer":18,"byteLength":288,"byteOffset":0,"target":34962},{"buffer":19,"byteLength":192,"byteOffset":0,"target":34962},{"buffer":20,"byteLength":144,"byteOffset":0,"target":34963},{"buffer":21,"byteLength":288,"byteOffset":0,"target":34962},{"buffer":22,"byteLength":192,"byteOffset":0,"target":34962},{"buffer":23,"byteLength":144,"byteOffset":0,"target":34963},{"buffer":24,"byteLength":288,"byteOffset":0,"target":34962},{"buffer":25,"byteLength":192,"byteOffset":0,"target":34962},{"buffer":26,"byteLength":144,"byteOffset":0,"target":34963},{"buffer":27,"byteLength":288,"byteOffset":0,"target":34962},{"buffer":28,"byteLength":192,"byteOffset":0,"target":34962},{"buffer":29,"byteLength":144,"byteOffset":0,"target":34963},{"buffer":30,"byteLength":288,"byteOffset":0,"target":34962},{"buffer":31,"byteLength":192,"byteOffset":0,"target":34962},{"buffer":32,"byteLength":144,"byteOffset":0,"target":34963},{"buffer":33,"byteLength":288,"byteOffset":0,"target":34962},{"buffer":34,"byteLength":192,"byteOffset":0,"target":34962},{"buffer":35,"byteLength":144,"byteOffset":0,"target":34963},{"buffer":36,"byteLength":288,"byteOffset":0,"target":34962},{"buffer":37,"byteLength":192,"byteOffset":0,"target":34962},{"buffer":38,"byteLength":144,"byteOffset":0,"target":34963},{"buffer":39,"byteLength":288,"byteOffset":0,"target":34962},{"buffer":40,"byteLength":192,"byteOffset":0,"target":34962},{"buffer":41,"byteLength":144,"byteOffset":0,"target":34963},{"buffer":42,"byteLength":288,"byteOffset":0,"target":34962},{"buffer":43,"byteLength":192,"byteOffset":0,"target":34962},{"buffer":44,"byteLength":144,"byteOffset":0,"target":34963},{"buffer":45,"byteLength":288,"byteOffset":0,"target":34962},{"buffer":46,"byteLength":192,"byteOffset":0,"target":34962},{"buffer":47,"byteLength":144,"byteOffset":0,"target":34963},{"buffer":48,"byteLength":288,"byteOffset":0,"target":34962},{"buffer":49,"byteLength":192,"byteOffset":0,"target":34962},{"buffer":50,"byteLength":144,"byteOffset":0,"target":34963},{"buffer":51,"byteLength":288,"byteOffset":0,"target":34962},{"buffer":52,"byteLength":192,"byteOffset":0,"target":34962},{"buffer":53,"byteLength":144,"byteOffset":0,"target":34963},{"buffer":54,"byteLength":288,"byteOffset":0,"target":34962},{"buffer":55,"byteLength":192,"byteOffset":0,"target":34962},{"buffer":56,"byteLength":144,"byteOffset":0,"target":34963},{"buffer":57,"byteLength":288,"byteOffset":0,"target":34962},{"buffer":58,"byteLength":192,"byteOffset":0,"target":34962},{"buffer":59,"byteLength":144,"byteOffset":0,"target":34963},{"buffer":60,"byteLength":288,"byteOffset":0,"target":34962},{"buffer":61,"byteLength":192,"byteOffset":0,"target":34962},{"buffer":62,"byteLength":144,"byteOffset":0,"target":34963},{"buffer":63,"byteLength":288,"byteOffset":0,"target":34962},{"buffer":64,"byteLength":192,"byteOffset":0,"target":34962},{"buffer":65,"byteLength":144,"byteOffset":0,"target":34963},{"buffer":66,"byteLength":10368,"byteOffset":0,"target":34962},{"buffer":67,"byteLength":17100,"byteOffset":0,"target":34963},{"buffer":68,"byteLength":30600,"byteOffset":0,"target":34962},{"buffer":69,"byteLength":60000,"byteOffset":0,"target":34963},{"buffer":70,"byteLength":10368,"byteOffset":0,"target":34962},{"buffer":71,"byteLength":17100,"byteOffset":0,"target":34963},{"buffer":72,"byteLength":30600,"byteOffset":0,"target":34962},{"buffer":73,"byteLength":60000,"byteOffset":0,"target":34963}],"buffers":[{"byteLength":2424,"uri":"data:application/octet-stream;base64,"},{"byteLength":2424,"uri":"data:application/octet-stream;base64,"},{"byteLength":2424,"uri":"data:application/octet-stream;base64,"},{"byteLength":2424,"uri":"data:application/octet-stream;base64,"},{"byteLength":2424,"uri":"data:application/octet-stream;base64,"},{"byteLength":2424,"uri":"data:application/octet-stream;base64,"},{"byteLength":2424,"uri":"data:application/octet-stream;base64,"},{"byteLength":2424,"uri":"data:application/octet-stream;base64,"},{"byteLength":2424,"uri":"data:application/octet-stream;base64,"},{"byteLength":2424,"uri":"data:application/octet-stream;base64,"},{"byteLength":12672,"uri":"data:application/octet-stream;base64,"},{"byteLength":20520,"uri":"data:application/octet-stream;base64,"},{"byteLength":288,"uri":"data:application/octet-stream;base64,"},{"byteLength":192,"uri":"data:application/octet-stream;base64,"},{"byteLength":144,"uri":"data:application/octet-stream;base64,"},{"byteLength":288,"uri":"data:application/octet-stream;base64,"},{"byteLength":192,"uri":"data:application/octet-stream;base64,"},{"byteLength":144,"uri":"data:application/octet-stream;base64,"},{"byteLength":288,"uri":"data:application/octet-stream;base64,"},{"byteLength":192,"uri":"data:application/octet-stream;base64,"},{"byteLength":144,"uri":"data:application/octet-stream;base64,"},{"byteLength":288,"uri":"data:application/octet-stream;base64,"},{"byteLength":192,"uri":"data:application/octet-stream;base64,"},{"byteLength":144,"uri":"data:application/octet-stream;base64,"},{"byteLength":288,"uri":"data:application/octet-stream;base64,"},{"byteLength":192,"uri":"data:application/octet-stream;base64,"},{"byteLength":144,"uri":"data:application/octet-stream;base64,"},{"byteLength":288,"uri":"data:application/octet-stream;base64,"},{"byteLength":192,"uri":"data:application/octet-stream;base64,"},{"byteLength":144,"uri":"data:application/octet-stream;base64,"},{"byteLength":288,"uri":"data:application/octet-stream;base64,"},{"byteLength":192,"uri":"data:application/octet-stream;base64,"},{"byteLength":144,"uri":"data:application/octet-stream;base64,"},{"byteLength":288,"uri":"data:application/octet-stream;base64,"},{"byteLength":192,"uri":"data:application/octet-stream;base64,"},{"byteLength":144,"uri":"data:application/octet-stream;base64,"},{"byteLength":288,"uri":"data:application/octet-stream;base64,"},{"byteLength":192,"uri":"data:application/octet-stream;base64,"},{"byteLength":144,"uri":"data:application/octet-stream;base64,"},{"byteLength":288,"uri":"data:application/octet-stream;base64,"},{"byteLength":192,"uri":"data:application/octet-stream;base64,"},{"byteLength":144,"uri":"data:application/octet-stream;base64,"},{"byteLength":288,"uri":"data:application/octet-stream;base64,"},{"byteLength":192,"uri":"data:application/octet-stream;base64,"},{"byteLength":144,"uri":"data:application/octet-stream;base64,"},{"byteLength":288,"uri":"data:application/octet-stream;base64,"},{"byteLength":192,"uri":"data:application/octet-stream;base64,"},{"byteLength":144,"uri":"data:application/octet-stream;base64,"},{"byteLength":288,"uri":"data:application/octet-stream;base64,"},{"byteLength":192,"uri":"data:application/octet-stream;base64,"},{"byteLength":144,"uri":"data:application/octet-stream;base64,"},{"byteLength":288,"uri":"data:application/octet-stream;base64,"},{"byteLength":192,"uri":"data:application/octet-stream;base64,"},{"byteLength":144,"uri":"data:application/octet-stream;base64,"},{"byteLength":288,"uri":"data:application/octet-stream;base64,"},{"byteLength":192,"uri":"data:application/octet-stream;base64,"},{"byteLength":144,"uri":"data:application/octet-stream;base64,"},{"byteLength":288,"uri":"data:application/octet-stream;base64,"},{"byteLength":192,"uri":"data:application/octet-stream;base64,"},{"byteLength":144,"uri":"data:application/octet-stream;base64,"},{"byteLength":288,"uri":"data:application/octet-stream;base64,"},{"byteLength":192,"uri":"data:application/octet-stream;base64,"},{"byteLength":144,"uri":"data:application/octet-stream;base64,"},{"byteLength":288,"uri":"data:application/octet-stream;base64,"},{"byteLength":192,"uri":"data:application/octet-stream;base64,"},{"byteLength":144,"uri":"data:application/octet-stream;base64,"},{"byteLength":10368,"uri":"data:application/octet-stream;base64,"},{"byteLength":17100,"uri":"data:application/octet-stream;base64,"},{"byteLength":30600,"uri":"data:application/octet-stream;base64,"},{"byteLength":60000,"uri":"data:application/octet-stream;base64,"},{"byteLength":10368,"uri":"data:application/octet-stream;base64,"},{"byteLength":17100,"uri":"data:application/octet-stream;base64,"},{"byteLength":30600,"uri":"data:application/octet-stream;base64,"},{"byteLength":60000,"uri":"data:application/octet-stream;base64,"}],"cameras":[{"perspective":{"aspectRatio":1.0,"yfov":0.5235987755982988,"zfar":82.73325634303521,"znear":23.872667727274138},"type":"perspective"}],"materials":[{"pbrMetallicRoughness":{"baseColorFactor":[0.5019607843137255,0.5019607843137255,0.5019607843137255,0.5],"metallicFactor":0.0,"roughnessFactor":1.0}},{"pbrMetallicRoughness":{"baseColorFactor":[0.5019607843137255,0.5019607843137255,0.5019607843137255,0.5],"metallicFactor":0.0,"roughnessFactor":1.0}},{"pbrMetallicRoughness":{"baseColorFactor":[0.5019607843137255,0.5019607843137255,0.5019607843137255,0.5],"metallicFactor":0.0,"roughnessFactor":1.0}},{"pbrMetallicRoughness":{"baseColorFactor":[0.5019607843137255,0.5019607843137255,0.5019607843137255,0.5],"metallicFactor":0.0,"roughnessFactor":1.0}},{"pbrMetallicRoughness":{"baseColorFactor":[0.5019607843137255,0.5019607843137255,0.5019607843137255,0.5],"metallicFactor":0.0,"roughnessFactor":1.0}},{"pbrMetallicRoughness":{"baseColorFactor":[0.5019607843137255,0.5019607843137255,0.5019607843137255,0.5],"metallicFactor":0.0,"roughnessFactor":1.0}},{"pbrMetallicRoughness":{"baseColorFactor":[0.27450980392156865,0.5098039215686274,0.7058823529411765,1.0],"metallicFactor":0.0,"roughnessFactor":1.0}},{"pbrMetallicRoughness":{"baseColorFactor":[0.27450980392156865,0.5098039215686274,0.7058823529411765,1.0],"metallicFactor":0.0,"roughnessFactor":1.0}},{"pbrMetallicRoughness":{"baseColorFactor":[0.27450980392156865,0.5098039215686274,0.7058823529411765,1.0],"metallicFactor":0.0,"roughnessFactor":1.0}},{"pbrMetallicRoughness":{"baseColorFactor":[0.27450980392156865,0.5098039215686274,0.7058823529411765,1.0],"metallicFactor":0.0,"roughnessFactor":1.0}},{"pbrMetallicRoughness":{"baseColorFactor":[0.27450980392156865,0.5098039215686274,0.7058823529411765,1.0],"metallicFactor":0.0,"roughnessFactor":1.0}},{"pbrMetallicRoughness":{"baseColorFactor":[0.27450980392156865,0.5098039215686274,0.7058823529411765,1.0],"metallicFactor":0.0,"roughnessFactor":1.0}},{"pbrMetallicRoughness":{"baseColorFactor":[0.27450980392156865,0.5098039215686274,0.7058823529411765,1.0],"metallicFactor":0.0,"roughnessFactor":1.0}},{"pbrMetallicRoughness":{"baseColorFactor":[0.27450980392156865,0.5098039215686274,0.7058823529411765,1.0],"metallicFactor":0.0,"roughnessFactor":1.0}},{"pbrMetallicRoughness":{"baseColorFactor":[0.27450980392156865,0.5098039215686274,0.7058823529411765,1.0],"metallicFactor":0.0,"roughnessFactor":1.0}},{"pbrMetallicRoughness":{"baseColorFactor":[0.27450980392156865,0.5098039215686274,0.7058823529411765,1.0],"metallicFactor":0.0,"roughnessFactor":1.0}},{"pbrMetallicRoughness":{"baseColorFactor":[0.27450980392156865,0.5098039215686274,0.7058823529411765,1.0],"metallicFactor":0.0,"roughnessFactor":1.0}},{"pbrMetallicRoughness":{"baseColorFactor":[0.27450980392156865,0.5098039215686274,0.7058823529411765,1.0],"metallicFactor":0.0,"roughnessFactor":1.0}},{"pbrMetallicRoughness":{"baseColorFactor":[0.27450980392156865,0.5098039215686274,0.7058823529411765,1.0],"metallicFactor":0.0,"roughnessFactor":1.0}},{"pbrMetallicRoughness":{"baseColorFactor":[0.27450980392156865,0.5098039215686274,0.7058823529411765,1.0],"metallicFactor":0.0,"roughnessFactor":1.0}},{"pbrMetallicRoughness":{"baseColorFactor":[0.27450980392156865,0.5098039215686274,0.7058823529411765,1.0],"metallicFactor":0.0,"roughnessFactor":1.0}},{"pbrMetallicRoughness":{"baseColorFactor":[0.27450980392156865,0.5098039215686274,0.7058823529411765,1.0],"metallicFactor":0.0,"roughnessFactor":1.0}},{"pbrMetallicRoughness":{"baseColorFactor":[0.27450980392156865,0.5098039215686274,0.7058823529411765,1.0],"metallicFactor":0.0,"roughnessFactor":1.0}},{"pbrMetallicRoughness":{"baseColorFactor":[0.27450980392156865,0.5098039215686274,0.7058823529411765,1.0],"metallicFactor":0.0,"roughnessFactor":1.0}},{"pbrMetallicRoughness":{"baseColorFactor":[0.5019607843137255,0.5019607843137255,0.5019607843137255,1.0],"metallicFactor":0.0,"roughnessFactor":1.0}},{"pbrMetallicRoughness":{"baseColorFactor":[0.0,0.0,0.0,0.6],"metallicFactor":0.0,"roughnessFactor":1.0}},{"pbrMetallicRoughness":{"baseColorFactor":[0.5019607843137255,0.5019607843137255,0.5019607843137255,1.0],"metallicFactor":0.0,"roughnessFactor":1.0}},{"pbrMetallicRoughness":{"baseColorFactor":[0.0,0.0,0.0,0.6],"metallicFactor":0.0,"roughnessFactor":1.0}}],"meshes":[{"name":"mesh0","primitives":[{"attributes":{"POSITION":0},"indices":1,"material":0,"mode":4}]},{"name":"mesh1","primitives":[{"attributes":{"POSITION":2},"indices":3,"material":1,"mode":4}]},{"name":"mesh2","primitives":[{"attributes":{"POSITION":4},"indices":5,"material":2,"mode":4}]},{"name":"mesh3","primitives":[{"attributes":{"POSITION":6},"indices":7,"material":3,"mode":4}]},{"name":"mesh4","primitives":[{"attributes":{"POSITION":8},"indices":9,"material":4,"mode":4}]},{"name":"mesh5","primitives":[{"attributes":{"POSITION":10},"indices":11,"material":5,"mode":4}]},{"name":"mesh6","primitives":[{"attributes":{"POSITION":12,"TEXCOORD_0":13},"indices":14,"material":6,"mode":4}]},{"name":"mesh7","primitives":[{"attributes":{"POSITION":15,"TEXCOORD_0":16},"indices":17,"material":7,"mode":4}]},{"name":"mesh8","primitives":[{"attributes":{"POSITION":18,"TEXCOORD_0":19},"indices":20,"material":8,"mode":4}]},{"name":"mesh9","primitives":[{"attributes":{"POSITION":21,"TEXCOORD_0":22},"indices":23,"material":9,"mode":4}]},{"name":"mesh10","primitives":[{"attributes":{"POSITION":24,"TEXCOORD_0":25},"indices":26,"material":10,"mode":4}]},{"name":"mesh11","primitives":[{"attributes":{"POSITION":27,"TEXCOORD_0":28},"indices":29,"material":11,"mode":4}]},{"name":"mesh12","primitives":[{"attributes":{"POSITION":30,"TEXCOORD_0":31},"indices":32,"material":12,"mode":4}]},{"name":"mesh13","primitives":[{"attributes":{"POSITION":33,"TEXCOORD_0":34},"indices":35,"material":13,"mode":4}]},{"name":"mesh14","primitives":[{"attributes":{"POSITION":36,"TEXCOORD_0":37},"indices":38,"material":14,"mode":4}]},{"name":"mesh15","primitives":[{"attributes":{"POSITION":39,"TEXCOORD_0":40},"indices":41,"material":15,"mode":4}]},{"name":"mesh16","primitives":[{"attributes":{"POSITION":42,"TEXCOORD_0":43},"indices":44,"material":16,"mode":4}]},{"name":"mesh17","primitives":[{"attributes":{"POSITION":45,"TEXCOORD_0":46},"indices":47,"material":17,"mode":4}]},{"name":"mesh18","primitives":[{"attributes":{"POSITION":48,"TEXCOORD_0":49},"indices":50,"material":18,"mode":4}]},{"name":"mesh19","primitives":[{"attributes":{"POSITION":51,"TEXCOORD_0":52},"indices":53,"material":19,"mode":4}]},{"name":"mesh20","primitives":[{"attributes":{"POSITION":54,"TEXCOORD_0":55},"indices":56,"material":20,"mode":4}]},{"name":"mesh21","primitives":[{"attributes":{"POSITION":57,"TEXCOORD_0":58},"indices":59,"material":21,"mode":4}]},{"name":"mesh22","primitives":[{"attributes":{"POSITION":60,"TEXCOORD_0":61},"indices":62,"material":22,"mode":4}]},{"name":"mesh23","primitives":[{"attributes":{"POSITION":63,"TEXCOORD_0":64},"indices":65,"material":23,"mode":4}]},{"name":"mesh24","primitives":[{"attributes":{"POSITION":66},"indices":67,"material":24,"mode":4}]},{"name":"mesh25","primitives":[{"attributes":{"POSITION":68},"indices":69,"material":25,"mode":4}]},{"name":"mesh26","primitives":[{"attributes":{"POSITION":70},"indices":71,"material":26,"mode":4}]},{"name":"mesh27","primitives":[{"attributes":{"POSITION":72},"indices":73,"material":27,"mode":4}]}],"nodes":[{"mesh":0,"name":"mesh0"},{"mesh":1,"name":"mesh1"},{"mesh":2,"name":"mesh2"},{"mesh":3,"name":"mesh3"},{"mesh":4,"name":"mesh4"},{"mesh":5,"name":"mesh5"},{"mesh":6,"name":"mesh6"},{"mesh":7,"name":"mesh7"},{"mesh":8,"name":"mesh8"},{"mesh":9,"name":"mesh9"},{"mesh":10,"name":"mesh10"},{"mesh":11,"name":"mesh11"},{"mesh":12,"name":"mesh12"},{"mesh":13,"name":"mesh13"},{"mesh":14,"name":"mesh14"},{"mesh":15,"name":"mesh15"},{"mesh":16,"name":"mesh16"},{"mesh":17,"name":"mesh17"},{"mesh":18,"name":"mesh18"},{"mesh":19,"name":"mesh19"},{"mesh":20,"name":"mesh20"},{"mesh":21,"name":"mesh21"},{"mesh":22,"name":"mesh22"},{"mesh":23,"name":"mesh23"},{"mesh":24,"name":"mesh24"},{"matrix":[1.0,0.0,0.0,0.0,0.0,1.0,0.0,0.0,0.0,0.0,1.0,0.0,3.75,2.8129,1.22,1.0],"mesh":25,"name":"mesh25"},{"mesh":26,"name":"mesh26"},{"matrix":[1.0,0.0,0.0,0.0,0.0,1.0,0.0,0.0,0.0,0.0,1.0,0.0,3.75,-2.8129,1.22,1.0],"mesh":27,"name":"mesh27"},{"camera":0,"matrix":[0.7071067811865476,-0.7071067811865476,-5.308793515113359e-18,-0.0,0.16987489334070155,0.16987489334070155,0.9707136762325802,0.0,-0.6863982230545803,-0.6863982230545803,0.2402393780691031,-0.0,-26.35075757294862,-34.23604676514833,13.709922048315297,1.0],"name":"Camera Node"},{"children":[0,1,2,3,4,5,6,7,8,9,10,11,12,13,14,15,16,17,18,19,20,21,22,23,24,25,26,27,28],"name":"Renderer Node"}],"scene":0,"scenes":[{"name":"Layer 0","nodes":[29]}]}