{"accessors":[{"bufferView":0,"byteOffset":0,"componentType":5126,"count":303,"max":[10.946999549865723,12.78499984741211,2.441974401473999],"min":[8.196999549865723,0.0,1.9137905836105347],"type":"VEC3"},{"bufferView":1,"byteOffset":0,"componentType":5125,"count":1209,"type":"SCALAR"},{"bufferView":2,"byteOffset":0,"componentType":5126,"count":303,"max":[10.946999549865723,-0.0,2.441974401473999],"min":[8.196999549865723,-12.78499984741211,1.9137905836105347],"type":"VEC3"},{"bufferView":3,"byteOffset":0,"componentType":5125,"count":1209,"type":"SCALAR"},{"bufferView":4,"byteOffset":0,"componentType":5126,"count":202,"max":[22.03658103942871,4.070000171661377,6.349939346313477],"min":[19.87700080871582,0.0,6.134060859680176],"type":"VEC3"},{"bufferView":5,"byteOffset":0,"componentType":5125,"count":606,"type":"SCALAR"},{"bufferView":6,"byteOffset":0,"componentType":5126,"count":202,"max":[22.03658103942871,-0.0,6.349939346313477],"min":[19.87700080871582,-4.070000171661377,6.134060859680176],"type":"VEC3"},{"bufferView":7,"byteOffset":0,"componentType":5125,"count":606,"type":"SCALAR"},{"bufferView":8,"byteOffset":0,"componentType":5126,"count":303,"max":[22.65555191040039,0.2538036108016968,6.289999961853027],"min":[10.602999687194824,-0.2538036108016968,1.809999942779541],"type":"VEC3"},{"bufferView":9,"byteOffset":0,"componentType":5125,"count":1212,"type":"SCALAR"},{"bufferView":10,"byteOffset":0,"componentType":5126,"count":1344,"max":[20.780000686645508,1.375,2.2117092609405518],"min":[0.0,-1.3742482662200928,-0.4947676956653595],"type":"VEC3"},{"bufferView":11,"byteOffset":0,"componentType":5125,"count":6840,"type":"SCALAR"},{"bufferView":12,"byteOffset":0,"componentType":5126,"count":24,"max":[5.2779998779296875,1.3905999660491943,0.4318000078201294],"min":[4.465199947357178,0.9588000178337097,0.0],"type":"VEC3"},{"bufferView":13,"byteOffset":0,"componentType":5126,"count":24,"normalized":false,"type":"VEC2"},{"bufferView":14,"byteOffset":0,"componentType":5125,"count":36,"type":"SCALAR"},{"bufferView":15,"byteOffset":0,"componentType":5126,"count":24,"max":[5.2779998779296875,-0.9588000178337097,0.4318000078201294],"min":[4.465199947357178,-1.3905999660491943,0.0],"type":"VEC3"},{"bufferView":16,"byteOffset":0,"componentType":5126,"count":24,"normalized":false,"type":"VEC2"},{"bufferView":17,"byteOffset":0,"componentType":5125,"count":36,"type":"SCALAR"},{"bufferView":18,"byteOffset":0,"componentType":5126,"count":24,"max":[5.2779998779296875,0.9079999923706055,0.4318000078201294],"min":[4.465199947357178,0.47620001435279846,0.0],"type":"VEC3"},{"bufferView":19,"byteOffset":0,"componentType":5126,"count":24,"normalized":false,"type":"VEC2"},{"bufferView":20,"byteOffset":0,"componentType":5125,"count":36,"type":"SCALAR"},{"bufferView":21,"byteOffset":0,"componentType":5126,"count":24,"max":[5.2779998779296875,-0.47620001435279846,0.4318000078201294],"min":[4.465199947357178,-0.9079999923706055,0.0],"type":"VEC3"},{"bufferView":22,"byteOffset":0,"componentType":5126,"count":24,"normalized":false,"type":"VEC2"},{"bufferView":23,"byteOffset":0,"componentType":5125,"count":36,"type":"SCALAR"},{"bufferView":24,"byteOffset":0,"componentType":5126,"count":24,"max":[6.306700229644775,1.3905999660491943,0.4318000078201294],"min":[5.8495001792907715,0.9588000178337097,0.0],"type":"VEC3"},{"bufferView":25,"byteOffset":0,"componentType":5126,"count":24,"normalized":false,"type":"VEC2"},{"bufferView":26,"byteOffset":0,"componentType":5125,"count":36,"type":"SCALAR"},{"bufferView":27,"byteOffset":0,"componentType":5126,"count":24,"max":[6.306700229644775,-0.9588000178337097,0.4318000078201294],"min":[5.8495001792907715,-1.3905999660491943,0.0],"type":"VEC3"},{"bufferView":28,"byteOffset":0,"componentType":5126,"count":24,"normalized":false,"type":"VEC2"},{"bufferView":29,"byteOffset":0,"componentType":5125,"count":36,"type":"SCALAR"},{"bufferView":30,"byteOffset":0,"componentType":5126,"count":24,"max":[6.306700229644775,0.9079999923706055,0.4318000078201294],"min":[5.8495001792907715,0.47620001435279846,0.0],"type":"VEC3"},{"bufferView":31,"byteOffset":0,"componentType":5126,"count":24,"normalized":false,"type":"VEC2"},{"bufferView":32,"byteOffset":0,"componentType":5125,"count":36,"type":"SCALAR"},{"bufferView":33,"byteOffset":0,"componentType":5126,"count":24,"max":[6.306700229644775,-0.47620001435279846,0.4318000078201294],"min":[5.8495001792907715,-0.9079999923706055,0.0],"type":"VEC3"},{"bufferView":34,"byteOffset":0,"componentType":5126,"count":24,"normalized":false,"type":"VEC2"},{"bufferView":35,"byteOffset":0,"componentType":5125,"count":36,"type":"SCALAR"},{"bufferView":36,"byteOffset":0,"componentType":5126,"count":24,"max":[7.094099998474121,1.3905999660491943,0.4318000078201294],"min":[6.636899948120117,0.9588000178337097,0.0],"type":"VEC3"},{"bufferView":37,"byteOffset":0,"componentType":5126,"count":24,"normalized":false,"type":"VEC2"},{"bufferView":38,"byteOffset":0,"componentType":5125,"count":36,"type":"SCALAR"},{"bufferView":39,"byteOffset":0,"componentType":5126,"count":24,"max":[7.094099998474121,-0.9588000178337097,0.4318000078201294],"min":[6.636899948120117,-1.3905999660491943,0.0],"type":"VEC3"},{"bufferView":40,"byteOffset":0,"componentType":5126,"count":24,"normalized":false,"type":"VEC2"},{"bufferView":41,"byteOffset":0,"componentType":5125,"count":36,"type":"SCALAR"},{"bufferView":42,"byteOffset":0,"componentType":5126,"count":24,"max":[7.094099998474121,0.9079999923706055,0.4318000078201294],"min":[6.636899948120117,0.47620001435279846,0.0],"type":"VEC3"},{"bufferView":43,"byteOffset":0,"componentType":5126,"count":24,"normalized":false,"type":"VEC2"},{"bufferView":44,"byteOffset":0,"componentType":5125,"count":36,"type":"SCALAR"},{"bufferView":45,"byteOffset":0,"componentType":5126,"count":24,"max":[7.094099998474121,-0.47620001435279846,0.4318000078201294],"min":[6.636899948120117,-0.9079999923706055,0.0],"type":"VEC3"},{"bufferView":46,"byteOffset":0,"componentType":5126,"count":24,"normalized":false,"type":"VEC2"},{"bufferView":47,"byteOffset":0,"componentType":5125,"count":36,"type":"SCALAR"},{"bufferView":48,"byteOffset":0,"componentType":5126,"count":24,"max":[7.881499767303467,1.3905999660491943,0.4318000078201294],"min":[7.424300193786621,0.9588000178337097,0.0],"type":"VEC3"},{"bufferView":49,"byteOffset":0,"componentType":5126,"count":24,"normalized":false,"type":"VEC2"},{"bufferView":50,"byteOffset":0,"componentType":5125,"count":36,"type":"SCALAR"},{"bufferView":51,"byteOffset":0,"componentType":5126,"count":24,"max":[7.881499767303467,-0.9588000178337097,0.4318000078201294],"min":[7.424300193786621,-1.3905999660491943,0.0],"type":"VEC3"},{"bufferView":52,"byteOffset":0,"componentType":5126,"count":24,"normalized":false,"type":"VEC2"},{"bufferView":53,"byteOffset":0,"componentType":5125,"count":36,"type":"SCALAR"},{"bufferView":54,"byteOffset":0,"componentType":5126,"count":24,"max":[7.881499767303467,0.9079999923706055,0.4318000078201294],"min":[7.424300193786621,0.47620001435279846,0.0],"type":"VEC3"},{"bufferView":55,"byteOffset":0,"componentType":5126,"count":24,"normalized":false,"type":"VEC2"},{"bufferView":56,"byteOffset":0,"componentType":5125,"count":36,"type":"SCALAR"},{"bufferView":57,"byteOffset":0,"componentType":5126,"count":24,"max":[7.881499767303467,-0.47620001435279846,0.4318000078201294],"min":[7.424300193786621,-0.9079999923706055,0.0],"type":"VEC3"},{"bufferView":58,"byteOffset":0,"componentType":5126,"count":24,"normalized":false,"type":"VEC2"},{"bufferView":59,"byteOffset":0,"componentType":5125,"count":36,"type":"SCALAR"},{"bufferView":60,"byteOffset":0,"componentType":5126,"count":24,"max":[8.668899536132813,1.3905999660491943,0.4318000078201294],"min":[8.211700439453125,0.9588000178337097,0.0],"type":"VEC3"},{"bufferView":61,"byteOffset":0,"componentType":5126,"count":24,"normalized":false,"type":"VEC2"},{"bufferView":62,"byteOffset":0,"componentType":5125,"count":36,"type":"SCALAR"},{"bufferView":63,"byteOffset":0,"componentType":5126,"count":24,"max":[8.668899536132813,-0.9588000178337097,0.4318000078201294],"min":[8.211700439453125,-1.3905999660491943,0.0],"type":"VEC3"},{"bufferView":64,"byteOffset":0,"componentType":5126,"count":24,"normalized":false,"type":"VEC2"},{"bufferView":65,"byteOffset":0,"componentType":5125,"count":36,"type":"SCALAR"},{"bufferView":66,"byteOffset":0,"componentType":5126,"count":24,"max":[8.668899536132813,0.9079999923706055,0.4318000078201294],"min":[8.211700439453125,0.47620001435279846,0.0],"type":"VEC3"},{"bufferView":67,"byteOffset":0,"componentType":5126,"count":24,"normalized":false,"type":"VEC2"},{"bufferView":68,"byteOffset":0,"componentType":5125,"count":36,"type":"SCALAR"},{"bufferView":69,"byteOffset":0,"componentType":5126,"count":24,"max":[8.668899536132813,-0.47620001435279846,0.4318000078201294],"min":[8.211700439453125,-0.9079999923706055,0.0],"type":"VEC3"},{"bufferView":70,"byteOffset":0,"componentType":5126,"count":24,"normalized":false,"type":"VEC2"},{"bufferView":71,"byteOffset":0,"componentType":5125,"count":36,"type":"SCALAR"},{"bufferView":72,"byteOffset":0,"componentType":5126,"count":24,"max":[9.456299781799316,1.3905999660491943,0.4318000078201294],"min":[8.999099731445313,0.9588000178337097,0.0],"type":"VEC3"},{"bufferView":73,"byteOffset":0,"componentType":5126,"count":24,"normalized":false,"type":"VEC2"},{"bufferView":74,"byteOffset":0,"componentType":5125,"count":36,"type":"SCALAR"},{"bufferView":75,"byteOffset":0,"componentType":5126,"count":24,"max":[9.456299781799316,-0.9588000178337097,0.4318000078201294],"min":[8.999099731445313,-1.3905999660491943,0.0],"type":"VEC3"},{"bufferView":76,"byteOffset":0,"componentType":5126,"count":24,"normalized":false,"type":"VEC2"},{"bufferView":77,"byteOffset":0,"componentType":5125,"count":36,"type":"SCALAR"},{"bufferView":78,"byteOffset":0,"componentType":5126,"count":24,"max":[9.456299781799316,0.9079999923706055,0.4318000078201294],"min":[8.999099731445313,0.47620001435279846,0.0],"type":"VEC3"},{"bufferView":79,"byteOffset":0,"componentType":5126,"count":24,"normalized":false,"type":"VEC2"},{"bufferView":80,"byteOffset":0,"componentType":5125,"count":36,"type":"SCALAR"},{"bufferView":81,"byteOffset":0,"componentType":5126,"count":24,"max":[9.456299781799316,-0.47620001435279846,0.4318000078201294],"min":[8.999099731445313,-0.9079999923706055,0.0],"type":"VEC3"},{"bufferView":82,"byteOffset":0,"componentType":5126,"count":24,"normalized":false,"type":"VEC2"},{"bufferView":83,"byteOffset":0,"componentType":5125,"count":36,"type":"SCALAR"},{"bufferView":84,"byteOffset":0,"componentType":5126,"count":24,"max":[10.24370002746582,1.3905999660491943,0.4318000078201294],"min":[9.786499977111816,0.9588000178337097,0.0],"type":"VEC3"},{"bufferView":85,"byteOffset":0,"componentType":5126,"count":24,"normalized":false,"type":"VEC2"},{"bufferView":86,"byteOffset":0,"componentType":5125,"count":36,"type":"SCALAR"},{"bufferView":87,"byteOffset":0,"componentType":5126,"count":24,"max":[10.24370002746582,-0.9588000178337097,0.4318000078201294],"min":[9.786499977111816,-1.3905999660491943,0.0],"type":"VEC3"},{"bufferView":88,"byteOffset":0,"componentType":5126,"count":24,"normalized":false,"type":"VEC2"},{"bufferView":89,"byteOffset":0,"componentType":5125,"count":36,"type":"SCALAR"},{"bufferView":90,"byteOffset":0,"componentType":5126,"count":24,"max":[10.24370002746582,0.9079999923706055,0.4318000078201294],"min":[9.786499977111816,0.47620001435279846,0.0],"type":"VEC3"},{"bufferView":91,"byteOffset":0,"componentType":5126,"count":24,"normalized":false,"type":"VEC2"},{"bufferView":92,"byteOffset":0,"componentType":5125,"count":36,"type":"SCALAR"},{"bufferView":93,"byteOffset":0,"componentType":5126,"count":24,"max":[10.24370002746582,-0.47620001435279846,0.4318000078201294],"min":[9.786499977111816,-0.9079999923706055,0.0],"type":"VEC3"},{"bufferView":94,"byteOffset":0,"componentType":5126,"count":24,"normalized":false,"type":"VEC2"},{"bufferView":95,"byteOffset":0,"componentType":5125,"count":36,"type":"SCALAR"},{"bufferView":96,"byteOffset":0,"componentType":5126,"count":24,"max":[11.031100273132324,1.3905999660491943,0.4318000078201294],"min":[10.57390022277832,0.9588000178337097,0.0],"type":"VEC3"},{"bufferView":97,"byteOffset":0,"componentType":5126,"count":24,"normalized":false,"type":"VEC2"},{"bufferView":98,"byteOffset":0,"componentType":5125,"count":36,"type":"SCALAR"},{"bufferView":99,"byteOffset":0,"componentType":5126,"count":24,"max":[11.031100273132324,-0.9588000178337097,0.4318000078201294],"min":[10.57390022277832,-1.3905999660491943,0.0],"type":"VEC3"},{"bufferView":100,"byteOffset":0,"componentType":5126,"count":24,"normalized":false,"type":"VEC2"},{"bufferView":101,"byteOffset":0,"componentType":5125,"count":36,"type":"SCALAR"},{"bufferView":102,"byteOffset":0,"componentType":5126,"count":24,"max":[11.031100273132324,0.9079999923706055,0.4318000078201294],"min":[10.57390022277832,0.47620001435279846,0.0],"type":"VEC3"},{"bufferView":103,"byteOffset":0,"componentType":5126,"count":24,"normalized":false,"type":"VEC2"},{"bufferView":104,"byteOffset":0,"componentType":5125,"count":36,"type":"SCALAR"},{"bufferView":105,"byteOffset":0,"componentType":5126,"count":24,"max":[11.031100273132324,-0.47620001435279846,0.4318000078201294],"min":[10.57390022277832,-0.9079999923706055,0.0],"type":"VEC3"},{"bufferView":106,"byteOffset":0,"componentType":5126,"count":24,"normalized":false,"type":"VEC2"},{"bufferView":107,"byteOffset":0,"componentType":5125,"count":36,"type":"SCALAR"},{"bufferView":108,"byteOffset":0,"componentType":5126,"count":24,"max":[11.818499565124512,1.3905999660491943,0.4318000078201294],"min":[11.361300468444824,0.9588000178337097,0.0],"type":"VEC3"},{"bufferView":109,"byteOffset":0,"componentType":5126,"count":24,"normalized":false,"type":"VEC2"},{"bufferView":110,"byteOffset":0,"componentType":5125,"count":36,"type":"SCALAR"},{"bufferView":111,"byteOffset":0,"componentType":5126,"count":24,"max":[11.818499565124512,-0.9588000178337097,0.4318000078201294],"min":[11.361300468444824,-1.3905999660491943,0.0],"type":"VEC3"},{"bufferView":112,"byteOffset":0,"componentType":5126,"count":24,"normalized":false,"type":"VEC2"},{"bufferView":113,"byteOffset":0,"componentType":5125,"count":36,"type":"SCALAR"},{"bufferView":114,"byteOffset":0,"componentType":5126,"count":24,"max":[11.818499565124512,0.9079999923706055,0.4318000078201294],"min":[11.361300468444824,0.47620001435279846,0.0],"type":"VEC3"},{"bufferView":115,"byteOffset":0,"componentType":5126,"count":24,"normalized":false,"type":"VEC2"},{"bufferView":116,"byteOffset":0,"componentType":5125,"count":36,"type":"SCALAR"},{"bufferView":117,"byteOffset":0,"componentType":5126,"count":24,"max":[11.818499565124512,-0.47620001435279846,0.4318000078201294],"min":[11.361300468444824,-0.9079999923706055,0.0],"type":"VEC3"},{"bufferView":118,"byteOffset":0,"componentType":5126,"count":24,"normalized":false,"type":"VEC2"},{"bufferView":119,"byteOffset":0,"componentType":5125,"count":36,"type":"SCALAR"},{"bufferView":120,"byteOffset":0,"componentType":5126,"count":24,"max":[12.605899810791016,1.3905999660491943,0.4318000078201294],"min":[12.148699760437012,0.9588000178337097,0.0],"type":"VEC3"},{"bufferView":121,"byteOffset":0,"componentType":5126,"count":24,"normalized":false,"type":"VEC2"},{"bufferView":122,"byteOffset":0,"componentType":5125,"count":36,"type":"SCALAR"},{"bufferView":123,"byteOffset":0,"componentType":5126,"count":24,"max":[12.605899810791016,-0.9588000178337097,0.4318000078201294],"min":[12.148699760437012,-1.3905999660491943,0.0],"type":"VEC3"},{"bufferView":124,"byteOffset":0,"componentType":5126,"count":24,"normalized":false,"type":"VEC2"},{"bufferView":125,"byteOffset":0,"componentType":5125,"count":36,"type":"SCALAR"},{"bufferView":126,"byteOffset":0,"componentType":5126,"count":24,"max":[12.605899810791016,0.9079999923706055,0.4318000078201294],"min":[12.148699760437012,0.47620001435279846,0.0],"type":"VEC3"},{"bufferView":127,"byteOffset":0,"componentType":5126,"count":24,"normalized":false,"type":"VEC2"},{"bufferView":128,"byteOffset":0,"componentType":5125,"count":36,"type":"SCALAR"},{"bufferView":129,"byteOffset":0,"componentType":5126,"count":24,"max":[12.605899810791016,-0.47620001435279846,0.4318000078201294],"min":[12.148699760437012,-0.9079999923706055,0.0],"type":"VEC3"},{"bufferView":130,"byteOffset":0,"componentType":5126,"count":24,"normalized":false,"type":"VEC2"},{"bufferView":131,"byteOffset":0,"componentType":5125,"count":36,"type":"SCALAR"},{"bufferView":132,"byteOffset":0,"componentType":5126,"count":768,"max":[12.779999732971191,4.40500020980835,2.3970160484313965],"min":[5.78000020980835,3.4852514266967773,0.8772239089012146],"type":"VEC3"},{"bufferView":133,"byteOffset":0,"componentType":5125,"count":3420,"type":"SCALAR"},{"bufferView":134,"byteOffset":0,"componentType":5126,"count":2550,"max":[4.3964832198672673e-16,1.9760929346084595,1.9800000190734863],"min":[-4.3964832198672673e-16,-1.9760929346084595,-1.9800000190734863],"type":"VEC3"},{"bufferView":135,"byteOffset":0,"componentType":5125,"count":15000,"type":"SCALAR"},{"bufferView":136,"byteOffset":0,"componentType":5126,"count":768,"max":[12.779999732971191,-3.484999895095825,2.3970160484313965],"min":[5.78000020980835,-4.404748439788818,0.8772239089012146],"type":"VEC3"},{"bufferView":137,"byteOffset":0,"componentType":5125,"count":3420,"type":"SCALAR"},{"bufferView":138,"byteOffset":0,"componentType":5126,"count":2550,"max":[4.3964832198672673e-16,1.9760929346084595,1.9800000190734863],"min":[-4.3964832198672673e-16,-1.9760929346084595,-1.9800000190734863],"type":"VEC3"},{"bufferView":139,"byteOffset":0,"componentType":5125,"count":15000,"type":"SCALAR"}],"asset":{"generator":"VTK","version":"2.0"},"bufferViews":[{"buffer":0,"byteLength":3636,"byteOffset":0,"target":34962},{"buffer":1,"byteLength":4836,"byteOffset":0,"target":34963},{"buffer":2,"byteLength":3636,"byteOffset":0,"target":34962},{"buffer":3,"byteLength":4836,"byteOffset":0,"target":34963},{"buffer":4,"byteLength":2424,"byteOffset":0,"target":34962},{"buffer":5,"byteLength":2424,"byteOffset":0,"target":34963},{"buffer":6,"byteLength":2424,"byteOffset":0,"target":34962},{"buffer":7,"byteLength":2424,"byteOffset":0,"target":34963},{"buffer":8,"byteLength":3636,"byteOffset":0,"target":34962},{"buffer":9,"byteLength":4848,"byteOffset":0,"target":34963},{"buffer":10,"byteLength":16128,"byteOffset":0,"target":34962},{"buffer":11,"byteLength":27360,"byteOffset":0,"target":34963},{"buffer":12,"byteLength":288,"byteOffset":0,"target":34962},{"buffer":13,"byteLength":192,"byteOffset":0,"target":34962},{"buffer":14,"byteLength":144,"byteOffset":0,"target":34963},{"buffer":15,"byteLength":288,"byteOffset":0,"target":34962},{"buffer":16,"byteLength":192,"byteOffset":0,"target":34962},{"buffer":17,"byteLength":144,"byteOffset":0,"target":34963},{"buffer":18,"byteLength":288,"byteOffset":0,"target":34962},{"buffer":19,"byteLength":192,"byteOffset":0,"target":34962},{"buffer":20,"byteLength":144,"byteOffset":0,"target":34963},{"buffer":21,"byteLength":288,"byteOffset":0,"target":34962},{"buffer":22,"byteLength":192,"byteOffset":0,"target":34962},{"buffer":23,"byteLength":144,"byteOffset":0,"target":34963},{"buffer":24,"byteLength":288,"byteOffset":0,"target":34962},{"buffer":25,"byteLength":192,"byteOffset":0,"target":34962},{"buffer":26,"byteLength":144,"byteOffset":0,"target":34963},{"buffer":27,"byteLength":288,"byteOffset":0,"target":34962},{"buffer":28,"byteLength":192,"byteOffset":0,"target":34962},{"buffer":29,"byteLength":144,"byteOffset":0,"target":34963},{"buffer":30,"byteLength":288,"byteOffset":0,"target":34962},{"buffer":31,"byteLength":192,"byteOffset":0,"target":34962},{"buffer":32,"byteLength":144,"byteOffset":0,"target":34963},{"buffer":33,"byteLength":288,"byteOffset":0,"target":34962},{"buffer":34,"byteLength":192,"byteOffset":0,"target":34962},{"buffer":35,"byteLength":144,"byteOffset":0,"target":34963},{"buffer":36,"byteLength":288,"byteOffset":0,"target":34962},{"buffer":37,"byteLength":192,"byteOffset":0,"target":34962},{"buffer":38,"byteLength":144,"byteOffset":0,"target":34963},{"buffer":39,"byteLength":288,"byteOffset":0,"target":34962},{"buffer":40,"byteLength":192,"byteOffset":0,"target":34962},{"buffer":41,"byteLength":144,"byteOffset":0,"target":34963},{"buffer":42,"byteLength":288,"byteOffset":0,"target":34962},{"buffer":43,"byteLength":192,"byteOffset":0,"target":34962},{"buffer":44,"byteLength":144,"byteOffset":0,"target":34963},{"buffer":45,"byteLength":288,"byteOffset":0,"target":34962},{"buffer":46,"byteLength":192,"byteOffset":0,"target":34962},{"buffer":47,"byteLength":144,"byteOffset":0,"target":34963},{"buffer":48,"byteLength":288,"byteOffset":0,"target":34962},{"buffer":49,"byteLength":192,"byteOffset":0,"target":34962},{"buffer":50,"byteLength":144,"byteOffset":0,"target":34963},{"buffer":51,"byteLength":288,"byteOffset":0,"target":34962},{"buffer":52,"byteLength":192,"byteOffset":0,"target":34962},{"buffer":53,"byteLength":144,"byteOffset":0,"target":34963},{"buffer":54,"byteLength":288,"byteOffset":0,"target":34962},{"buffer":55,"byteLength":192,"byteOffset":0,"target":34962},{"buffer":56,"byteLength":144,"byteOffset":0,"target":34963},{"buffer":57,"byteLength":288,"byteOffset":0,"target":34962},{"buffer":58,"byteLength":192,"byteOffset":0,"target":34962},{"buffer":59,"byteLength":144,"byteOffset":0,"target":34963},{"buffer":60,"byteLength":288,"byteOffset":0,"target":34962},{"buffer":61,"byteLength":192,"byteOffset":0,"target":34962},{"buffer":62,"byteLength":144,"byteOffset":0,"target":34963},{"buffer":63,"byteLength":288,"byteOffset":0,"target":34962},{"buffer":64,"byteLength":192,"byteOffset":0,"target":34962},{"buffer":65,"byteLength":144,"byteOffset":0,"target":34963},{"buffer":66,"byteLength":288,"byteOffset":0,"target":34962},{"buffer":67,"byteLength":192,"byteOffset":0,"target":34962},{"buffer":68,"byteLength":144,"byteOffset":0,"target":34963},{"buffer":69,"byteLength":288,"byteOffset":0,"target":34962},{"buffer":70,"byteLength":192,"byteOffset":0,"target":34962},{"buffer":71,"byteLength":144,"byteOffset":0,"target":34963},{"buffer":72,"byteLength":288,"byteOffset":0,"target":34962},{"buffer":73,"byteLength":192,"byteOffset":0,"target":34962},{"buffer":74,"byteLength":144,"byteOffset":0,"target":34963},{"buffer":75,"byteLength":288,"byteOffset":0,"target":34962},{"buffer":76,"byteLength":192,"byteOffset":0,"target":34962},{"buffer":77,"byteLength":144,"byteOffset":0,"target":34963},{"buffer":78,"byteLength":288,"byteOffset":0,"target":34962},{"buffer":79,"byteLength":192,"byteOffset":0,"target":34962},{"buffer":80,"byteLength":144,"byteOffset":0,"target":34963},{"buffer":81,"byteLength":288,"byteOffset":0,"target":34962},{"buffer":82,"byteLength":192,"byteOffset":0,"target":34962},{"buffer":83,"byteLength":144,"byteOffset":0,"target":34963},{"buffer":84,"byteLength":288,"byteOffset":0,"target":34962},{"buffer":85,"byteLength":192,"byteOffset":0,"target":34962},{"buffer":86,"byteLength":144,"byteOffset":0,"target":34963},{"buffer":87,"byteLength":288,"byteOffset":0,"target":34962},{"buffer":88,"byteLength":192,"byteOffset":0,"target":34962},{"buffer":89,"byteLength":144,"byteOffset":0,"target":34963},{"buffer":90,"byteLength":288,"byteOffset":0,"target":34962},{"buffer":91,"byteLength":192,"byteOffset":0,"target":34962},{"buffer":92,"byteLength":144,"byteOffset":0,"target":34963},{"buffer":93,"byteLength":288,"byteOffset":0,"target":34962},{"buffer":94,"byteLength":192,"byteOffset":0,"target":34962},{"buffer":95,"byteLength":144,"byteOffset":0,"target":34963},{"buffer":96,"byteLength":288,"byteOffset":0,"target":34962},{"buffer":97,"byteLength":192,"byteOffset":0,"target":34962},{"buffer":98,"byteLength":144,"byteOffset":0,"target":34963},{"buffer":99,"byteLength":288,"byteOffset":0,"target":34962},{"buffer":100,"byteLength":192,"byteOffset":0,"target":34962},{"buffer":101,"byteLength":144,"byteOffset":0,"target":34963},{"buffer":102,"byteLength":288,"byteOffset":0,"target":34962},{"buffer":103,"byteLength":192,"byteOffset":0,"target":34962},{"buffer":104,"byteLength":144,"byteOffset":0,"target":34963},{"buffer":105,"byteLength":288,"byteOffset":0,"target":34962},{"buffer":106,"byteLength":192,"byteOffset":0,"target":34962},{"buffer":107,"byteLength":144,"byteOffset":0,"target":34963},{"buffer":108,"byteLength":288,"byteOffset":0,"target":34962},{"buffer":109,"byteLength":192,"byteOffset":0,"target":34962},{"buffer":110,"byteLength":144,"byteOffset":0,"target":34963},{"buffer":111,"byteLength":288,"byteOffset":0,"target":34962},{"buffer":112,"byteLength":192,"byteOffset":0,"target":34962},{"buffer":113,"byteLength":144,"byteOffset":0,"target":34963},{"buffer":114,"byteLength":288,"byteOffset":0,"target":34962},{"buffer":115,"byteLength":192,"byteOffset":0,"target":34962},{"buffer":116,"byteLength":144,"byteOffset":0,"target":34963},{"buffer":117,"byteLength":288,"byteOffset":0,"target":34962},{"buffer":118,"byteLength":192,"byteOffset":0,"target":34962},{"buffer":119,"byteLength":144,"byteOffset":0,"target":34963},{"buffer":120,"byteLength":288,"byteOffset":0,"target":34962},{"buffer":121,"byteLength":192,"byteOffset":0,"target":34962},{"buffer":122,"byteLength":144,"byteOffset":0,"target":34963},{"buffer":123,"byteLength":288,"byteOffset":0,"target":34962},{"buffer":124,"byteLength":192,"byteOffset":0,"target":34962},{"buffer":125,"byteLength":144,"byteOffset":0,"target":34963},{"buffer":126,"byteLength":288,"byteOffset":0,"target":34962},{"buffer":127,"byteLength":192,"byteOffset":0,"target":34962},{"buffer":128,"byteLength":144,"byteOffset":0,"target":34963},{"buffer":129,"byteLength":288,"byteOffset":0,"target":34962},{"buffer":130,"byteLength":192,"byteOffset":0,"target":34962},{"buffer":131,"byteLength":144,"byteOffset":0,"target":34963},{"buffer":132,"byteLength":9216,"byteOffset":0,"target":34962},{"buffer":133,"byteLength":13680,"byteOffset":0,"target":34963},{"buffer":134,"byteLength":30600,"byteOffset":0,"target":34962},{"buffer":135,"byteLength":60000,"byteOffset":0,"target":34963},{"buffer":136,"byteLength":9216,"byteOffset":0,"target":34962},{"buffer":137,"byteLength":13680,"byteOffset":0,"target":34963},{"buffer":138,"byteLength":30600,"byteOffset":0,"target":34962},{"buffer":139,"byteLength":60000,"byteOffset":0,"target":34963}],"buffers":[{"byteLength":3636,"uri":"data:application/octet-stream;base64,"},{"byteLength":4836,"uri":"data:application/octet-stream;base64,"},{"byteLength":3636,"uri":"data:application/octet-stream;base64,"},{"byteLength":4836,"uri":"data:application/octet-stream;base64,"},{"byteLength":2424,"uri":"data:application/octet-stream;base64,"},{"byteLength":2424,"uri":"data:application/octet-stream;base64,"},{"byteLength":2424,"uri":"data:application/octet-stream;base64,"},{"byteLength":2424,"uri":"data:application/octet-stream;base64,"},{"byteLength":3636,"uri":"data:application/octet-stream;base64,"},{"byteLength":4848,"uri":"data:application/octet-stream;base64,"},{"byteLength":16128,"uri":"data:application/octet-stream;base64,"},{"byteLength":27360,"uri":"data:application/octet-stream;base64,"},{"byteLength":288,"uri":"data:application/octet-stream;base64,"},{"byteLength":192,"uri":"data:application/octet-stream;base64,"},{"byteLength":144,"uri":"data:application/octet-stream;base64,"},{"byteLength":288,"uri":"data:application/octet-stream;base64,"},{"byteLength":192,"uri":"data:application/octet-stream;base64,"},{"byteLength":144,"uri":"data:application/octet-stream;base64,"},{"byteLength":288,"uri":"data:application/octet-stream;base64,"},{"byteLength":192,"uri":"data:application/octet-stream;base64,"},{"byteLength":144,"uri":"data:application/octet-stream;base64,"},{"byteLength":288,"uri":"data:application/octet-stream;base64,"},{"byteLength":192,"uri":"data:application/octet-stream;base64,"},{"byteLength":144,"uri":"data:application/octet-stream;base64,"},{"byteLength":288,"uri":"data:application/octet-stream;base64,"},{"byteLength":192,"uri":"data:application/octet-stream;base64,"},{"byteLength":144,"uri":"data:application/octet-stream;base64,"},{"byteLength":288,"uri":"data:application/octet-stream;base64,"},{"byteLength":192,"uri":"data:application/octet-stream;base64,"},{"byteLength":144,"uri":"data:application/octet-stream;base64,"},{"byteLength":288,"uri":"data:application/octet-stream;base64,"},{"byteLength":192,"uri":"data:application/octet-stream;base64,"},{"byteLength":144,"uri":"data:application/octet-stream;base64,"},{"byteLength":288,"uri":"data:application/octet-stream;base64,"},{"byteLength":192,"uri":"data:application/octet-stream;base64,"},{"byteLength":144,"uri":"data:application/octet-stream;base64,"},{"byteLength":288,"uri":"data:application/octet-stream;base64,"},{"byteLength":192,"uri":"data:application/octet-stream;base64,"},{"byteLength":144,"uri":"data:application/octet-stream;base64,"},{"byteLength":288,"uri":"data:application/octet-stream;base64,"},{"byteLength":192,"uri":"data:application/octet-stream;base64,"},{"byteLength":144,"uri":"data:application/octet-stream;base64,"},{"byteLength":288,"uri":"data:application/octet-stream;base64,"},{"byteLength":192,"uri":"data:application/octet-stream;base64,"},{"byteLength":144,"uri":"data:application/octet-stream;base64,"},{"byteLength":288,"uri":"data:application/octet-stream;base64,"},{"byteLength":192,"uri":"data:application/octet-stream;base64,"},{"byteLength":144,"uri":"data:application/octet-stream;base64,"},{"byteLength":288,"uri":"data:application/octet-stream;base64,"},{"byteLength":192,"uri":"data:application/octet-stream;base64,"},{"byteLength":144,"uri":"data:application/octet-stream;base64,"},{"byteLength":288,"uri":"data:application/octet-stream;base64,"},{"byteLength":192,"uri":"data:application/octet-stream;base64,"},{"byteLength":144,"uri":"data:application/octet-stream;base64,"},{"byteLength":288,"uri":"data:application/octet-stream;base64,"},{"byteLength":192,"uri":"data:application/octet-stream;base64,"},{"byteLength":144,"uri":"data:application/octet-stream;base64,"},{"byteLength":288,"uri":"data:application/octet-stream;base64,"},{"byteLength":192,"uri":"data:application/octet-stream;base64,"},{"byteLength":144,"uri":"data:application/octet-stream;base64,"},{"byteLength":288,"uri":"data:application/octet-stream;base64,"},{"byteLength":192,"uri":"data:application/octet-stream;base64,"},{"byteLength":144,"uri":"data:application/octet-stream;base64,"},{"byteLength":288,"uri":"data:application/octet-stream;base64,"},{"byteLength":192,"uri":"data:application/octet-stream;base64,"},{"byteLength":144,"uri":"data:application/octet-stream;base64,"},{"byteLength":288,"uri":"data:application/octet-stream;base64,"},{"byteLength":192,"uri":"data:application/octet-stream;base64,"},{"byteLength":144,"uri":"data:application/octet-stream;base64,"},{"byteLength":288,"uri":"data:application/octet-stream;base64,"},{"byteLength":192,"uri":"data:application/octet-stream;base64,"},{"byteLength":144,"uri":"data:application/octet-stream;base64,"},{"byteLength":288,"uri":"data:application/octet-stream;base64,"},{"byteLength":192,"uri":"data:application/octet-stream;base64,"},{"byteLength":144,"uri":"data:application/octet-stream;base64,"},{"byteLength":288,"uri":"data:application/octet-stream;base64,"},{"byteLength":192,"uri":"data:application/octet-stream;base64,"},{"byteLength":144,"uri":"data:application/octet-stream;base64,"},{"byteLength":288,"uri":"data:application/octet-stream;base64,"},{"byteLength":192,"uri":"data:application/octet-stream;base64,"},{"byteLength":144,"uri":"data:application/octet-stream;base64,"},{"byteLength":288,"uri":"data:application/octet-stream;base64,"},{"byteLength":192,"uri":"data:application/octet-stream;base64,"},{"byteLength":144,"uri":"data:application/octet-stream;base64,"},{"byteLength":288,"uri":"data:application/octet-stream;base64,"},{"byteLength":192,"uri":"data:application/octet-stream;base64,"},{"byteLength":144,"uri":"data:application/octet-stream;base64,"},{"byteLength":288,"uri":"data:application/octet-stream;base64,"},{"byteLength":192,"uri":"data:application/octet-stream;base64,"},{"byteLength":144,"uri":"data:application/octet-stream;base64,"},{"byteLength":288,"uri":"data:application/octet-stream;base64,"},{"byteLength":192,"uri":"data:application/octet-stream;base64,"},{"byteLength":144,"uri":"data:application/octet-stream;base64,"},{"byteLength":288,"uri":"data:application/octet-stream;base64,"},{"byteLength":192,"uri":"data:application/octet-stream;base64,"},{"byteLength":144,"uri":"data:application/octet-stream;base64,"},{"byteLength":288,"uri":"data:application/octet-stream;base64,"},{"byteLength":192,"uri":"data:application/octet-stream;base64,"},{"byteLength":144,"uri":"data:application/octet-stream;base64,"},{"byteLength":288,"uri":"data:application/octet-stream;base64,"},{"byteLength":192,"uri":"data:application/octet-stream;base64,"},{"byteLength":144,"uri":"data:application/octet-stream;base64,"},{"byteLength":288,"uri":"data:application/octet-stream;base64,"},{"byteLength":192,"uri":"data:application/octet-stream;base64,"},{"byteLength":144,"uri":"data:application/octet-stream;base64,"},{"byteLength":288,"uri":"data:application/octet-stream;base64,"},{"byteLength":192,"uri":"data:application/octet-stream;base64,"},{"byteLength":144,"uri":"data:application/octet-stream;base64,"},{"byteLength":288,"uri":"data:application/octet-stream;base64,"},{"byteLength":192,"uri":"data:application/octet-stream;base64,"},{"byteLength":144,"uri":"data:application/octet-stream;base64,"},{"byteLength":288,"uri":"data:application/octet-stream;base64,"},{"byteLength":192,"uri":"data:application/octet-stream;base64,"},{"byteLength":144,"uri":"data:application/octet-stream;base64,"},{"byteLength":288,"uri":"data:application/octet-stream;base64,"},{"byteLength":192,"uri":"data:application/octet-stream;base64,"},{"byteLength":144,"uri":"data:application/octet-stream;base64,"},{"byteLength":288,"uri":"data:application/octet-stream;base64,"},{"byteLength":192,"uri":"data:application/octet-stream;base64,"},{"byteLength":144,"uri":"data:application/octet-stream;base64,"},{"byteLength":288,"uri":"data:application/octet-stream;base64,"},{"byteLength":192,"uri":"data:application/octet-stream;base64,"},{"byteLength":144,"uri":"data:application/octet-stream;base64,"},{"byteLength":288,"uri":"data:application/octet-stream;base64,"},{"byteLength":192,"uri":"data:application/octet-stream;base64,"},{"byteLength":144,"uri":"data:application/octet-stream;base64,"},{"byteLength":288,"uri":"data:application/octet-stream;base64,"},{"byteLength":192,"uri":"data:application/octet-stream;base64,"},{"byteLength":144,"uri":"data:application/octet-stream;base64,"},{"byteLength":288,"uri":"data:application/octet-stream;base64,"},{"byteLength":192,"uri":"data:application/octet-stream;base64,"},{"byteLength":144,"uri":"data:application/octet-stream;base64,"},{"byteLength":9216,"uri":"data:application/octet-stream;base64,"},{"byteLength":13680,"uri":"data:application/octet-stream;base64,"},{"byteLength":30600,"uri":"data:application/octet-stream;base64,"},{"byteLength":60000,"uri":"data:application/octet-stream;base64,"},{"byteLength":9216,"uri":"data:application/octet-stream;base64,"},{"byteLength":13680,"uri":"data:application/octet-stream;base64,"},{"byteLength":30600,"uri":"data:application/octet-stream;base64,"},{"byteLength":60000,"uri":"data:application/octet-stream;base64,"}],"cameras":[{"perspective":{"aspectRatio":1.0,"yfov":0.5235987755982988,"zfar":111.83850987905541,"znear":32.06346990816393},"type":"perspective"}],"materials":[{"pbrMetallicRoughness":{"baseColorFactor":[0.5019607843137255,0.5019607843137255,0.5019607843137255,0.5],"metallicFactor":0.0,"roughnessFactor":1.0}},{"pbrMetallicRoughness":{"baseColorFactor":[0.5019607843137255,0.5019607843137255,0.5019607843137255,0.5],"metallicFactor":0.0,"roughnessFactor":1.0}},{"pbrMetallicRoughness":{"baseColorFactor":[0.5019607843137255,0.5019607843137255,0.5019607843137255,0.5],"metallicFactor":0.0,"roughnessFactor":1.0}},{"pbrMetallicRoughness":{"baseColorFactor":[0.5019607843137255,0.5019607843137255,0.5019607843137255,0.5],"metallicFactor":0.0,"roughnessFactor":1.0}},{"pbrMetallicRoughness":{"baseColorFactor":[0.5019607843137255,0.5019607843137255,0.5019607843137255,0.5],"metallicFactor":0.0,"roughnessFactor":1.0}},{"pbrMetallicRoughness":{"baseColorFactor":[0.5019607843137255,0.5019607843137255,0.5019607843137255,0.5],"metallicFactor":0.0,"roughnessFactor":1.0}},{"pbrMetallicRoughness":{"baseColorFactor":[0.9568627450980393,0.6431372549019608,0.3764705882352941,1.0],"metallicFactor":0.0,"roughnessFactor":1.0}},{"pbrMetallicRoughness":{"baseColorFactor":[0.9568627450980393,0.6431372549019608,0.3764705882352941,1.0],"metallicFactor":0.0,"roughnessFactor":1.0}},{"pbrMetallicRoughness":{"baseColorFactor":[0.9568627450980393,0.6431372549019608,0.3764705882352941,1.0],"metallicFactor":0.0,"roughnessFactor":1.0}},{"pbrMetallicRoughness":{"baseColorFactor":[0.9568627450980393,0.6431372549019608,0.3764705882352941,1.0],"metallicFactor":0.0,"roughnessFactor":1.0}},{"pbrMetallicRoughness":{"baseColorFactor":[0.27450980392156865,0.5098039215686274,0.7058823529411765,1.0],"metallicFactor":0.0,"roughnessFactor":1.0}},{"pbrMetallicRoughness":{"baseColorFactor":[0.27450980392156865,0.5098039215686274,0.7058823529411765,1.0],"metallicFactor":0.0,"roughnessFactor":1.0}},{"pbrMetallicRoughness":{"baseColorFactor":[0.27450980392156865,0.5098039215686274,0.7058823529411765,1.0],"metallicFactor":0.0,"roughnessFactor":1.0}},{"pbrMetallicRoughness":{"baseColorFactor":[0.27450980392156865,0.5098039215686274,0.7058823529411765,1.0],"metallicFactor":0.0,"roughnessFactor":1.0}},{"pbrMetallicRoughness":{"baseColorFactor":[0.27450980392156865,0.5098039215686274,0.7058823529411765,1.0],"metallicFactor":0.0,"roughnessFactor":1.0}},{"pbrMetallicRoughness":{"baseColorFactor":[0.27450980392156865,0.5098039215686274,0.7058823529411765,1.0],"metallicFactor":0.0,"roughnessFactor":1.0}},{"pbrMetallicRoughness":{"baseColorFactor":[0.27450980392156865,0.5098039215686274,0.7058823529411765,1.0],"metallicFactor":0.0,"roughnessFactor":1.0}},{"pbrMetallicRoughness":{"baseColorFactor":[0.27450980392156865,0.5098039215686274,0.7058823529411765,1.0],"metallicFactor":0.0,"roughnessFactor":1.0}},{"pbrMetallicRoughness":{"baseColorFactor":[0.27450980392156865,0.5098039215686274,0.7058823529411765,1.0],"metallicFactor":0.0,"roughnessFactor":1.0}},{"pbrMetallicRoughness":{"baseColorFactor":[0.27450980392156865,0.5098039215686274,0.7058823529411765,1.0],"metallicFactor":0.0,"roughnessFactor":1.0}},{"pbrMetallicRoughness":{"baseColorFactor":[0.27450980392156865,0.5098039215686274,0.7058823529411765,1.0],"metallicFactor":0.0,"roughnessFactor":1.0}},{"pbrMetallicRoughness":{"baseColorFactor":[0.27450980392156865,0.5098039215686274,0.7058823529411765,1.0],"metallicFactor":0.0,"roughnessFactor":1.0}},{"pbrMetallicRoughness":{"baseColorFactor":[0.27450980392156865,0.5098039215686274,0.7058823529411765,1.0],"metallicFactor":0.0,"roughnessFactor":1.0}},{"pbrMetallicRoughness":{"baseColorFactor":[0.27450980392156865,0.5098039215686274,0.7058823529411765,1.0],"metallicFactor":0.0,"roughnessFactor":1.0}},{"pbrMetallicRoughness":{"baseColorFactor":[0.27450980392156865,0.5098039215686274,0.7058823529411765,1.0],"metallicFactor":0.0,"roughnessFactor":1.0}},{"pbrMetallicRoughness":{"baseColorFactor":[0.27450980392156865,0.5098039215686274,0.7058823529411765,1.0],"metallicFactor":0.0,"roughnessFactor":1.0}},{"pbrMetallicRoughness":{"baseColorFactor":[0.27450980392156865,0.5098039215686274,0.7058823529411765,1.0],"metallicFactor":0.0,"roughnessFactor":1.0}},{"pbrMetallicRoughness":{"baseColorFactor":[0.27450980392156865,0.5098039215686274,0.7058823529411765,1.0],"metallicFactor":0.0,"roughnessFactor":1.0}},{"pbrMetallicRoughness":{"baseColorFactor":[0.27450980392156865,0.5098039215686274,0.7058823529411765,1.0],"metallicFactor":0.0,"roughnessFactor":1.0}},{"pbrMetallicRoughness":{"baseColorFactor":[0.27450980392156865,0.5098039215686274,0.7058823529411765,1.0],"metallicFactor":0.0,"roughnessFactor":1.0}},{"pbrMetallicRoughness":{"baseColorFactor":[0.27450980392156865,0.5098039215686274,0.7058823529411765,1.0],"metallicFactor":0.0,"roughnessFactor":1.0}},{"pbrMetallicRoughness":{"baseColorFactor":[0.27450980392156865,0.5098039215686274,0.7058823529411765,1.0],"metallicFactor":0.0,"roughnessFactor":1.0}},{"pbrMetallicRoughness":{"baseColorFactor":[0.27450980392156865,0.5098039215686274,0.7058823529411765,1.0],"metallicFactor":0.0,"roughnessFactor":1.0}},{"pbrMetallicRoughness":{"baseColorFactor":[0.27450980392156865,0.5098039215686274,0.7058823529411765,1.0],"metallicFactor":0.0,"roughnessFactor":1.0}},{"pbrMetallicRoughness":{"baseColorFactor":[0.27450980392156865,0.5098039215686274,0.7058823529411765,1.0],"metallicFactor":0.0,"roughnessFactor":1.0}},{"pbrMetallicRoughness":{"baseColorFactor":[0.27450980392156865,0.5098039215686274,0.7058823529411765,1.0],"metallicFactor":0.0,"roughnessFactor":1.0}},{"pbrMetallicRoughness":{"baseColorFactor":[0.27450980392156865,0.5098039215686274,0.7058823529411765,1.0],"metallicFactor":0.0,"roughnessFactor":1.0}},{"pbrMetallicRoughness":{"baseColorFactor":[0.27450980392156865,0.5098039215686274,0.7058823529411765,1.0],"metallicFactor":0.0,"roughnessFactor":1.0}},{"pbrMetallicRoughness":{"baseColorFactor":[0.27450980392156865,0.5098039215686274,0.7058823529411765,1.0],"metallicFactor":0.0,"roughnessFactor":1.0}},{"pbrMetallicRoughness":{"baseColorFactor":[0.27450980392156865,0.5098039215686274,0.7058823529411765,1.0],"metallicFactor":0.0,"roughnessFactor":1.0}},{"pbrMetallicRoughness":{"baseColorFactor":[0.27450980392156865,0.5098039215686274,0.7058823529411765,1.0],"metallicFactor":0.0,"roughnessFactor":1.0}},{"pbrMetallicRoughness":{"baseColorFactor":[0.27450980392156865,0.5098039215686274,0.7058823529411765,1.0],"metallicFactor":0.0,"roughnessFactor":1.0}},{"pbrMetallicRoughness":{"baseColorFactor":[0.27450980392156865,0.5098039215686274,0.7058823529411765,1.0],"metallicFactor":0.0,"roughnessFactor":1.0}},{"pbrMetallicRoughness":{"baseColorFactor":[0.27450980392156865,0.5098039215686274,0.7058823529411765,1.0],"metallicFactor":0.0,"roughnessFactor":1.0}},{"pbrMetallicRoughness":{"baseColorFactor":[0.27450980392156865,0.5098039215686274,0.7058823529411765,1.0],"metallicFactor":0.0,"roughnessFactor":1.0}},{"pbrMetallicRoughness":{"baseColorFactor":[0.27450980392156865,0.5098039215686274,0.7058823529411765,1.0],"metallicFactor":0.0,"roughnessFactor":1.0}},{"pbrMetallicRoughness":{"baseColorFactor":[0.5019607843137255,0.5019607843137255,0.5019607843137255,1.0],"metallicFactor":0.0,"roughnessFactor":1.0}},{"pbrMetallicRoughness":{"baseColorFactor":[0.0,0.0,0.0,0.6],"metallicFactor":0.0,"roughnessFactor":1.0}},{"pbrMetallicRoughness":{"baseColorFactor":[0.5019607843137255,0.5019607843137255,0.5019607843137255,1.0],"metallicFactor":0.0,"roughnessFactor":1.0}},{"pbrMetallicRoughness":{"baseColorFactor":[0.0,0.0,0.0,0.6],"metallicFactor":0.0,"roughnessFactor":1.0}}],"meshes":[{"name":"mesh0","primitives":[{"attributes":{"POSITION":0},"indices":1,"material":0,"mode":4}]},{"name":"mesh1","primitives":[{"attributes":{"POSITION":2},"indices":3,"material":1,"mode":4}]},{"name":"mesh2","primitives":[{"attributes":{"POSITION":4},"indices":5,"material":2,"mode":4}]},{"name":"mesh3","primitives":[{"attributes":{"POSITION":6},"indices":7,"material":3,"mode":4}]},{"name":"mesh4","primitives":[{"attributes":{"POSITION":8},"indices":9,"material":4,"mode":4}]},{"name":"mesh5","primitives":[{"attributes":{"POSITION":10},"indices":11,"material":5,"mode":4}]},{"name":"mesh6","primitives":[{"attributes":{"POSITION":12,"TEXCOORD_0":13},"indices":14,"material":6,"mode":4}]},{"name":"mesh7","primitives":[{"attributes":{"POSITION":15,"TEXCOORD_0":16},"indices":17,"material":7,"mode":4}]},{"name":"mesh8","primitives":[{"attributes":{"POSITION":18,"TEXCOORD_0":19},"indices":20,"material":8,"mode":4}]},{"name":"mesh9","primitives":[{"attributes":{"POSITION":21,"TEXCOORD_0":22},"indices":23,"material":9,"mode":4}]},{"name":"mesh10","primitives":[{"attributes":{"POSITION":24,"TEXCOORD_0":25},"indices":26,"material":10,"mode":4}]},{"name":"mesh11","primitives":[{"attributes":{"POSITION":27,"TEXCOORD_0":28},"indices":29,"material":11,"mode":4}]},{"name":"mesh12","primitives":[{"attributes":{"POSITION":30,"TEXCOORD_0":31},"indices":32,"material":12,"mode":4}]},{"name":"mesh13","primitives":[{"attributes":{"POSITION":33,"TEXCOORD_0":34},"indices":35,"material":13,"mode":4}]},{"name":"mesh14","primitives":[{"attributes":{"POSITION":36,"TEXCOORD_0":37},"indices":38,"material":14,"mode":4}]},{"name":"mesh15","primitives":[{"attributes":{"POSITION":39,"TEXCOORD_0":40},"indices":41,"material":15,"mode":4}]},{"name":"mesh16","primitives":[{"attributes":{"POSITION":42,"TEXCOORD_0":43},"indices":44,"material":16,"mode":4}]},{"name":"mesh17","primitives":[{"attributes":{"POSITION":45,"TEXCOORD_0":46},"indices":47,"material":17,"mode":4}]},{"name":"mesh18","primitives":[{"attributes":{"POSITION":48,"TEXCOORD_0":49},"indices":50,"material":18,"mode":4}]},{"name":"mesh19","primitives":[{"attributes":{"POSITION":51,"TEXCOORD_0":52},"indices":53,"material":19,"mode":4}]},{"name":"mesh20","primitives":[{"attributes":{"POSITION":54,"TEXCOORD_0":55},"indices":56,"material":20,"mode":4}]},{"name":"mesh21","primitives":[{"attributes":{"POSITION":57,"TEXCOORD_0":58},"indices":59,"material":21,"mode":4}]},{"name":"mesh22","primitives":[{"attributes":{"POSITION":60,"TEXCOORD_0":61},"indices":62,"material":22,"mode":4}]},{"name":"mesh23","primitives":[{"attributes":{"POSITION":63,"TEXCOORD_0":64},"indices":65,"material":23,"mode":4}]},{"name":"mesh24","primitives":[{"attributes":{"POSITION":66,"TEXCOORD_0":67},"indices":68,"material":24,"mode":4}]},{"name":"mesh25","primitives":[{"attributes":{"POSITION":69,"TEXCOORD_0":70},"indices":71,"material":25,"mode":4}]},{"name":"mesh26","primitives":[{"attributes":{"POSITION":72,"TEXCOORD_0":73},"indices":74,"material":26,"mode":4}]},{"name":"mesh27","primitives":[{"attributes":{"POSITION":75,"TEXCOORD_0":76},"indices":77,"material":27,"mode":4}]},{"name":"mesh28","primitives":[{"attributes":{"POSITION":78,"TEXCOORD_0":79},"indices":80,"material":28,"mode":4}]},{"name":"mesh29","primitives":[{"attributes":{"POSITION":81,"TEXCOORD_0":82},"indices":83,"material":29,"mode":4}]},{"name":"mesh30","primitives":[{"attributes":{"POSITION":84,"TEXCOORD_0":85},"indices":86,"material":30,"mode":4}]},{"name":"mesh31","primitives":[{"attributes":{"POSITION":87,"TEXCOORD_0":88},"indices":89,"material":31,"mode":4}]},{"name":"mesh32","primitives":[{"attributes":{"POSITION":90,"TEXCOORD_0":91},"indices":92,"material":32,"mode":4}]},{"name":"mesh33","primitives":[{"attributes":{"POSITION":93,"TEXCOORD_0":94},"indices":95,"material":33,"mode":4}]},{"name":"mesh34","primitives":[{"attributes":{"POSITION":96,"TEXCOORD_0":97},"indices":98,"material":34,"mode":4}]},{"name":"mesh35","primitives":[{"attributes":{"POSITION":99,"TEXCOORD_0":100},"indices":101,"material":35,"mode":4}]},{"name":"mesh36","primitives":[{"attributes":{"POSITION":102,"TEXCOORD_0":103},"indices":104,"material":36,"mode":4}]},{"name":"mesh37","primitives":[{"attributes":{"POSITION":105,"TEXCOORD_0":106},"indices":107,"material":37,"mode":4}]},{"name":"mesh38","primitives":[{"attributes":{"POSITION":108,"TEXCOORD_0":109},"indices":110,"material":38,"mode":4}]},{"name":"mesh39","primitives":[{"attributes":{"POSITION":111,"TEXCOORD_0":112},"indices":113,"material":39,"mode":4}]},{"name":"mesh40","primitives":[{"attributes":{"POSITION":114,"TEXCOORD_0":115},"indices":116,"material":40,"mode":4}]},{"name":"mesh41","primitives":[{"attributes":{"POSITION":117,"TEXCOORD_0":118},"indices":119,"material":41,"mode":4}]},{"name":"mesh42","primitives":[{"attributes":{"POSITION":120,"TEXCOORD_0":121},"indices":122,"material":42,"mode":4}]},{"name":"mesh43","primitives":[{"attributes":{"POSITION":123,"TEXCOORD_0":124},"indices":125,"material":43,"mode":4}]},{"name":"mesh44","primitives":[{"attributes":{"POSITION":126,"TEXCOORD_0":127},"indices":128,"material":44,"mode":4}]},{"name":"mesh45","primitives":[{"attributes":{"POSITION":129,"TEXCOORD_0":130},"indices":131,"material":45,"mode":4}]},{"name":"mesh46","primitives":[{"attributes":{"POSITION":132},"indices":133,"material":46,"mode":4}]},{"name":"mesh47","primitives":[{"attributes":{"POSITION":134},"indices":135,"material":47,"mode":4}]},{"name":"mesh48","primitives":[{"attributes":{"POSITION":136},"indices":137,"material":48,"mode":4}]},{"name":"mesh49","primitives":[{"attributes":{"POSITION":138},"indices":139,"material":49,"mode":4}]}],"nodes":[{"mesh":0,"name":"mesh0"},{"mesh":1,"name":"mesh1"},{"mesh":2,"name":"mesh2"},{"mesh":3,"name":"mesh3"},{"mesh":4,"name":"mesh4"},{"mesh":5,"name":"mesh5"},{"mesh":6,"name":"mesh6"},{"mesh":7,"name":"mesh7"},{"mesh":8,"name":"mesh8"},{"mesh":9,"name":"mesh9"},{"mesh":10,"name":"mesh10"},{"mesh":11,"name":"mesh11"},{"mesh":12,"name":"mesh12"},{"mesh":13,"name":"mesh13"},{"mesh":14,"name":"mesh14"},{"mesh":15,"name":"mesh15"},{"mesh":16,"name":"mesh16"},{"mesh":17,"name":"mesh17"},{"mesh":18,"name":"mesh18"},{"mesh":19,"name":"mesh19"},{"mesh":20,"name":"mesh20"},{"mesh":21,"name":"mesh21"},{"mesh":22,"name":"mesh22"},{"mesh":23,"name":"mesh23"},{"mesh":24,"name":"mesh24"},{"mesh":25,"name":"mesh25"},{"mesh":26,"name":"mesh26"},{"mesh":27,"name":"mesh27"},{"mesh":28,"name":"mesh28"},{"mesh":29,"name":"mesh29"},{"mesh":30,"name":"mesh30"},{"mesh":31,"name":"mesh31"},{"mesh":32,"name":"mesh32"},{"mesh":33,"name":"mesh33"},{"mesh":34,"name":"mesh34"},{"mesh":35,"name":"mesh35"},{"mesh":36,"name":"mesh36"},{"mesh":37,"name":"mesh37"},{"mesh":38,"name":"mesh38"},{"mesh":39,"name":"mesh39"},{"mesh":40,"name":"mesh40"},{"mesh":41,"name":"mesh41"},{"mesh":42,"name":"mesh42"},{"mesh":43,"name":"mesh43"},{"mesh":44,"name":"mesh44"},{"mesh":45,"name":"mesh45"},{"mesh":46,"name":"mesh46"},{"matrix":[1.0,0.0,0.0,0.0,0.0,1.0,0.0,0.0,0.0,0.0,1.0,0.0,6.4,3.945,1.86,1.0],"mesh":47,"name":"mesh47"},{"mesh":48,"name":"mesh48"},{"matrix":[1.0,0.0,0.0,0.0,0.0,1.0,0.0,0.0,0.0,0.0,1.0,0.0,6.4,-3.945,1.86,1.0],"mesh":49,"name":"mesh49"},{"camera":0,"matrix":[0.7071067811865476,-0.7071067811865476,1.3163025823474793e-18,-0.0,0.16987489334070155,0.16987489334070155,0.9707136762325804,0.0,-0.6863982230545803,-0.6863982230545803,0.2402393780691031,-0.0,-34.873091822096555,-46.20086777729675,19.09788954737792,1.0],"name":"Camera Node"},{"children":[0,1,2,3,4,5,6,7,8,9,10,11,12,13,14,15,16,17,18,19,20,21,22,23,24,25,26,27,28,29,30,31,32,33,34,35,36,37,38,39,40,41,42,43,44,45,46,47,48,49,50],"name":"Renderer Node"}],"scene":0,"scenes":[{"name":"Layer 0","nodes":[51]}]}