{"accessors":[{"bufferView":0,"byteOffset":0,"componentType":5126,"count":404,"max":[4.389033317565918,5.699999809265137,1.4493244886398315],"min":[2.9129788875579834,0.0,0.9218006134033203],"type":"VEC3"},{"bufferView":1,"byteOffset":0,"componentType":5125,"count":1818,"type":"SCALAR"},{"bufferView":2,"byteOffset":0,"componentType":5126,"count":404,"max":[4.389033317565918,-0.0,1.4493244886398315],"min":[2.9129788875579834,-5.699999809265137,0.9218006134033203],"type":"VEC3"},{"bufferView":3,"byteOffset":0,"componentType":5125,"count":1818,"type":"SCALAR"},{"bufferView":4,"byteOffset":0,"componentType":5126,"count":202,"max":[8.469696998596191,1.649999976158142,0.29619157314300537],"min":[7.699999809265137,0.0,0.20380842685699463],"type":"VEC3"},{"bufferView":5,"byteOffset":0,"componentType":5125,"count":606,"type":"SCALAR"},{"bufferView":6,"byteOffset":0,"componentType":5126,"count":202,"max":[8.469696998596191,-0.0,0.29619157314300537],"min":[7.699999809265137,-1.649999976158142,0.20380842685699463],"type":"VEC3"},{"bufferView":7,"byteOffset":0,"componentType":5125,"count":606,"type":"SCALAR"},{"bufferView":8,"byteOffset":0,"componentType":5126,"count":202,"max":[8.832441329956055,0.10374046862125397,2.3540000915527344],"min":[6.75,-0.10374046862125397,0.5],"type":"VEC3"},{"bufferView":9,"byteOffset":0,"componentType":5125,"count":606,"type":"SCALAR"},{"bufferView":10,"byteOffset":0,"componentType":5126,"count":1152,"max":[8.43787956237793,0.591529130935669,1.168039321899414],"min":[0.0,-0.5912057161331177,-0.2913965880870819],"type":"VEC3"},{"bufferView":11,"byteOffset":0,"componentType":5125,"count":6270,"type":"SCALAR"},{"bufferView":12,"byteOffset":0,"componentType":5126,"count":24,"max":[2.634999990463257,0.5333999991416931,0.45719999074935913],"min":[2.177799940109253,0.07620000094175339,0.0],"type":"VEC3"},{"bufferView":13,"byteOffset":0,"componentType":5126,"count":24,"normalized":false,"type":"VEC2"},{"bufferView":14,"byteOffset":0,"componentType":5125,"count":36,"type":"SCALAR"},{"bufferView":15,"byteOffset":0,"componentType":5126,"count":24,"max":[2.634999990463257,-0.07620000094175339,0.45719999074935913],"min":[2.177799940109253,-0.5333999991416931,0.0],"type":"VEC3"},{"bufferView":16,"byteOffset":0,"componentType":5126,"count":24,"normalized":false,"type":"VEC2"},{"bufferView":17,"byteOffset":0,"componentType":5125,"count":36,"type":"SCALAR"},{"bufferView":18,"byteOffset":0,"componentType":5126,"count":24,"max":[3.4477999210357666,0.5333999991416931,0.45719999074935913],"min":[2.990600109100342,0.07620000094175339,0.0],"type":"VEC3"},{"bufferView":19,"byteOffset":0,"componentType":5126,"count":24,"normalized":false,"type":"VEC2"},{"bufferView":20,"byteOffset":0,"componentType":5125,"count":36,"type":"SCALAR"},{"bufferView":21,"byteOffset":0,"componentType":5126,"count":24,"max":[3.4477999210357666,-0.07620000094175339,0.45719999074935913],"min":[2.990600109100342,-0.5333999991416931,0.0],"type":"VEC3"},{"bufferView":22,"byteOffset":0,"componentType":5126,"count":24,"normalized":false,"type":"VEC2"},{"bufferView":23,"byteOffset":0,"componentType":5125,"count":36,"type":"SCALAR"},{"bufferView":24,"byteOffset":0,"componentType":5126,"count":24,"max":[4.2606000900268555,0.5333999991416931,0.45719999074935913],"min":[3.8034000396728516,0.07620000094175339,0.0],"type":"VEC3"},{"bufferView":25,"byteOffset":0,"componentType":5126,"count":24,"normalized":false,"type":"VEC2"},{"bufferView":26,"byteOffset":0,"componentType":5125,"count":36,"type":"SCALAR"},{"bufferView":27,"byteOffset":0,"componentType":5126,"count":24,"max":[4.2606000900268555,-0.07620000094175339,0.45719999074935913],"min":[3.8034000396728516,-0.5333999991416931,0.0],"type":"VEC3"},{"bufferView":28,"byteOffset":0,"componentType":5126,"count":24,"normalized":false,"type":"VEC2"},{"bufferView":29,"byteOffset":0,"componentType":5125,"count":36,"type":"SCALAR"},{"bufferView":30,"byteOffset":0,"componentType":5126,"count":672,"max":[4.5,2.0999999046325684,1.2599644660949707],"min":[2.5,1.400191307067871,0.7400355339050293],"type":"VEC3"},{"bufferView":31,"byteOffset":0,"componentType":5125,"count":2850,"type":"SCALAR"},{"bufferView":32,"byteOffset":0,"componentType":5126,"count":2020,"max":[2.57405686378479,1.8193027973175049,1.7797000408172607],"min":[2.4154701232910156,1.6740365028381348,1.2039999961853027],"type":"VEC3"},{"bufferView":33,"byteOffset":0,"componentType":5125,"count":11514,"type":"SCALAR"},{"bufferView":34,"byteOffset":0,"componentType":5126,"count":2020,"max":[2.57405686378479,1.5646488666534424,0.8830180168151855],"min":[2.4154701232910156,1.0200670957565308,0.5337896943092346],"type":"VEC3"},{"bufferView":35,"byteOffset":0,"componentType":5125,"count":11514,"type":"SCALAR"},{"bufferView":36,"byteOffset":0,"componentType":5126,"count":2020,"max":[2.57405686378479,2.4693267345428467,0.8829624056816101],"min":[2.4154701232910156,1.9353190660476685,0.515419065952301],"type":"VEC3"},{"bufferView":37,"byteOffset":0,"componentType":5125,"count":11514,"type":"SCALAR"},{"bufferView":38,"byteOffset":0,"componentType":5126,"count":672,"max":[4.5,-1.399999976158142,1.2599644660949707],"min":[2.5,-2.099808692932129,0.7400355339050293],"type":"VEC3"},{"bufferView":39,"byteOffset":0,"componentType":5125,"count":2850,"type":"SCALAR"},{"bufferView":40,"byteOffset":0,"componentType":5126,"count":2020,"max":[2.57405686378479,-1.6806972026824951,1.7797000408172607],"min":[2.4154701232910156,-1.8259634971618652,1.2039999961853027],"type":"VEC3"},{"bufferView":41,"byteOffset":0,"componentType":5125,"count":11514,"type":"SCALAR"},{"bufferView":42,"byteOffset":0,"componentType":5126,"count":2020,"max":[2.57405686378479,-1.9353511333465576,0.8830180168151855],"min":[2.4154701232910156,-2.479933023452759,0.5337896943092346],"type":"VEC3"},{"bufferView":43,"byteOffset":0,"componentType":5125,"count":11514,"type":"SCALAR"},{"bufferView":44,"byteOffset":0,"componentType":5126,"count":2020,"max":[2.57405686378479,-1.0306733846664429,0.8829624056816101],"min":[2.4154701232910156,-1.5646809339523315,0.515419065952301],"type":"VEC3"},{"bufferView":45,"byteOffset":0,"componentType":5125,"count":11514,"type":"SCALAR"}],"asset":{"generator":"VTK","version":"2.0"},"bufferViews":[{"buffer":0,"byteLength":4848,"byteOffset":0,"target":34962},{"buffer":1,"byteLength":7272,"byteOffset":0,"target":34963},{"buffer":2,"byteLength":4848,"byteOffset":0,"target":34962},{"buffer":3,"byteLength":7272,"byteOffset":0,"target":34963},{"buffer":4,"byteLength":2424,"byteOffset":0,"target":34962},{"buffer":5,"byteLength":2424,"byteOffset":0,"target":34963},{"buffer":6,"byteLength":2424,"byteOffset":0,"target":34962},{"buffer":7,"byteLength":2424,"byteOffset":0,"target":34963},{"buffer":8,"byteLength":2424,"byteOffset":0,"target":34962},{"buffer":9,"byteLength":2424,"byteOffset":0,"target":34963},{"buffer":10,"byteLength":13824,"byteOffset":0,"target":34962},{"buffer":11,"byteLength":25080,"byteOffset":0,"target":34963},{"buffer":12,"byteLength":288,"byteOffset":0,"target":34962},{"buffer":13,"byteLength":192,"byteOffset":0,"target":34962},{"buffer":14,"byteLength":144,"byteOffset":0,"target":34963},{"buffer":15,"byteLength":288,"byteOffset":0,"target":34962},{"buffer":16,"byteLength":192,"byteOffset":0,"target":34962},{"buffer":17,"byteLength":144,"byteOffset":0,"target":34963},{"buffer":18,"byteLength":288,"byteOffset":0,"target":34962},{"buffer":19,"byteLength":192,"byteOffset":0,"target":34962},{"buffer":20,"byteLength":144,"byteOffset":0,"target":34963},{"buffer":21,"byteLength":288,"byteOffset":0,"target":34962},{"buffer":22,"byteLength":192,"byteOffset":0,"target":34962},{"buffer":23,"byteLength":144,"byteOffset":0,"target":34963},{"buffer":24,"byteLength":288,"byteOffset":0,"target":34962},{"buffer":25,"byteLength":192,"byteOffset":0,"target":34962},{"buffer":26,"byteLength":144,"byteOffset":0,"target":34963},{"buffer":27,"byteLength":288,"byteOffset":0,"target":34962},{"buffer":28,"byteLength":192,"byteOffset":0,"target":34962},{"buffer":29,"byteLength":144,"byteOffset":0,"target":34963},{"buffer":30,"byteLength":8064,"byteOffset":0,"target":34962},{"buffer":31,"byteLength":11400,"byteOffset":0,"target":34963},{"buffer":32,"byteLength":24240,"byteOffset":0,"target":34962},{"buffer":33,"byteLength":46056,"byteOffset":0,"target":34963},{"buffer":34,"byteLength":24240,"byteOffset":0,"target":34962},{"buffer":35,"byteLength":46056,"byteOffset":0,"target":34963},{"buffer":36,"byteLength":24240,"byteOffset":0,"target":34962},{"buffer":37,"byteLength":46056,"byteOffset":0,"target":34963},{"buffer":38,"byteLength":8064,"byteOffset":0,"target":34962},{"buffer":39,"byteLength":11400,"byteOffset":0,"target":34963},{"buffer":40,"byteLength":24240,"byteOffset":0,"target":34962},{"buffer":41,"byteLength":46056,"byteOffset":0,"target":34963},{"buffer":42,"byteLength":24240,"byteOffset":0,"target":34962},{"buffer":43,"byteLength":46056,"byteOffset":0,"target":34963},{"buffer":44,"byteLength":24240,"byteOffset":0,"target":34962},{"buffer":45,"byteLength":46056,"byteOffset":0,"target":34963}],"buffers":[{"byteLength":4848,"uri":"data:application/octet-stream;base64,"},{"byteLength":7272,"uri":"data:application/octet-stream;base64,"},{"byteLength":4848,"uri":"data:application/octet-stream;base64,"},{"byteLength":7272,"uri":"data:application/octet-stream;base64,"},{"byteLength":2424,"uri":"data:application/octet-stream;base64,"},{"byteLength":2424,"uri":"data:application/octet-stream;base64,"},{"byteLength":2424,"uri":"data:application/octet-stream;base64,"},{"byteLength":2424,"uri":"data:application/octet-stream;base64,"},{"byteLength":2424,"uri":"data:application/octet-stream;base64,"},{"byteLength":2424,"uri":"data:application/octet-stream;base64,"},{"byteLength":13824,"uri":"data:application/octet-stream;base64,"},{"byteLength":25080,"uri":"data:application/octet-stream;base64,"},{"byteLength":288,"uri":"data:application/octet-stream;base64,"},{"byteLength":192,"uri":"data:application/octet-stream;base64,"},{"byteLength":144,"uri":"data:application/octet-stream;base64,"},{"byteLength":288,"uri":"data:application/octet-stream;base64,"},{"byteLength":192,"uri":"data:application/octet-stream;base64,"},{"byteLength":144,"uri":"data:application/octet-stream;base64,"},{"byteLength":288,"uri":"data:application/octet-stream;base64,"},{"byteLength":192,"uri":"data:application/octet-stream;base64,"},{"byteLength":144,"uri":"data:application/octet-stream;base64,"},{"byteLength":288,"uri":"data:application/octet-stream;base64,"},{"byteLength":192,"uri":"data:application/octet-stream;base64,"},{"byteLength":144,"uri":"data:application/octet-stream;base64,"},{"byteLength":288,"uri":"data:application/octet-stream;base64,"},{"byteLength":192,"uri":"data:application/octet-stream;base64,"},{"byteLength":144,"uri":"data:application/octet-stream;base64,"},{"byteLength":288,"uri":"data:application/octet-stream;base64,"},{"byteLength":192,"uri":"data:application/octet-stream;base64,"},{"byteLength":144,"uri":"data:application/octet-stream;base64,"},{"byteLength":8064,"uri":"data:application/octet-stream;base64,"},{"byteLength":11400,"uri":"data:application/octet-stream;base64,"},{"byteLength":24240,"uri":"data:application/octet-stream;base64,"},{"byteLength":46056,"uri":"data:application/octet-stream;base64,"},{"byteLength":24240,"uri":"data:application/octet-stream;base64,"},{"byteLength":46056,"uri":"data:application/octet-stream;base64,"},{"byteLength":24240,"uri":"data:application/octet-stream;base64,"},{"byteLength":46056,"uri":"data:application/octet-stream;base64,"},{"byteLength":8064,"uri":"data:application/octet-stream;base64,"},{"byteLength":11400,"uri":"data:application/octet-stream;base64,"},{"byteLength":24240,"uri":"data:application/octet-stream;base64,"},{"byteLength":46056,"uri":"data:application/octet-stream;base64,"},{"byteLength":24240,"uri":"data:application/octet-stream;base64,"},{"byteLength":46056,"uri":"data:application/octet-stream;base64,"},{"byteLength":24240,"uri":"data:application/octet-stream;base64,"},{"byteLength":46056,"uri":"data:application/octet-stream;base64,"}],"cameras":[{"perspective":{"aspectRatio":1.0,"yfov":0.5235987755982988,"zfar":46.93951384610687,"znear":13.590868062346344},"type":"perspective"}],"materials":[{"pbrMetallicRoughness":{"baseColorFactor":[0.5019607843137255,0.5019607843137255,0.5019607843137255,0.5],"metallicFactor":0.0,"roughnessFactor":1.0}},{"pbrMetallicRoughness":{"baseColorFactor":[0.5019607843137255,0.5019607843137255,0.5019607843137255,0.5],"metallicFactor":0.0,"roughnessFactor":1.0}},{"pbrMetallicRoughness":{"baseColorFactor":[0.5019607843137255,0.5019607843137255,0.5019607843137255,0.5],"metallicFactor":0.0,"roughnessFactor":1.0}},{"pbrMetallicRoughness":{"baseColorFactor":[0.5019607843137255,0.5019607843137255,0.5019607843137255,0.5],"metallicFactor":0.0,"roughnessFactor":1.0}},{"pbrMetallicRoughness":{"baseColorFactor":[0.5019607843137255,0.5019607843137255,0.5019607843137255,0.5],"metallicFactor":0.0,"roughnessFactor":1.0}},{"pbrMetallicRoughness":{"baseColorFactor":[0.5019607843137255,0.5019607843137255,0.5019607843137255,0.5],"metallicFactor":0.0,"roughnessFactor":1.0}},{"pbrMetallicRoughness":{"baseColorFactor":[0.27450980392156865,0.5098039215686274,0.7058823529411765,1.0],"metallicFactor":0.0,"roughnessFactor":1.0}},{"pbrMetallicRoughness":{"baseColorFactor":[0.27450980392156865,0.5098039215686274,0.7058823529411765,1.0],"metallicFactor":0.0,"roughnessFactor":1.0}},{"pbrMetallicRoughness":{"baseColorFactor":[0.27450980392156865,0.5098039215686274,0.7058823529411765,1.0],"metallicFactor":0.0,"roughnessFactor":1.0}},{"pbrMetallicRoughness":{"baseColorFactor":[0.27450980392156865,0.5098039215686274,0.7058823529411765,1.0],"metallicFactor":0.0,"roughnessFactor":1.0}},{"pbrMetallicRoughness":{"baseColorFactor":[0.27450980392156865,0.5098039215686274,0.7058823529411765,1.0],"metallicFactor":0.0,"roughnessFactor":1.0}},{"pbrMetallicRoughness":{"baseColorFactor":[0.27450980392156865,0.5098039215686274,0.7058823529411765,1.0],"metallicFactor":0.0,"roughnessFactor":1.0}},{"pbrMetallicRoughness":{"baseColorFactor":[0.5019607843137255,0.5019607843137255,0.5019607843137255,1.0],"metallicFactor":0.0,"roughnessFactor":1.0}},{"pbrMetallicRoughness":{"baseColorFactor":[0.0,0.0,0.0,0.6],"metallicFactor":0.0,"roughnessFactor":1.0}},{"pbrMetallicRoughness":{"baseColorFactor":[0.0,0.0,0.0,0.6],"metallicFactor":0.0,"roughnessFactor":1.0}},{"pbrMetallicRoughness":{"baseColorFactor":[0.0,0.0,0.0,0.6],"metallicFactor":0.0,"roughnessFactor":1.0}},{"pbrMetallicRoughness":{"baseColorFactor":[0.5019607843137255,0.5019607843137255,0.5019607843137255,1.0],"metallicFactor":0.0,"roughnessFactor":1.0}},{"pbrMetallicRoughness":{"baseColorFactor":[0.0,0.0,0.0,0.6],"metallicFactor":0.0,"roughnessFactor":1.0}},{"pbrMetallicRoughness":{"baseColorFactor":[0.0,0.0,0.0,0.6],"metallicFactor":0.0,"roughnessFactor":1.0}},{"pbrMetallicRoughness":{"baseColorFactor":[0.0,0.0,0.0,0.6],"metallicFactor":0.0,"roughnessFactor":1.0}}],"meshes":[{"name":"mesh0","primitives":[{"attributes":{"POSITION":0},"indices":1,"material":0,"mode":4}]},{"name":"mesh1","primitives":[{"attributes":{"POSITION":2},"indices":3,"material":1,"mode":4}]},{"name":"mesh2","primitives":[{"attributes":{"POSITION":4},"indices":5,"material":2,"mode":4}]},{"name":"mesh3","primitives":[{"attributes":{"POSITION":6},"indices":7,"material":3,"mode":4}]},{"name":"mesh4","primitives":[{"attributes":{"POSITION":8},"indices":9,"material":4,"mode":4}]},{"name":"mesh5","primitives":[{"attributes":{"POSITION":10},"indices":11,"material":5,"mode":4}]},{"name":"mesh6","primitives":[{"attributes":{"POSITION":12,"TEXCOORD_0":13},"indices":14,"material":6,"mode":4}]},{"name":"mesh7","primitives":[{"attributes":{"POSITION":15,"TEXCOORD_0":16},"indices":17,"material":7,"mode":4}]},{"name":"mesh8","primitives":[{"attributes":{"POSITION":18,"TEXCOORD_0":19},"indices":20,"material":8,"mode":4}]},{"name":"mesh9","primitives":[{"attributes":{"POSITION":21,"TEXCOORD_0":22},"indices":23,"material":9,"mode":4}]},{"name":"mesh10","primitives":[{"attributes":{"POSITION":24,"TEXCOORD_0":25},"indices":26,"material":10,"mode":4}]},{"name":"mesh11","primitives":[{"attributes":{"POSITION":27,"TEXCOORD_0":28},"indices":29,"material":11,"mode":4}]},{"name":"mesh12","primitives":[{"attributes":{"POSITION":30},"indices":31,"material":12,"mode":4}]},{"name":"mesh13","primitives":[{"attributes":{"POSITION":32},"indices":33,"material":13,"mode":4}]},{"name":"mesh14","primitives":[{"attributes":{"POSITION":34},"indices":35,"material":14,"mode":4}]},{"name":"mesh15","primitives":[{"attributes":{"POSITION":36},"indices":37,"material":15,"mode":4}]},{"name":"mesh16","primitives":[{"attributes":{"POSITION":38},"indices":39,"material":16,"mode":4}]},{"name":"mesh17","primitives":[{"attributes":{"POSITION":40},"indices":41,"material":17,"mode":4}]},{"name":"mesh18","primitives":[{"attributes":{"POSITION":42},"indices":43,"material":18,"mode":4}]},{"name":"mesh19","primitives":[{"attributes":{"POSITION":44},"indices":45,"material":19,"mode":4}]}],"nodes":[{"mesh":0,"name":"mesh0"},{"mesh":1,"name":"mesh1"},{"mesh":2,"name":"mesh2"},{"mesh":3,"name":"mesh3"},{"mesh":4,"name":"mesh4"},{"mesh":5,"name":"mesh5"},{"mesh":6,"name":"mesh6"},{"mesh":7,"name":"mesh7"},{"mesh":8,"name":"mesh8"},{"mesh":9,"name":"mesh9"},{"mesh":10,"name":"mesh10"},{"mesh":11,"name":"mesh11"},{"mesh":12,"name":"mesh12"},{"mesh":13,"name":"mesh13"},{"mesh":14,"name":"mesh14"},{"mesh":15,"name":"mesh15"},{"mesh":16,"name":"mesh16"},{"mesh":17,"name":"mesh17"},{"mesh":18,"name":"mesh18"},{"mesh":19,"name":"mesh19"},{"camera":0,"matrix":[0.7071067811865477,-0.7071067811865475,1.5077785755132573e-18,-0.0,0.16987489334070152,0.16987489334070158,0.9707136762325804,0.0,-0.6863982230545802,-0.6863982230545804,0.2402393780691031,-0.0,-15.025692033125305,-19.441912698103334,7.835971196068992,1.0],"name":"Camera Node"},{"children":[0,1,2,3,4,5,6,7,8,9,10,11,12,13,14,15,16,17,18,19,20],"name":"Renderer Node"}],"scene":0,"scenes":[{"name":"Layer 0","nodes":[21]}]}