{"accessors":[{"bufferView":0,"byteOffset":0,"componentType":5126,"count":404,"max":[49.79586410522461,32.400001525878906,3.638129711151123],"min":[25.0,0.0,-1.9453229904174805],"type":"VEC3"},{"bufferView":1,"byteOffset":0,"componentType":5125,"count":1809,"type":"SCALAR"},{"bufferView":2,"byteOffset":0,"componentType":5126,"count":404,"max":[49.79586410522461,-0.0,3.638129711151123],"min":[25.0,-32.400001525878906,-1.9453229904174805],"type":"VEC3"},{"bufferView":3,"byteOffset":0,"componentType":5125,"count":1809,"type":"SCALAR"},{"bufferView":4,"byteOffset":0,"componentType":5126,"count":202,"max":[74.09957885742188,10.790761947631836,3.7560081481933594],"min":[63.03028106689453,0.0,1.757942795753479],"type":"VEC3"},{"bufferView":5,"byteOffset":0,"componentType":5125,"count":606,"type":"SCALAR"},{"bufferView":6,"byteOffset":0,"componentType":5126,"count":202,"max":[74.09957885742188,-0.0,3.7560081481933594],"min":[63.03028106689453,-10.790761947631836,1.757942795753479],"type":"VEC3"},{"bufferView":7,"byteOffset":0,"componentType":5125,"count":606,"type":"SCALAR"},{"bufferView":8,"byteOffset":0,"componentType":5126,"count":202,"max":[74.56304931640625,0.5664153695106506,13.386009216308594],"min":[59.90743637084961,-0.5664153695106506,2.4586546421051025],"type":"VEC3"},{"bufferView":9,"byteOffset":0,"componentType":5125,"count":606,"type":"SCALAR"},{"bufferView":10,"byteOffset":0,"componentType":5126,"count":1728,"max":[73.08000183105469,3.1416144371032715,3.8249857425689697],"min":[0.0,-3.1398966312408447,-2.320948839187622],"type":"VEC3"},{"bufferView":11,"byteOffset":0,"componentType":5125,"count":9405,"type":"SCALAR"},{"bufferView":12,"byteOffset":0,"componentType":5126,"count":4896,"max":[32.003692626953125,11.625253677368164,-0.11302947252988815],"min":[26.72797966003418,7.771839618682861,-3.966970443725586],"type":"VEC3"},{"bufferView":13,"byteOffset":0,"componentType":5125,"count":28500,"type":"SCALAR"},{"bufferView":14,"byteOffset":0,"componentType":5126,"count":4896,"max":[32.003692626953125,-7.770785808563232,-0.11302947252988815],"min":[26.72797966003418,-11.624199867248535,-3.966970443725586],"type":"VEC3"},{"bufferView":15,"byteOffset":0,"componentType":5125,"count":28500,"type":"SCALAR"},{"bufferView":16,"byteOffset":0,"componentType":5126,"count":10,"max":[37.816307067871094,8.547767639160156,0.8721206188201904],"min":[26.513349533081055,0.0,-1.310042381286621],"type":"VEC3"},{"bufferView":17,"byteOffset":0,"componentType":5125,"count":24,"type":"SCALAR"},{"bufferView":18,"byteOffset":0,"componentType":5126,"count":10,"max":[37.816307067871094,-0.0,0.8721206188201904],"min":[26.513349533081055,-8.547767639160156,-1.310042381286621],"type":"VEC3"},{"bufferView":19,"byteOffset":0,"componentType":5125,"count":24,"type":"SCALAR"},{"bufferView":20,"byteOffset":0,"componentType":5126,"count":10,"max":[39.10787582397461,12.221280097961426,1.0892847776412964],"min":[31.99453353881836,8.547767639160156,0.17463377118110657],"type":"VEC3"},{"bufferView":21,"byteOffset":0,"componentType":5125,"count":24,"type":"SCALAR"},{"bufferView":22,"byteOffset":0,"componentType":5126,"count":10,"max":[39.10787582397461,-8.547767639160156,1.0892847776412964],"min":[31.99453353881836,-12.221280097961426,0.17463377118110657],"type":"VEC3"},{"bufferView":23,"byteOffset":0,"componentType":5125,"count":24,"type":"SCALAR"}],"asset":{"generator":"VTK","version":"2.0"},"bufferViews":[{"buffer":0,"byteLength":4848,"byteOffset":0,"target":34962},{"buffer":1,"byteLength":7236,"byteOffset":0,"target":34963},{"buffer":2,"byteLength":4848,"byteOffset":0,"target":34962},{"buffer":3,"byteLength":7236,"byteOffset":0,"target":34963},{"buffer":4,"byteLength":2424,"byteOffset":0,"target":34962},{"buffer":5,"byteLength":2424,"byteOffset":0,"target":34963},{"buffer":6,"byteLength":2424,"byteOffset":0,"target":34962},{"buffer":7,"byteLength":2424,"byteOffset":0,"target":34963},{"buffer":8,"byteLength":2424,"byteOffset":0,"target":34962},{"buffer":9,"byteLength":2424,"byteOffset":0,"target":34963},{"buffer":10,"byteLength":20736,"byteOffset":0,"target":34962},{"buffer":11,"byteLength":37620,"byteOffset":0,"target":34963},{"buffer":12,"byteLength":58752,"byteOffset":0,"target":34962},{"buffer":13,"byteLength":114000,"byteOffset":0,"target":34963},{"buffer":14,"byteLength":58752,"byteOffset":0,"target":34962},{"buffer":15,"byteLength":114000,"byteOffset":0,"target":34963},{"buffer":16,"byteLength":120,"byteOffset":0,"target":34962},{"buffer":17,"byteLength":96,"byteOffset":0,"target":34963},{"buffer":18,"byteLength":120,"byteOffset":0,"target":34962},{"buffer":19,"byteLength":96,"byteOffset":0,"target":34963},{"buffer":20,"byteLength":120,"byteOffset":0,"target":34962},{"buffer":21,"byteLength":96,"byteOffset":0,"target":34963},{"buffer":22,"byteLength":120,"byteOffset":0,"target":34962},{"buffer":23,"byteLength":96,"byteOffset":0,"target":34963}],"buffers":[{"byteLength":4848,"uri":"data:application/octet-stream;base64,"},{"byteLength":7236,"uri":"data:application/octet-stream;base64,"},{"byteLength":4848,"uri":"data:application/octet-stream;base64,"},{"byteLength":7236,"uri":"data:application/octet-stream;base64,"},{"byteLength":2424,"uri":"data:application/octet-stream;base64,"},{"byteLength":2424,"uri":"data:application/octet-stream;base64,"},{"byteLength":2424,"uri":"data:application/octet-stream;base64,"},{"byteLength":2424,"uri":"data:application/octet-stream;base64,"},{"byteLength":2424,"uri":"data:application/octet-stream;base64,"},{"byteLength":2424,"uri":"data:application/octet-stream;base64,"},{"byteLength":20736,"uri":"data:application/octet-stream;base64,"},{"byteLength":37620,"uri":"data:application/octet-stream;base64,"},{"byteLength":58752,"uri":"data:application/octet-stream;base64,"},{"byteLength":114000,"uri":"data:application/octet-stream;base64,"},{"byteLength":58752,"uri":"data:application/octet-stream;base64,"},{"byteLength":114000,"uri":"data:application/octet-stream;base64,"},{"byteLength":120,"uri":"data:application/octet-stream;base64,"},{"byteLength":96,"uri":"data:application/octet-stream;base64,"},{"byteLength":120,"uri":"data:application/octet-stream;base64,"},{"byteLength":96,"uri":"data:application/octet-stream;base64,"},{"byteLength":120,"uri":"data:application/octet-stream;base64,"},{"byteLength":96,"uri":"data:application/octet-stream;base64,"},{"byteLength":120,"uri":"data:application/octet-stream;base64,"},{"byteLength":96,"uri":"data:application/octet-stream;base64,"}],"cameras":[{"perspective":{"aspectRatio":1.0,"yfov":0.5235987755982988,"zfar":321.7023440089101,"znear":92.49616461286175},"type":"perspective"}],"materials":[{"pbrMetallicRoughness":{"baseColorFactor":[0.5019607843137255,0.5019607843137255,0.5019607843137255,0.5],"metallicFactor":0.0,"roughnessFactor":1.0}},{"pbrMetallicRoughness":{"baseColorFactor":[0.5019607843137255,0.5019607843137255,0.5019607843137255,0.5],"metallicFactor":0.0,"roughnessFactor":1.0}},{"pbrMetallicRoughness":{"baseColorFactor":[0.5019607843137255,0.5019607843137255,0.5019607843137255,0.5],"metallicFactor":0.0,"roughnessFactor":1.0}},{"pbrMetallicRoughness":{"baseColorFactor":[0.5019607843137255,0.5019607843137255,0.5019607843137255,0.5],"metallicFactor":0.0,"roughnessFactor":1.0}},{"pbrMetallicRoughness":{"baseColorFactor":[0.5019607843137255,0.5019607843137255,0.5019607843137255,0.5],"metallicFactor":0.0,"roughnessFactor":1.0}},{"pbrMetallicRoughness":{"baseColorFactor":[0.5019607843137255,0.5019607843137255,0.5019607843137255,0.5],"metallicFactor":0.0,"roughnessFactor":1.0}},{"pbrMetallicRoughness":{"baseColorFactor":[0.5019607843137255,0.5019607843137255,0.5019607843137255,1.0],"metallicFactor":0.0,"roughnessFactor":1.0}},{"pbrMetallicRoughness":{"baseColorFactor":[0.5019607843137255,0.5019607843137255,0.5019607843137255,1.0],"metallicFactor":0.0,"roughnessFactor":1.0}},{"pbrMetallicRoughness":{"baseColorFactor":[1.0,0.6470588235294118,0.0,0.5],"metallicFactor":0.0,"roughnessFactor":1.0}},{"pbrMetallicRoughness":{"baseColorFactor":[1.0,0.6470588235294118,0.0,0.5],"metallicFactor":0.0,"roughnessFactor":1.0}},{"pbrMetallicRoughness":{"baseColorFactor":[1.0,0.6470588235294118,0.0,0.5],"metallicFactor":0.0,"roughnessFactor":1.0}},{"pbrMetallicRoughness":{"baseColorFactor":[1.0,0.6470588235294118,0.0,0.5],"metallicFactor":0.0,"roughnessFactor":1.0}}],"meshes":[{"name":"mesh0","primitives":[{"attributes":{"POSITION":0},"indices":1,"material":0,"mode":4}]},{"name":"mesh1","primitives":[{"attributes":{"POSITION":2},"indices":3,"material":1,"mode":4}]},{"name":"mesh2","primitives":[{"attributes":{"POSITION":4},"indices":5,"material":2,"mode":4}]},{"name":"mesh3","primitives":[{"attributes":{"POSITION":6},"indices":7,"material":3,"mode":4}]},{"name":"mesh4","primitives":[{"attributes":{"POSITION":8},"indices":9,"material":4,"mode":4}]},{"name":"mesh5","primitives":[{"attributes":{"POSITION":10},"indices":11,"material":5,"mode":4}]},{"name":"mesh6","primitives":[{"attributes":{"POSITION":12},"indices":13,"material":6,"mode":4}]},{"name":"mesh7","primitives":[{"attributes":{"POSITION":14},"indices":15,"material":7,"mode":4}]},{"name":"mesh8","primitives":[{"attributes":{"POSITION":16},"indices":17,"material":8,"mode":4}]},{"name":"mesh9","primitives":[{"attributes":{"POSITION":18},"indices":19,"material":9,"mode":4}]},{"name":"mesh10","primitives":[{"attributes":{"POSITION":20},"indices":21,"material":10,"mode":4}]},{"name":"mesh11","primitives":[{"attributes":{"POSITION":22},"indices":23,"material":11,"mode":4}]}],"nodes":[{"mesh":0,"name":"mesh0"},{"mesh":1,"name":"mesh1"},{"mesh":2,"name":"mesh2"},{"mesh":3,"name":"mesh3"},{"mesh":4,"name":"mesh4"},{"mesh":5,"name":"mesh5"},{"mesh":6,"name":"mesh6"},{"mesh":7,"name":"mesh7"},{"mesh":8,"name":"mesh8"},{"mesh":9,"name":"mesh9"},{"mesh":10,"name":"mesh10"},{"mesh":11,"name":"mesh11"},{"camera":0,"matrix":[0.7071067811865475,-0.7071067811865476,-3.8572873922627866e-18,-0.0,0.16987489334070152,0.1698748933407015,0.9707136762325802,0.0,-0.6863982230545803,-0.6863982230545802,0.24023937806910303,-0.0,-95.71641502285938,-132.9979396810625,51.25879827466338,1.0],"name":"Camera Node"},{"children":[0,1,2,3,4,5,6,7,8,9,10,11,12],"name":"Renderer Node"}],"scene":0,"scenes":[{"name":"Layer 0","nodes":[13]}]}