{"accessors":[{"bufferView":0,"byteOffset":0,"componentType":5126,"count":202,"max":[3.777587413787842,5.499100208282471,0.9018741250038147],"min":[2.0320000648498535,0.0,0.6814365983009338],"type":"VEC3"},{"bufferView":1,"byteOffset":0,"componentType":5125,"count":606,"type":"SCALAR"},{"bufferView":2,"byteOffset":0,"componentType":5126,"count":202,"max":[3.777587413787842,-0.0,0.9018741250038147],"min":[2.0320000648498535,-5.499100208282471,0.6814365983009338],"type":"VEC3"},{"bufferView":3,"byteOffset":0,"componentType":5125,"count":606,"type":"SCALAR"},{"bufferView":4,"byteOffset":0,"componentType":5126,"count":202,"max":[7.650233745574951,1.7272000312805176,0.08412780612707138],"min":[6.2484002113342285,0.0,-0.08412780612707138],"type":"VEC3"},{"bufferView":5,"byteOffset":0,"componentType":5125,"count":606,"type":"SCALAR"},{"bufferView":6,"byteOffset":0,"componentType":5126,"count":202,"max":[7.650233745574951,-0.0,0.08412780612707138],"min":[6.2484002113342285,-1.7272000312805176,-0.08412780612707138],"type":"VEC3"},{"bufferView":7,"byteOffset":0,"componentType":5125,"count":606,"type":"SCALAR"},{"bufferView":8,"byteOffset":0,"componentType":5126,"count":202,"max":[8.102235794067383,0.10373203456401825,1.854200005531311],"min":[6.019800186157227,-0.10373203456401825,0.0],"type":"VEC3"},{"bufferView":9,"byteOffset":0,"componentType":5125,"count":606,"type":"SCALAR"},{"bufferView":10,"byteOffset":0,"componentType":5126,"count":960,"max":[8.280400276184082,0.5333999991416931,0.8619833588600159],"min":[0.0,-0.5331083536148071,-0.679286777973175],"type":"VEC3"},{"bufferView":11,"byteOffset":0,"componentType":5125,"count":4560,"type":"SCALAR"},{"bufferView":12,"byteOffset":0,"componentType":5126,"count":24,"max":[2.634999990463257,0.4952999949455261,0.45719999074935913],"min":[2.177799940109253,0.038100000470876694,0.0],"type":"VEC3"},{"bufferView":13,"byteOffset":0,"componentType":5126,"count":24,"normalized":false,"type":"VEC2"},{"bufferView":14,"byteOffset":0,"componentType":5125,"count":36,"type":"SCALAR"},{"bufferView":15,"byteOffset":0,"componentType":5126,"count":24,"max":[2.634999990463257,-0.038100000470876694,0.45719999074935913],"min":[2.177799940109253,-0.4952999949455261,0.0],"type":"VEC3"},{"bufferView":16,"byteOffset":0,"componentType":5126,"count":24,"normalized":false,"type":"VEC2"},{"bufferView":17,"byteOffset":0,"componentType":5125,"count":36,"type":"SCALAR"},{"bufferView":18,"byteOffset":0,"componentType":5126,"count":24,"max":[3.4477999210357666,0.4952999949455261,0.45719999074935913],"min":[2.990600109100342,0.038100000470876694,0.0],"type":"VEC3"},{"bufferView":19,"byteOffset":0,"componentType":5126,"count":24,"normalized":false,"type":"VEC2"},{"bufferView":20,"byteOffset":0,"componentType":5125,"count":36,"type":"SCALAR"},{"bufferView":21,"byteOffset":0,"componentType":5126,"count":24,"max":[3.4477999210357666,-0.038100000470876694,0.45719999074935913],"min":[2.990600109100342,-0.4952999949455261,0.0],"type":"VEC3"},{"bufferView":22,"byteOffset":0,"componentType":5126,"count":24,"normalized":false,"type":"VEC2"},{"bufferView":23,"byteOffset":0,"componentType":5125,"count":36,"type":"SCALAR"},{"bufferView":24,"byteOffset":0,"componentType":5126,"count":2020,"max":[0.06210668757557869,0.05427174270153046,0.9271000027656555],"min":[-0.06943755596876144,-0.059237040579319,0.20319999754428864],"type":"VEC3"},{"bufferView":25,"byteOffset":0,"componentType":5125,"count":11514,"type":"SCALAR"},{"bufferView":26,"byteOffset":0,"componentType":5126,"count":2020,"max":[0.06210668757557869,0.059237040579319,-0.20319999754428864],"min":[-0.06943755596876144,-0.05427174270153046,-0.9271000027656555],"type":"VEC3"},{"bufferView":27,"byteOffset":0,"componentType":5125,"count":11514,"type":"SCALAR"}],"asset":{"generator":"VTK","version":"2.0"},"bufferViews":[{"buffer":0,"byteLength":2424,"byteOffset":0,"target":34962},{"buffer":1,"byteLength":2424,"byteOffset":0,"target":34963},{"buffer":2,"byteLength":2424,"byteOffset":0,"target":34962},{"buffer":3,"byteLength":2424,"byteOffset":0,"target":34963},{"buffer":4,"byteLength":2424,"byteOffset":0,"target":34962},{"buffer":5,"byteLength":2424,"byteOffset":0,"target":34963},{"buffer":6,"byteLength":2424,"byteOffset":0,"target":34962},{"buffer":7,"byteLength":2424,"byteOffset":0,"target":34963},{"buffer":8,"byteLength":2424,"byteOffset":0,"target":34962},{"buffer":9,"byteLength":2424,"byteOffset":0,"target":34963},{"buffer":10,"byteLength":11520,"byteOffset":0,"target":34962},{"buffer":11,"byteLength":18240,"byteOffset":0,"target":34963},{"buffer":12,"byteLength":288,"byteOffset":0,"target":34962},{"buffer":13,"byteLength":192,"byteOffset":0,"target":34962},{"buffer":14,"byteLength":144,"byteOffset":0,"target":34963},{"buffer":15,"byteLength":288,"byteOffset":0,"target":34962},{"buffer":16,"byteLength":192,"byteOffset":0,"target":34962},{"buffer":17,"byteLength":144,"byteOffset":0,"target":34963},{"buffer":18,"byteLength":288,"byteOffset":0,"target":34962},{"buffer":19,"byteLength":192,"byteOffset":0,"target":34962},{"buffer":20,"byteLength":144,"byteOffset":0,"target":34963},{"buffer":21,"byteLength":288,"byteOffset":0,"target":34962},{"buffer":22,"byteLength":192,"byteOffset":0,"target":34962},{"buffer":23,"byteLength":144,"byteOffset":0,"target":34963},{"buffer":24,"byteLength":24240,"byteOffset":0,"target":34962},{"buffer":25,"byteLength":46056,"byteOffset":0,"target":34963},{"buffer":26,"byteLength":24240,"byteOffset":0,"target":34962},{"buffer":27,"byteLength":46056,"byteOffset":0,"target":34963}],"buffers":[{"byteLength":2424,"uri":"data:application/octet-stream;base64,"},{"byteLength":2424,"uri":"data:application/octet-stream;base64,"},{"byteLength":2424,"uri":"data:application/octet-stream;base64,"},{"byteLength":2424,"uri":"data:application/octet-stream;base64,"},{"byteLength":2424,"uri":"data:application/octet-stream;base64,"},{"byteLength":2424,"uri":"data:application/octet-stream;base64,"},{"byteLength":2424,"uri":"data:application/octet-stream;base64,"},{"byteLength":2424,"uri":"data:application/octet-stream;base64,"},{"byteLength":2424,"uri":"data:application/octet-stream;base64,"},{"byteLength":2424,"uri":"data:application/octet-stream;base64,"},{"byteLength":11520,"uri":"data:application/octet-stream;base64,"},{"byteLength":18240,"uri":"data:application/octet-stream;base64,"},{"byteLength":288,"uri":"data:application/octet-stream;base64,"},{"byteLength":192,"uri":"data:application/octet-stream;base64,"},{"byteLength":144,"uri":"data:application/octet-stream;base64,"},{"byteLength":288,"uri":"data:application/octet-stream;base64,"},{"byteLength":192,"uri":"data:application/octet-stream;base64,"},{"byteLength":144,"uri":"data:application/octet-stream;base64,"},{"byteLength":288,"uri":"data:application/octet-stream;base64,"},{"byteLength":192,"uri":"data:application/octet-stream;base64,"},{"byteLength":144,"uri":"data:application/octet-stream;base64,"},{"byteLength":288,"uri":"data:application/octet-stream;base64,"},{"byteLength":192,"uri":"data:application/octet-stream;base64,"},{"byteLength":144,"uri":"data:application/octet-stream;base64,"},{"byteLength":24240,"uri":"data:application/octet-stream;base64,"},{"byteLength":46056,"uri":"data:application/octet-stream;base64,"},{"byteLength":24240,"uri":"data:application/octet-stream;base64,"},{"byteLength":46056,"uri":"data:application/octet-stream;base64,"}],"cameras":[{"perspective":{"aspectRatio":1.0,"yfov":0.5235987755982988,"zfar":45.09094146126093,"znear":13.06107781324562},"type":"perspective"}],"materials":[{"pbrMetallicRoughness":{"baseColorFactor":[0.5019607843137255,0.5019607843137255,0.5019607843137255,0.5],"metallicFactor":0.0,"roughnessFactor":1.0}},{"pbrMetallicRoughness":{"baseColorFactor":[0.5019607843137255,0.5019607843137255,0.5019607843137255,0.5],"metallicFactor":0.0,"roughnessFactor":1.0}},{"pbrMetallicRoughness":{"baseColorFactor":[0.5019607843137255,0.5019607843137255,0.5019607843137255,0.5],"metallicFactor":0.0,"roughnessFactor":1.0}},{"pbrMetallicRoughness":{"baseColorFactor":[0.5019607843137255,0.5019607843137255,0.5019607843137255,0.5],"metallicFactor":0.0,"roughnessFactor":1.0}},{"pbrMetallicRoughness":{"baseColorFactor":[0.5019607843137255,0.5019607843137255,0.5019607843137255,0.5],"metallicFactor":0.0,"roughnessFactor":1.0}},{"pbrMetallicRoughness":{"baseColorFactor":[0.5019607843137255,0.5019607843137255,0.5019607843137255,0.5],"metallicFactor":0.0,"roughnessFactor":1.0}},{"pbrMetallicRoughness":{"baseColorFactor":[0.27450980392156865,0.5098039215686274,0.7058823529411765,1.0],"metallicFactor":0.0,"roughnessFactor":1.0}},{"pbrMetallicRoughness":{"baseColorFactor":[0.27450980392156865,0.5098039215686274,0.7058823529411765,1.0],"metallicFactor":0.0,"roughnessFactor":1.0}},{"pbrMetallicRoughness":{"baseColorFactor":[0.27450980392156865,0.5098039215686274,0.7058823529411765,1.0],"metallicFactor":0.0,"roughnessFactor":1.0}},{"pbrMetallicRoughness":{"baseColorFactor":[0.27450980392156865,0.5098039215686274,0.7058823529411765,1.0],"metallicFactor":0.0,"roughnessFactor":1.0}},{"pbrMetallicRoughness":{"baseColorFactor":[0.0,0.0,0.0,0.6],"metallicFactor":0.0,"roughnessFactor":1.0}},{"pbrMetallicRoughness":{"baseColorFactor":[0.0,0.0,0.0,0.6],"metallicFactor":0.0,"roughnessFactor":1.0}}],"meshes":[{"name":"mesh0","primitives":[{"attributes":{"POSITION":0},"indices":1,"material":0,"mode":4}]},{"name":"mesh1","primitives":[{"attributes":{"POSITION":2},"indices":3,"material":1,"mode":4}]},{"name":"mesh2","primitives":[{"attributes":{"POSITION":4},"indices":5,"material":2,"mode":4}]},{"name":"mesh3","primitives":[{"attributes":{"POSITION":6},"indices":7,"material":3,"mode":4}]},{"name":"mesh4","primitives":[{"attributes":{"POSITION":8},"indices":9,"material":4,"mode":4}]},{"name":"mesh5","primitives":[{"attributes":{"POSITION":10},"indices":11,"material":5,"mode":4}]},{"name":"mesh6","primitives":[{"attributes":{"POSITION":12,"TEXCOORD_0":13},"indices":14,"material":6,"mode":4}]},{"name":"mesh7","primitives":[{"attributes":{"POSITION":15,"TEXCOORD_0":16},"indices":17,"material":7,"mode":4}]},{"name":"mesh8","primitives":[{"attributes":{"POSITION":18,"TEXCOORD_0":19},"indices":20,"material":8,"mode":4}]},{"name":"mesh9","primitives":[{"attributes":{"POSITION":21,"TEXCOORD_0":22},"indices":23,"material":9,"mode":4}]},{"name":"mesh10","primitives":[{"attributes":{"POSITION":24},"indices":25,"material":10,"mode":4}]},{"name":"mesh11","primitives":[{"attributes":{"POSITION":26},"indices":27,"material":11,"mode":4}]}],"nodes":[{"mesh":0,"name":"mesh0"},{"mesh":1,"name":"mesh1"},{"mesh":2,"name":"mesh2"},{"mesh":3,"name":"mesh3"},{"mesh":4,"name":"mesh4"},{"mesh":5,"name":"mesh5"},{"mesh":6,"name":"mesh6"},{"mesh":7,"name":"mesh7"},{"mesh":8,"name":"mesh8"},{"mesh":9,"name":"mesh9"},{"mesh":10,"name":"mesh10"},{"mesh":11,"name":"mesh11"},{"camera":0,"matrix":[0.7071067811865476,-0.7071067811865476,1.3163025823474793e-18,-0.0,0.16987489334070155,0.16987489334070155,0.9707136762325804,0.0,-0.6863982230545803,-0.6863982230545803,0.2402393780691031,-0.0,-14.572850516258173,-18.678331876365835,7.000966158110869,1.0],"name":"Camera Node"},{"children":[0,1,2,3,4,5,6,7,8,9,10,11,12],"name":"Renderer Node"}],"scene":0,"scenes":[{"name":"Layer 0","nodes":[13]}]}