{"accessors":[{"bufferView":0,"byteOffset":0,"componentType":5126,"count":303,"max":[6.355735778808594,7.0,1.3437913656234741],"min":[4.447000026702881,0.0,1.1006158590316772],"type":"VEC3"},{"bufferView":1,"byteOffset":0,"componentType":5125,"count":1212,"type":"SCALAR"},{"bufferView":2,"byteOffset":0,"componentType":5126,"count":303,"max":[6.355735778808594,-0.0,1.3437913656234741],"min":[4.447000026702881,-7.0,1.1006158590316772],"type":"VEC3"},{"bufferView":3,"byteOffset":0,"componentType":5125,"count":1212,"type":"SCALAR"},{"bufferView":4,"byteOffset":0,"componentType":5126,"count":202,"max":[11.715999603271484,2.819999933242798,0.4815142750740051],"min":[10.366000175476074,0.0,0.3464857339859009],"type":"VEC3"},{"bufferView":5,"byteOffset":0,"componentType":5125,"count":606,"type":"SCALAR"},{"bufferView":6,"byteOffset":0,"componentType":5126,"count":202,"max":[11.715999603271484,-0.0,0.4815142750740051],"min":[10.366000175476074,-2.819999933242798,0.3464857339859009],"type":"VEC3"},{"bufferView":7,"byteOffset":0,"componentType":5125,"count":606,"type":"SCALAR"},{"bufferView":8,"byteOffset":0,"componentType":5126,"count":404,"max":[12.039374351501465,0.14458054304122925,3.122999906539917],"min":[8.800000190734863,-0.14458054304122925,0.6230000257492065],"type":"VEC3"},{"bufferView":9,"byteOffset":0,"componentType":5125,"count":1818,"type":"SCALAR"},{"bufferView":10,"byteOffset":0,"componentType":5126,"count":960,"max":[11.800000190734863,0.7874000072479248,1.228020191192627],"min":[0.0,-0.7871129512786865,-0.485800176858902],"type":"VEC3"},{"bufferView":11,"byteOffset":0,"componentType":5125,"count":4560,"type":"SCALAR"},{"bufferView":12,"byteOffset":0,"componentType":5126,"count":576,"max":[6.0,2.700000047683716,1.5846025943756104],"min":[3.0,1.800246000289917,0.8574021458625793],"type":"VEC3"},{"bufferView":13,"byteOffset":0,"componentType":5125,"count":2280,"type":"SCALAR"},{"bufferView":14,"byteOffset":0,"componentType":5126,"count":2020,"max":[3.4266364574432373,2.309356927871704,2.2362000942230225],"min":[3.2829627990722656,2.184490442276001,1.4040000438690186],"type":"VEC3"},{"bufferView":15,"byteOffset":0,"componentType":5125,"count":11514,"type":"SCALAR"},{"bufferView":16,"byteOffset":0,"componentType":5126,"count":2020,"max":[3.4266364574432373,2.0596868991851807,1.0744047164916992],"min":[3.2829627990722656,1.3016571998596191,0.6062135696411133],"type":"VEC3"},{"bufferView":17,"byteOffset":0,"componentType":5125,"count":11514,"type":"SCALAR"},{"bufferView":18,"byteOffset":0,"componentType":5126,"count":2020,"max":[3.4266364574432373,3.191073179244995,1.0743680000305176],"min":[3.2829627990722656,2.4402918815612793,0.593622088432312],"type":"VEC3"},{"bufferView":19,"byteOffset":0,"componentType":5125,"count":11514,"type":"SCALAR"},{"bufferView":20,"byteOffset":0,"componentType":5126,"count":576,"max":[6.0,-1.7999999523162842,1.5846025943756104],"min":[3.0,-2.699753999710083,0.8574021458625793],"type":"VEC3"},{"bufferView":21,"byteOffset":0,"componentType":5125,"count":2280,"type":"SCALAR"},{"bufferView":22,"byteOffset":0,"componentType":5126,"count":2020,"max":[3.4266364574432373,-2.190643072128296,2.2362000942230225],"min":[3.2829627990722656,-2.315509557723999,1.4040000438690186],"type":"VEC3"},{"bufferView":23,"byteOffset":0,"componentType":5125,"count":11514,"type":"SCALAR"},{"bufferView":24,"byteOffset":0,"componentType":5126,"count":2020,"max":[3.4266364574432373,-2.4403131008148193,1.0744047164916992],"min":[3.2829627990722656,-3.198342800140381,0.6062135696411133],"type":"VEC3"},{"bufferView":25,"byteOffset":0,"componentType":5125,"count":11514,"type":"SCALAR"},{"bufferView":26,"byteOffset":0,"componentType":5126,"count":2020,"max":[3.4266364574432373,-1.3089269399642944,1.0743680000305176],"min":[3.2829627990722656,-2.0597081184387207,0.593622088432312],"type":"VEC3"},{"bufferView":27,"byteOffset":0,"componentType":5125,"count":11514,"type":"SCALAR"}],"asset":{"generator":"VTK","version":"2.0"},"bufferViews":[{"buffer":0,"byteLength":3636,"byteOffset":0,"target":34962},{"buffer":1,"byteLength":4848,"byteOffset":0,"target":34963},{"buffer":2,"byteLength":3636,"byteOffset":0,"target":34962},{"buffer":3,"byteLength":4848,"byteOffset":0,"target":34963},{"buffer":4,"byteLength":2424,"byteOffset":0,"target":34962},{"buffer":5,"byteLength":2424,"byteOffset":0,"target":34963},{"buffer":6,"byteLength":2424,"byteOffset":0,"target":34962},{"buffer":7,"byteLength":2424,"byteOffset":0,"target":34963},{"buffer":8,"byteLength":4848,"byteOffset":0,"target":34962},{"buffer":9,"byteLength":7272,"byteOffset":0,"target":34963},{"buffer":10,"byteLength":11520,"byteOffset":0,"target":34962},{"buffer":11,"byteLength":18240,"byteOffset":0,"target":34963},{"buffer":12,"byteLength":6912,"byteOffset":0,"target":34962},{"buffer":13,"byteLength":9120,"byteOffset":0,"target":34963},{"buffer":14,"byteLength":24240,"byteOffset":0,"target":34962},{"buffer":15,"byteLength":46056,"byteOffset":0,"target":34963},{"buffer":16,"byteLength":24240,"byteOffset":0,"target":34962},{"buffer":17,"byteLength":46056,"byteOffset":0,"target":34963},{"buffer":18,"byteLength":24240,"byteOffset":0,"target":34962},{"buffer":19,"byteLength":46056,"byteOffset":0,"target":34963},{"buffer":20,"byteLength":6912,"byteOffset":0,"target":34962},{"buffer":21,"byteLength":9120,"byteOffset":0,"target":34963},{"buffer":22,"byteLength":24240,"byteOffset":0,"target":34962},{"buffer":23,"byteLength":46056,"byteOffset":0,"target":34963},{"buffer":24,"byteLength":24240,"byteOffset":0,"target":34962},{"buffer":25,"byteLength":46056,"byteOffset":0,"target":34963},{"buffer":26,"byteLength":24240,"byteOffset":0,"target":34962},{"buffer":27,"byteLength":46056,"byteOffset":0,"target":34963}],"buffers":[{"byteLength":3636,"uri":"data:application/octet-stream;base64,"},{"byteLength":4848,"uri":"data:application/octet-stream;base64,"},{"byteLength":3636,"uri":"data:application/octet-stream;base64,"},{"byteLength":4848,"uri":"data:application/octet-stream;base64,"},{"byteLength":2424,"uri":"data:application/octet-stream;base64,"},{"byteLength":2424,"uri":"data:application/octet-stream;base64,"},{"byteLength":2424,"uri":"data:application/octet-stream;base64,"},{"byteLength":2424,"uri":"data:application/octet-stream;base64,"},{"byteLength":4848,"uri":"data:application/octet-stream;base64,"},{"byteLength":7272,"uri":"data:application/octet-stream;base64,"},{"byteLength":11520,"uri":"data:application/octet-stream;base64,"},{"byteLength":18240,"uri":"data:application/octet-stream;base64,"},{"byteLength":6912,"uri":"data:application/octet-stream;base64,"},{"byteLength":9120,"uri":"data:application/octet-stream;base64,"},{"byteLength":24240,"uri":"data:application/octet-stream;base64,"},{"byteLength":46056,"uri":"data:application/octet-stream;base64,"},{"byteLength":24240,"uri":"data:application/octet-stream;base64,"},{"byteLength":46056,"uri":"data:application/octet-stream;base64,"},{"byteLength":24240,"uri":"data:application/octet-stream;base64,"},{"byteLength":46056,"uri":"data:application/octet-stream;base64,"},{"byteLength":6912,"uri":"data:application/octet-stream;base64,"},{"byteLength":9120,"uri":"data:application/octet-stream;base64,"},{"byteLength":24240,"uri":"data:application/octet-stream;base64,"},{"byteLength":46056,"uri":"data:application/octet-stream;base64,"},{"byteLength":24240,"uri":"data:application/octet-stream;base64,"},{"byteLength":46056,"uri":"data:application/octet-stream;base64,"},{"byteLength":24240,"uri":"data:application/octet-stream;base64,"},{"byteLength":46056,"uri":"data:application/octet-stream;base64,"}],"cameras":[{"perspective":{"aspectRatio":1.0,"yfov":0.5235987755982988,"zfar":60.36351692045207,"znear":17.335915665035284},"type":"perspective"}],"materials":[{"pbrMetallicRoughness":{"baseColorFactor":[0.5019607843137255,0.5019607843137255,0.5019607843137255,0.5],"metallicFactor":0.0,"roughnessFactor":1.0}},{"pbrMetallicRoughness":{"baseColorFactor":[0.5019607843137255,0.5019607843137255,0.5019607843137255,0.5],"metallicFactor":0.0,"roughnessFactor":1.0}},{"pbrMetallicRoughness":{"baseColorFactor":[0.5019607843137255,0.5019607843137255,0.5019607843137255,0.5],"metallicFactor":0.0,"roughnessFactor":1.0}},{"pbrMetallicRoughness":{"baseColorFactor":[0.5019607843137255,0.5019607843137255,0.5019607843137255,0.5],"metallicFactor":0.0,"roughnessFactor":1.0}},{"pbrMetallicRoughness":{"baseColorFactor":[0.5019607843137255,0.5019607843137255,0.5019607843137255,0.5],"metallicFactor":0.0,"roughnessFactor":1.0}},{"pbrMetallicRoughness":{"baseColorFactor":[0.5019607843137255,0.5019607843137255,0.5019607843137255,0.5],"metallicFactor":0.0,"roughnessFactor":1.0}},{"pbrMetallicRoughness":{"baseColorFactor":[0.5019607843137255,0.5019607843137255,0.5019607843137255,1.0],"metallicFactor":0.0,"roughnessFactor":1.0}},{"pbrMetallicRoughness":{"baseColorFactor":[0.0,0.0,0.0,0.6],"metallicFactor":0.0,"roughnessFactor":1.0}},{"pbrMetallicRoughness":{"baseColorFactor":[0.0,0.0,0.0,0.6],"metallicFactor":0.0,"roughnessFactor":1.0}},{"pbrMetallicRoughness":{"baseColorFactor":[0.0,0.0,0.0,0.6],"metallicFactor":0.0,"roughnessFactor":1.0}},{"pbrMetallicRoughness":{"baseColorFactor":[0.5019607843137255,0.5019607843137255,0.5019607843137255,1.0],"metallicFactor":0.0,"roughnessFactor":1.0}},{"pbrMetallicRoughness":{"baseColorFactor":[0.0,0.0,0.0,0.6],"metallicFactor":0.0,"roughnessFactor":1.0}},{"pbrMetallicRoughness":{"baseColorFactor":[0.0,0.0,0.0,0.6],"metallicFactor":0.0,"roughnessFactor":1.0}},{"pbrMetallicRoughness":{"baseColorFactor":[0.0,0.0,0.0,0.6],"metallicFactor":0.0,"roughnessFactor":1.0}}],"meshes":[{"name":"mesh0","primitives":[{"attributes":{"POSITION":0},"indices":1,"material":0,"mode":4}]},{"name":"mesh1","primitives":[{"attributes":{"POSITION":2},"indices":3,"material":1,"mode":4}]},{"name":"mesh2","primitives":[{"attributes":{"POSITION":4},"indices":5,"material":2,"mode":4}]},{"name":"mesh3","primitives":[{"attributes":{"POSITION":6},"indices":7,"material":3,"mode":4}]},{"name":"mesh4","primitives":[{"attributes":{"POSITION":8},"indices":9,"material":4,"mode":4}]},{"name":"mesh5","primitives":[{"attributes":{"POSITION":10},"indices":11,"material":5,"mode":4}]},{"name":"mesh6","primitives":[{"attributes":{"POSITION":12},"indices":13,"material":6,"mode":4}]},{"name":"mesh7","primitives":[{"attributes":{"POSITION":14},"indices":15,"material":7,"mode":4}]},{"name":"mesh8","primitives":[{"attributes":{"POSITION":16},"indices":17,"material":8,"mode":4}]},{"name":"mesh9","primitives":[{"attributes":{"POSITION":18},"indices":19,"material":9,"mode":4}]},{"name":"mesh10","primitives":[{"attributes":{"POSITION":20},"indices":21,"material":10,"mode":4}]},{"name":"mesh11","primitives":[{"attributes":{"POSITION":22},"indices":23,"material":11,"mode":4}]},{"name":"mesh12","primitives":[{"attributes":{"POSITION":24},"indices":25,"material":12,"mode":4}]},{"name":"mesh13","primitives":[{"attributes":{"POSITION":26},"indices":27,"material":13,"mode":4}]}],"nodes":[{"mesh":0,"name":"mesh0"},{"mesh":1,"name":"mesh1"},{"mesh":2,"name":"mesh2"},{"mesh":3,"name":"mesh3"},{"mesh":4,"name":"mesh4"},{"mesh":5,"name":"mesh5"},{"mesh":6,"name":"mesh6"},{"mesh":7,"name":"mesh7"},{"mesh":8,"name":"mesh8"},{"mesh":9,"name":"mesh9"},{"mesh":10,"name":"mesh10"},{"mesh":11,"name":"mesh11"},{"mesh":12,"name":"mesh12"},{"mesh":13,"name":"mesh13"},{"camera":0,"matrix":[0.7071067811865476,-0.7071067811865476,1.3163025823474793e-18,-0.0,0.16987489334070155,0.16987489334070155,0.9707136762325804,0.0,-0.6863982230545803,-0.6863982230545803,0.2402393780691031,-0.0,-18.928163478240506,-24.94785065399124,10.050347593737442,1.0],"name":"Camera Node"},{"children":[0,1,2,3,4,5,6,7,8,9,10,11,12,13,14],"name":"Renderer Node"}],"scene":0,"scenes":[{"name":"Layer 0","nodes":[15]}]}