{"accessors":[{"bufferView":0,"byteOffset":0,"componentType":5126,"count":303,"max":[14.227560997009277,13.5600004196167,2.1713507175445557],"min":[11.52756118774414,0.0,1.8472821712493896],"type":"VEC3"},{"bufferView":1,"byteOffset":0,"componentType":5125,"count":1212,"type":"SCALAR"},{"bufferView":2,"byteOffset":0,"componentType":5126,"count":303,"max":[14.227560997009277,-0.0,2.1713507175445557],"min":[11.52756118774414,-13.5600004196167,1.8472821712493896],"type":"VEC3"},{"bufferView":3,"byteOffset":0,"componentType":5125,"count":1212,"type":"SCALAR"},{"bufferView":4,"byteOffset":0,"componentType":5126,"count":202,"max":[27.5788516998291,3.609999895095825,5.601086616516113],"min":[25.505088806152344,0.0,5.328476905822754],"type":"VEC3"},{"bufferView":5,"byteOffset":0,"componentType":5125,"count":606,"type":"SCALAR"},{"bufferView":6,"byteOffset":0,"componentType":5126,"count":202,"max":[27.5788516998291,-0.0,5.601086616516113],"min":[25.505088806152344,-3.609999895095825,5.328476905822754],"type":"VEC3"},{"bufferView":7,"byteOffset":0,"componentType":5125,"count":606,"type":"SCALAR"},{"bufferView":8,"byteOffset":0,"componentType":5126,"count":505,"max":[27.678646087646484,0.5251109600067139,5.800000190734863],"min":[17.348072052001953,-0.5251109600067139,1.2999999523162842],"type":"VEC3"},{"bufferView":9,"byteOffset":0,"componentType":5125,"count":2424,"type":"SCALAR"},{"bufferView":10,"byteOffset":0,"componentType":5126,"count":1344,"max":[27.1200008392334,1.4925469160079956,2.065692186355591],"min":[0.0,-1.491730809211731,-0.8763790130615234],"type":"VEC3"},{"bufferView":11,"byteOffset":0,"componentType":5125,"count":7125,"type":"SCALAR"},{"bufferView":12,"byteOffset":0,"componentType":5126,"count":24,"max":[3.7780001163482666,1.4223999977111816,0.45719999074935913],"min":[2.9651999473571777,0.9652000069618225,0.0],"type":"VEC3"},{"bufferView":13,"byteOffset":0,"componentType":5126,"count":24,"normalized":false,"type":"VEC2"},{"bufferView":14,"byteOffset":0,"componentType":5125,"count":36,"type":"SCALAR"},{"bufferView":15,"byteOffset":0,"componentType":5126,"count":24,"max":[3.7780001163482666,-0.9652000069618225,0.45719999074935913],"min":[2.9651999473571777,-1.4223999977111816,0.0],"type":"VEC3"},{"bufferView":16,"byteOffset":0,"componentType":5126,"count":24,"normalized":false,"type":"VEC2"},{"bufferView":17,"byteOffset":0,"componentType":5125,"count":36,"type":"SCALAR"},{"bufferView":18,"byteOffset":0,"componentType":5126,"count":24,"max":[3.7780001163482666,0.9143999814987183,0.45719999074935913],"min":[2.9651999473571777,0.45719999074935913,0.0],"type":"VEC3"},{"bufferView":19,"byteOffset":0,"componentType":5126,"count":24,"normalized":false,"type":"VEC2"},{"bufferView":20,"byteOffset":0,"componentType":5125,"count":36,"type":"SCALAR"},{"bufferView":21,"byteOffset":0,"componentType":5126,"count":24,"max":[3.7780001163482666,-0.45719999074935913,0.45719999074935913],"min":[2.9651999473571777,-0.9143999814987183,0.0],"type":"VEC3"},{"bufferView":22,"byteOffset":0,"componentType":5126,"count":24,"normalized":false,"type":"VEC2"},{"bufferView":23,"byteOffset":0,"componentType":5125,"count":36,"type":"SCALAR"},{"bufferView":24,"byteOffset":0,"componentType":5126,"count":24,"max":[4.819399833679199,1.4223999977111816,0.45719999074935913],"min":[4.362199783325195,0.9652000069618225,0.0],"type":"VEC3"},{"bufferView":25,"byteOffset":0,"componentType":5126,"count":24,"normalized":false,"type":"VEC2"},{"bufferView":26,"byteOffset":0,"componentType":5125,"count":36,"type":"SCALAR"},{"bufferView":27,"byteOffset":0,"componentType":5126,"count":24,"max":[4.819399833679199,-0.9652000069618225,0.45719999074935913],"min":[4.362199783325195,-1.4223999977111816,0.0],"type":"VEC3"},{"bufferView":28,"byteOffset":0,"componentType":5126,"count":24,"normalized":false,"type":"VEC2"},{"bufferView":29,"byteOffset":0,"componentType":5125,"count":36,"type":"SCALAR"},{"bufferView":30,"byteOffset":0,"componentType":5126,"count":24,"max":[4.819399833679199,0.9143999814987183,0.45719999074935913],"min":[4.362199783325195,0.45719999074935913,0.0],"type":"VEC3"},{"bufferView":31,"byteOffset":0,"componentType":5126,"count":24,"normalized":false,"type":"VEC2"},{"bufferView":32,"byteOffset":0,"componentType":5125,"count":36,"type":"SCALAR"},{"bufferView":33,"byteOffset":0,"componentType":5126,"count":24,"max":[4.819399833679199,-0.45719999074935913,0.45719999074935913],"min":[4.362199783325195,-0.9143999814987183,0.0],"type":"VEC3"},{"bufferView":34,"byteOffset":0,"componentType":5126,"count":24,"normalized":false,"type":"VEC2"},{"bufferView":35,"byteOffset":0,"componentType":5125,"count":36,"type":"SCALAR"},{"bufferView":36,"byteOffset":0,"componentType":5126,"count":24,"max":[5.632199764251709,1.4223999977111816,0.45719999074935913],"min":[5.175000190734863,0.9652000069618225,0.0],"type":"VEC3"},{"bufferView":37,"byteOffset":0,"componentType":5126,"count":24,"normalized":false,"type":"VEC2"},{"bufferView":38,"byteOffset":0,"componentType":5125,"count":36,"type":"SCALAR"},{"bufferView":39,"byteOffset":0,"componentType":5126,"count":24,"max":[5.632199764251709,-0.9652000069618225,0.45719999074935913],"min":[5.175000190734863,-1.4223999977111816,0.0],"type":"VEC3"},{"bufferView":40,"byteOffset":0,"componentType":5126,"count":24,"normalized":false,"type":"VEC2"},{"bufferView":41,"byteOffset":0,"componentType":5125,"count":36,"type":"SCALAR"},{"bufferView":42,"byteOffset":0,"componentType":5126,"count":24,"max":[5.632199764251709,0.9143999814987183,0.45719999074935913],"min":[5.175000190734863,0.45719999074935913,0.0],"type":"VEC3"},{"bufferView":43,"byteOffset":0,"componentType":5126,"count":24,"normalized":false,"type":"VEC2"},{"bufferView":44,"byteOffset":0,"componentType":5125,"count":36,"type":"SCALAR"},{"bufferView":45,"byteOffset":0,"componentType":5126,"count":24,"max":[5.632199764251709,-0.45719999074935913,0.45719999074935913],"min":[5.175000190734863,-0.9143999814987183,0.0],"type":"VEC3"},{"bufferView":46,"byteOffset":0,"componentType":5126,"count":24,"normalized":false,"type":"VEC2"},{"bufferView":47,"byteOffset":0,"componentType":5125,"count":36,"type":"SCALAR"},{"bufferView":48,"byteOffset":0,"componentType":5126,"count":24,"max":[6.445000171661377,1.4223999977111816,0.45719999074935913],"min":[5.987800121307373,0.9652000069618225,0.0],"type":"VEC3"},{"bufferView":49,"byteOffset":0,"componentType":5126,"count":24,"normalized":false,"type":"VEC2"},{"bufferView":50,"byteOffset":0,"componentType":5125,"count":36,"type":"SCALAR"},{"bufferView":51,"byteOffset":0,"componentType":5126,"count":24,"max":[6.445000171661377,-0.9652000069618225,0.45719999074935913],"min":[5.987800121307373,-1.4223999977111816,0.0],"type":"VEC3"},{"bufferView":52,"byteOffset":0,"componentType":5126,"count":24,"normalized":false,"type":"VEC2"},{"bufferView":53,"byteOffset":0,"componentType":5125,"count":36,"type":"SCALAR"},{"bufferView":54,"byteOffset":0,"componentType":5126,"count":24,"max":[6.445000171661377,0.9143999814987183,0.45719999074935913],"min":[5.987800121307373,0.45719999074935913,0.0],"type":"VEC3"},{"bufferView":55,"byteOffset":0,"componentType":5126,"count":24,"normalized":false,"type":"VEC2"},{"bufferView":56,"byteOffset":0,"componentType":5125,"count":36,"type":"SCALAR"},{"bufferView":57,"byteOffset":0,"componentType":5126,"count":24,"max":[6.445000171661377,-0.45719999074935913,0.45719999074935913],"min":[5.987800121307373,-0.9143999814987183,0.0],"type":"VEC3"},{"bufferView":58,"byteOffset":0,"componentType":5126,"count":24,"normalized":false,"type":"VEC2"},{"bufferView":59,"byteOffset":0,"componentType":5125,"count":36,"type":"SCALAR"},{"bufferView":60,"byteOffset":0,"componentType":5126,"count":24,"max":[7.257800102233887,1.4223999977111816,0.45719999074935913],"min":[6.800600051879883,0.9652000069618225,0.0],"type":"VEC3"},{"bufferView":61,"byteOffset":0,"componentType":5126,"count":24,"normalized":false,"type":"VEC2"},{"bufferView":62,"byteOffset":0,"componentType":5125,"count":36,"type":"SCALAR"},{"bufferView":63,"byteOffset":0,"componentType":5126,"count":24,"max":[7.257800102233887,-0.9652000069618225,0.45719999074935913],"min":[6.800600051879883,-1.4223999977111816,0.0],"type":"VEC3"},{"bufferView":64,"byteOffset":0,"componentType":5126,"count":24,"normalized":false,"type":"VEC2"},{"bufferView":65,"byteOffset":0,"componentType":5125,"count":36,"type":"SCALAR"},{"bufferView":66,"byteOffset":0,"componentType":5126,"count":24,"max":[7.257800102233887,0.9143999814987183,0.45719999074935913],"min":[6.800600051879883,0.45719999074935913,0.0],"type":"VEC3"},{"bufferView":67,"byteOffset":0,"componentType":5126,"count":24,"normalized":false,"type":"VEC2"},{"bufferView":68,"byteOffset":0,"componentType":5125,"count":36,"type":"SCALAR"},{"bufferView":69,"byteOffset":0,"componentType":5126,"count":24,"max":[7.257800102233887,-0.45719999074935913,0.45719999074935913],"min":[6.800600051879883,-0.9143999814987183,0.0],"type":"VEC3"},{"bufferView":70,"byteOffset":0,"componentType":5126,"count":24,"normalized":false,"type":"VEC2"},{"bufferView":71,"byteOffset":0,"componentType":5125,"count":36,"type":"SCALAR"},{"bufferView":72,"byteOffset":0,"componentType":5126,"count":24,"max":[8.070599555969238,1.4223999977111816,0.45719999074935913],"min":[7.613399982452393,0.9652000069618225,0.0],"type":"VEC3"},{"bufferView":73,"byteOffset":0,"componentType":5126,"count":24,"normalized":false,"type":"VEC2"},{"bufferView":74,"byteOffset":0,"componentType":5125,"count":36,"type":"SCALAR"},{"bufferView":75,"byteOffset":0,"componentType":5126,"count":24,"max":[8.070599555969238,-0.9652000069618225,0.45719999074935913],"min":[7.613399982452393,-1.4223999977111816,0.0],"type":"VEC3"},{"bufferView":76,"byteOffset":0,"componentType":5126,"count":24,"normalized":false,"type":"VEC2"},{"bufferView":77,"byteOffset":0,"componentType":5125,"count":36,"type":"SCALAR"},{"bufferView":78,"byteOffset":0,"componentType":5126,"count":24,"max":[8.070599555969238,0.9143999814987183,0.45719999074935913],"min":[7.613399982452393,0.45719999074935913,0.0],"type":"VEC3"},{"bufferView":79,"byteOffset":0,"componentType":5126,"count":24,"normalized":false,"type":"VEC2"},{"bufferView":80,"byteOffset":0,"componentType":5125,"count":36,"type":"SCALAR"},{"bufferView":81,"byteOffset":0,"componentType":5126,"count":24,"max":[8.070599555969238,-0.45719999074935913,0.45719999074935913],"min":[7.613399982452393,-0.9143999814987183,0.0],"type":"VEC3"},{"bufferView":82,"byteOffset":0,"componentType":5126,"count":24,"normalized":false,"type":"VEC2"},{"bufferView":83,"byteOffset":0,"componentType":5125,"count":36,"type":"SCALAR"},{"bufferView":84,"byteOffset":0,"componentType":5126,"count":24,"max":[8.883399963378906,1.4223999977111816,0.45719999074935913],"min":[8.426199913024902,0.9652000069618225,0.0],"type":"VEC3"},{"bufferView":85,"byteOffset":0,"componentType":5126,"count":24,"normalized":false,"type":"VEC2"},{"bufferView":86,"byteOffset":0,"componentType":5125,"count":36,"type":"SCALAR"},{"bufferView":87,"byteOffset":0,"componentType":5126,"count":24,"max":[8.883399963378906,-0.9652000069618225,0.45719999074935913],"min":[8.426199913024902,-1.4223999977111816,0.0],"type":"VEC3"},{"bufferView":88,"byteOffset":0,"componentType":5126,"count":24,"normalized":false,"type":"VEC2"},{"bufferView":89,"byteOffset":0,"componentType":5125,"count":36,"type":"SCALAR"},{"bufferView":90,"byteOffset":0,"componentType":5126,"count":24,"max":[8.883399963378906,0.9143999814987183,0.45719999074935913],"min":[8.426199913024902,0.45719999074935913,0.0],"type":"VEC3"},{"bufferView":91,"byteOffset":0,"componentType":5126,"count":24,"normalized":false,"type":"VEC2"},{"bufferView":92,"byteOffset":0,"componentType":5125,"count":36,"type":"SCALAR"},{"bufferView":93,"byteOffset":0,"componentType":5126,"count":24,"max":[8.883399963378906,-0.45719999074935913,0.45719999074935913],"min":[8.426199913024902,-0.9143999814987183,0.0],"type":"VEC3"},{"bufferView":94,"byteOffset":0,"componentType":5126,"count":24,"normalized":false,"type":"VEC2"},{"bufferView":95,"byteOffset":0,"componentType":5125,"count":36,"type":"SCALAR"},{"bufferView":96,"byteOffset":0,"componentType":5126,"count":24,"max":[9.696200370788574,1.4223999977111816,0.45719999074935913],"min":[9.23900032043457,0.9652000069618225,0.0],"type":"VEC3"},{"bufferView":97,"byteOffset":0,"componentType":5126,"count":24,"normalized":false,"type":"VEC2"},{"bufferView":98,"byteOffset":0,"componentType":5125,"count":36,"type":"SCALAR"},{"bufferView":99,"byteOffset":0,"componentType":5126,"count":24,"max":[9.696200370788574,-0.9652000069618225,0.45719999074935913],"min":[9.23900032043457,-1.4223999977111816,0.0],"type":"VEC3"},{"bufferView":100,"byteOffset":0,"componentType":5126,"count":24,"normalized":false,"type":"VEC2"},{"bufferView":101,"byteOffset":0,"componentType":5125,"count":36,"type":"SCALAR"},{"bufferView":102,"byteOffset":0,"componentType":5126,"count":24,"max":[9.696200370788574,0.9143999814987183,0.45719999074935913],"min":[9.23900032043457,0.45719999074935913,0.0],"type":"VEC3"},{"bufferView":103,"byteOffset":0,"componentType":5126,"count":24,"normalized":false,"type":"VEC2"},{"bufferView":104,"byteOffset":0,"componentType":5125,"count":36,"type":"SCALAR"},{"bufferView":105,"byteOffset":0,"componentType":5126,"count":24,"max":[9.696200370788574,-0.45719999074935913,0.45719999074935913],"min":[9.23900032043457,-0.9143999814987183,0.0],"type":"VEC3"},{"bufferView":106,"byteOffset":0,"componentType":5126,"count":24,"normalized":false,"type":"VEC2"},{"bufferView":107,"byteOffset":0,"componentType":5125,"count":36,"type":"SCALAR"},{"bufferView":108,"byteOffset":0,"componentType":5126,"count":24,"max":[10.508999824523926,1.4223999977111816,0.45719999074935913],"min":[10.051799774169922,0.9652000069618225,0.0],"type":"VEC3"},{"bufferView":109,"byteOffset":0,"componentType":5126,"count":24,"normalized":false,"type":"VEC2"},{"bufferView":110,"byteOffset":0,"componentType":5125,"count":36,"type":"SCALAR"},{"bufferView":111,"byteOffset":0,"componentType":5126,"count":24,"max":[10.508999824523926,-0.9652000069618225,0.45719999074935913],"min":[10.051799774169922,-1.4223999977111816,0.0],"type":"VEC3"},{"bufferView":112,"byteOffset":0,"componentType":5126,"count":24,"normalized":false,"type":"VEC2"},{"bufferView":113,"byteOffset":0,"componentType":5125,"count":36,"type":"SCALAR"},{"bufferView":114,"byteOffset":0,"componentType":5126,"count":24,"max":[10.508999824523926,0.9143999814987183,0.45719999074935913],"min":[10.051799774169922,0.45719999074935913,0.0],"type":"VEC3"},{"bufferView":115,"byteOffset":0,"componentType":5126,"count":24,"normalized":false,"type":"VEC2"},{"bufferView":116,"byteOffset":0,"componentType":5125,"count":36,"type":"SCALAR"},{"bufferView":117,"byteOffset":0,"componentType":5126,"count":24,"max":[10.508999824523926,-0.45719999074935913,0.45719999074935913],"min":[10.051799774169922,-0.9143999814987183,0.0],"type":"VEC3"},{"bufferView":118,"byteOffset":0,"componentType":5126,"count":24,"normalized":false,"type":"VEC2"},{"bufferView":119,"byteOffset":0,"componentType":5125,"count":36,"type":"SCALAR"},{"bufferView":120,"byteOffset":0,"componentType":5126,"count":24,"max":[11.321800231933594,1.4223999977111816,0.45719999074935913],"min":[10.86460018157959,0.9652000069618225,0.0],"type":"VEC3"},{"bufferView":121,"byteOffset":0,"componentType":5126,"count":24,"normalized":false,"type":"VEC2"},{"bufferView":122,"byteOffset":0,"componentType":5125,"count":36,"type":"SCALAR"},{"bufferView":123,"byteOffset":0,"componentType":5126,"count":24,"max":[11.321800231933594,-0.9652000069618225,0.45719999074935913],"min":[10.86460018157959,-1.4223999977111816,0.0],"type":"VEC3"},{"bufferView":124,"byteOffset":0,"componentType":5126,"count":24,"normalized":false,"type":"VEC2"},{"bufferView":125,"byteOffset":0,"componentType":5125,"count":36,"type":"SCALAR"},{"bufferView":126,"byteOffset":0,"componentType":5126,"count":24,"max":[11.321800231933594,0.9143999814987183,0.45719999074935913],"min":[10.86460018157959,0.45719999074935913,0.0],"type":"VEC3"},{"bufferView":127,"byteOffset":0,"componentType":5126,"count":24,"normalized":false,"type":"VEC2"},{"bufferView":128,"byteOffset":0,"componentType":5125,"count":36,"type":"SCALAR"},{"bufferView":129,"byteOffset":0,"componentType":5126,"count":24,"max":[11.321800231933594,-0.45719999074935913,0.45719999074935913],"min":[10.86460018157959,-0.9143999814987183,0.0],"type":"VEC3"},{"bufferView":130,"byteOffset":0,"componentType":5126,"count":24,"normalized":false,"type":"VEC2"},{"bufferView":131,"byteOffset":0,"componentType":5125,"count":36,"type":"SCALAR"},{"bufferView":132,"byteOffset":0,"componentType":5126,"count":24,"max":[12.134599685668945,1.4223999977111816,0.45719999074935913],"min":[11.677399635314941,0.9652000069618225,0.0],"type":"VEC3"},{"bufferView":133,"byteOffset":0,"componentType":5126,"count":24,"normalized":false,"type":"VEC2"},{"bufferView":134,"byteOffset":0,"componentType":5125,"count":36,"type":"SCALAR"},{"bufferView":135,"byteOffset":0,"componentType":5126,"count":24,"max":[12.134599685668945,-0.9652000069618225,0.45719999074935913],"min":[11.677399635314941,-1.4223999977111816,0.0],"type":"VEC3"},{"bufferView":136,"byteOffset":0,"componentType":5126,"count":24,"normalized":false,"type":"VEC2"},{"bufferView":137,"byteOffset":0,"componentType":5125,"count":36,"type":"SCALAR"},{"bufferView":138,"byteOffset":0,"componentType":5126,"count":24,"max":[12.134599685668945,0.9143999814987183,0.45719999074935913],"min":[11.677399635314941,0.45719999074935913,0.0],"type":"VEC3"},{"bufferView":139,"byteOffset":0,"componentType":5126,"count":24,"normalized":false,"type":"VEC2"},{"bufferView":140,"byteOffset":0,"componentType":5125,"count":36,"type":"SCALAR"},{"bufferView":141,"byteOffset":0,"componentType":5126,"count":24,"max":[12.134599685668945,-0.45719999074935913,0.45719999074935913],"min":[11.677399635314941,-0.9143999814987183,0.0],"type":"VEC3"},{"bufferView":142,"byteOffset":0,"componentType":5126,"count":24,"normalized":false,"type":"VEC2"},{"bufferView":143,"byteOffset":0,"componentType":5125,"count":36,"type":"SCALAR"},{"bufferView":144,"byteOffset":0,"componentType":5126,"count":24,"max":[12.947400093078613,1.4223999977111816,0.45719999074935913],"min":[12.49020004272461,0.9652000069618225,0.0],"type":"VEC3"},{"bufferView":145,"byteOffset":0,"componentType":5126,"count":24,"normalized":false,"type":"VEC2"},{"bufferView":146,"byteOffset":0,"componentType":5125,"count":36,"type":"SCALAR"},{"bufferView":147,"byteOffset":0,"componentType":5126,"count":24,"max":[12.947400093078613,-0.9652000069618225,0.45719999074935913],"min":[12.49020004272461,-1.4223999977111816,0.0],"type":"VEC3"},{"bufferView":148,"byteOffset":0,"componentType":5126,"count":24,"normalized":false,"type":"VEC2"},{"bufferView":149,"byteOffset":0,"componentType":5125,"count":36,"type":"SCALAR"},{"bufferView":150,"byteOffset":0,"componentType":5126,"count":24,"max":[12.947400093078613,0.9143999814987183,0.45719999074935913],"min":[12.49020004272461,0.45719999074935913,0.0],"type":"VEC3"},{"bufferView":151,"byteOffset":0,"componentType":5126,"count":24,"normalized":false,"type":"VEC2"},{"bufferView":152,"byteOffset":0,"componentType":5125,"count":36,"type":"SCALAR"},{"bufferView":153,"byteOffset":0,"componentType":5126,"count":24,"max":[12.947400093078613,-0.45719999074935913,0.45719999074935913],"min":[12.49020004272461,-0.9143999814987183,0.0],"type":"VEC3"},{"bufferView":154,"byteOffset":0,"componentType":5126,"count":24,"normalized":false,"type":"VEC2"},{"bufferView":155,"byteOffset":0,"componentType":5125,"count":36,"type":"SCALAR"},{"bufferView":156,"byteOffset":0,"componentType":5126,"count":24,"max":[13.760199546813965,1.4223999977111816,0.45719999074935913],"min":[13.303000450134277,0.9652000069618225,0.0],"type":"VEC3"},{"bufferView":157,"byteOffset":0,"componentType":5126,"count":24,"normalized":false,"type":"VEC2"},{"bufferView":158,"byteOffset":0,"componentType":5125,"count":36,"type":"SCALAR"},{"bufferView":159,"byteOffset":0,"componentType":5126,"count":24,"max":[13.760199546813965,-0.9652000069618225,0.45719999074935913],"min":[13.303000450134277,-1.4223999977111816,0.0],"type":"VEC3"},{"bufferView":160,"byteOffset":0,"componentType":5126,"count":24,"normalized":false,"type":"VEC2"},{"bufferView":161,"byteOffset":0,"componentType":5125,"count":36,"type":"SCALAR"},{"bufferView":162,"byteOffset":0,"componentType":5126,"count":24,"max":[13.760199546813965,0.9143999814987183,0.45719999074935913],"min":[13.303000450134277,0.45719999074935913,0.0],"type":"VEC3"},{"bufferView":163,"byteOffset":0,"componentType":5126,"count":24,"normalized":false,"type":"VEC2"},{"bufferView":164,"byteOffset":0,"componentType":5125,"count":36,"type":"SCALAR"},{"bufferView":165,"byteOffset":0,"componentType":5126,"count":24,"max":[13.760199546813965,-0.45719999074935913,0.45719999074935913],"min":[13.303000450134277,-0.9143999814987183,0.0],"type":"VEC3"},{"bufferView":166,"byteOffset":0,"componentType":5126,"count":24,"normalized":false,"type":"VEC2"},{"bufferView":167,"byteOffset":0,"componentType":5125,"count":36,"type":"SCALAR"},{"bufferView":168,"byteOffset":0,"componentType":5126,"count":24,"max":[14.572999954223633,1.4223999977111816,0.45719999074935913],"min":[14.115799903869629,0.9652000069618225,0.0],"type":"VEC3"},{"bufferView":169,"byteOffset":0,"componentType":5126,"count":24,"normalized":false,"type":"VEC2"},{"bufferView":170,"byteOffset":0,"componentType":5125,"count":36,"type":"SCALAR"},{"bufferView":171,"byteOffset":0,"componentType":5126,"count":24,"max":[14.572999954223633,-0.9652000069618225,0.45719999074935913],"min":[14.115799903869629,-1.4223999977111816,0.0],"type":"VEC3"},{"bufferView":172,"byteOffset":0,"componentType":5126,"count":24,"normalized":false,"type":"VEC2"},{"bufferView":173,"byteOffset":0,"componentType":5125,"count":36,"type":"SCALAR"},{"bufferView":174,"byteOffset":0,"componentType":5126,"count":24,"max":[14.572999954223633,0.9143999814987183,0.45719999074935913],"min":[14.115799903869629,0.45719999074935913,0.0],"type":"VEC3"},{"bufferView":175,"byteOffset":0,"componentType":5126,"count":24,"normalized":false,"type":"VEC2"},{"bufferView":176,"byteOffset":0,"componentType":5125,"count":36,"type":"SCALAR"},{"bufferView":177,"byteOffset":0,"componentType":5126,"count":24,"max":[14.572999954223633,-0.45719999074935913,0.45719999074935913],"min":[14.115799903869629,-0.9143999814987183,0.0],"type":"VEC3"},{"bufferView":178,"byteOffset":0,"componentType":5126,"count":24,"normalized":false,"type":"VEC2"},{"bufferView":179,"byteOffset":0,"componentType":5125,"count":36,"type":"SCALAR"},{"bufferView":180,"byteOffset":0,"componentType":5126,"count":24,"max":[15.3858003616333,1.4223999977111816,0.45719999074935913],"min":[14.928600311279297,0.9652000069618225,0.0],"type":"VEC3"},{"bufferView":181,"byteOffset":0,"componentType":5126,"count":24,"normalized":false,"type":"VEC2"},{"bufferView":182,"byteOffset":0,"componentType":5125,"count":36,"type":"SCALAR"},{"bufferView":183,"byteOffset":0,"componentType":5126,"count":24,"max":[15.3858003616333,-0.9652000069618225,0.45719999074935913],"min":[14.928600311279297,-1.4223999977111816,0.0],"type":"VEC3"},{"bufferView":184,"byteOffset":0,"componentType":5126,"count":24,"normalized":false,"type":"VEC2"},{"bufferView":185,"byteOffset":0,"componentType":5125,"count":36,"type":"SCALAR"},{"bufferView":186,"byteOffset":0,"componentType":5126,"count":24,"max":[15.3858003616333,0.9143999814987183,0.45719999074935913],"min":[14.928600311279297,0.45719999074935913,0.0],"type":"VEC3"},{"bufferView":187,"byteOffset":0,"componentType":5126,"count":24,"normalized":false,"type":"VEC2"},{"bufferView":188,"byteOffset":0,"componentType":5125,"count":36,"type":"SCALAR"},{"bufferView":189,"byteOffset":0,"componentType":5126,"count":24,"max":[15.3858003616333,-0.45719999074935913,0.45719999074935913],"min":[14.928600311279297,-0.9143999814987183,0.0],"type":"VEC3"},{"bufferView":190,"byteOffset":0,"componentType":5126,"count":24,"normalized":false,"type":"VEC2"},{"bufferView":191,"byteOffset":0,"componentType":5125,"count":36,"type":"SCALAR"},{"bufferView":192,"byteOffset":0,"componentType":5126,"count":24,"max":[16.19860076904297,1.4223999977111816,0.45719999074935913],"min":[15.741399765014648,0.9652000069618225,0.0],"type":"VEC3"},{"bufferView":193,"byteOffset":0,"componentType":5126,"count":24,"normalized":false,"type":"VEC2"},{"bufferView":194,"byteOffset":0,"componentType":5125,"count":36,"type":"SCALAR"},{"bufferView":195,"byteOffset":0,"componentType":5126,"count":24,"max":[16.19860076904297,-0.9652000069618225,0.45719999074935913],"min":[15.741399765014648,-1.4223999977111816,0.0],"type":"VEC3"},{"bufferView":196,"byteOffset":0,"componentType":5126,"count":24,"normalized":false,"type":"VEC2"},{"bufferView":197,"byteOffset":0,"componentType":5125,"count":36,"type":"SCALAR"},{"bufferView":198,"byteOffset":0,"componentType":5126,"count":24,"max":[16.19860076904297,0.9143999814987183,0.45719999074935913],"min":[15.741399765014648,0.45719999074935913,0.0],"type":"VEC3"},{"bufferView":199,"byteOffset":0,"componentType":5126,"count":24,"normalized":false,"type":"VEC2"},{"bufferView":200,"byteOffset":0,"componentType":5125,"count":36,"type":"SCALAR"},{"bufferView":201,"byteOffset":0,"componentType":5126,"count":24,"max":[16.19860076904297,-0.45719999074935913,0.45719999074935913],"min":[15.741399765014648,-0.9143999814987183,0.0],"type":"VEC3"},{"bufferView":202,"byteOffset":0,"componentType":5126,"count":24,"normalized":false,"type":"VEC2"},{"bufferView":203,"byteOffset":0,"componentType":5125,"count":36,"type":"SCALAR"},{"bufferView":204,"byteOffset":0,"componentType":5126,"count":24,"max":[17.01140022277832,1.4223999977111816,0.45719999074935913],"min":[16.55419921875,0.9652000069618225,0.0],"type":"VEC3"},{"bufferView":205,"byteOffset":0,"componentType":5126,"count":24,"normalized":false,"type":"VEC2"},{"bufferView":206,"byteOffset":0,"componentType":5125,"count":36,"type":"SCALAR"},{"bufferView":207,"byteOffset":0,"componentType":5126,"count":24,"max":[17.01140022277832,-0.9652000069618225,0.45719999074935913],"min":[16.55419921875,-1.4223999977111816,0.0],"type":"VEC3"},{"bufferView":208,"byteOffset":0,"componentType":5126,"count":24,"normalized":false,"type":"VEC2"},{"bufferView":209,"byteOffset":0,"componentType":5125,"count":36,"type":"SCALAR"},{"bufferView":210,"byteOffset":0,"componentType":5126,"count":24,"max":[17.01140022277832,0.9143999814987183,0.45719999074935913],"min":[16.55419921875,0.45719999074935913,0.0],"type":"VEC3"},{"bufferView":211,"byteOffset":0,"componentType":5126,"count":24,"normalized":false,"type":"VEC2"},{"bufferView":212,"byteOffset":0,"componentType":5125,"count":36,"type":"SCALAR"},{"bufferView":213,"byteOffset":0,"componentType":5126,"count":24,"max":[17.01140022277832,-0.45719999074935913,0.45719999074935913],"min":[16.55419921875,-0.9143999814987183,0.0],"type":"VEC3"},{"bufferView":214,"byteOffset":0,"componentType":5126,"count":24,"normalized":false,"type":"VEC2"},{"bufferView":215,"byteOffset":0,"componentType":5125,"count":36,"type":"SCALAR"},{"bufferView":216,"byteOffset":0,"componentType":5126,"count":24,"max":[17.824199676513672,1.4223999977111816,0.45719999074935913],"min":[17.367000579833984,0.9652000069618225,0.0],"type":"VEC3"},{"bufferView":217,"byteOffset":0,"componentType":5126,"count":24,"normalized":false,"type":"VEC2"},{"bufferView":218,"byteOffset":0,"componentType":5125,"count":36,"type":"SCALAR"},{"bufferView":219,"byteOffset":0,"componentType":5126,"count":24,"max":[17.824199676513672,-0.9652000069618225,0.45719999074935913],"min":[17.367000579833984,-1.4223999977111816,0.0],"type":"VEC3"},{"bufferView":220,"byteOffset":0,"componentType":5126,"count":24,"normalized":false,"type":"VEC2"},{"bufferView":221,"byteOffset":0,"componentType":5125,"count":36,"type":"SCALAR"},{"bufferView":222,"byteOffset":0,"componentType":5126,"count":24,"max":[17.824199676513672,0.9143999814987183,0.45719999074935913],"min":[17.367000579833984,0.45719999074935913,0.0],"type":"VEC3"},{"bufferView":223,"byteOffset":0,"componentType":5126,"count":24,"normalized":false,"type":"VEC2"},{"bufferView":224,"byteOffset":0,"componentType":5125,"count":36,"type":"SCALAR"},{"bufferView":225,"byteOffset":0,"componentType":5126,"count":24,"max":[17.824199676513672,-0.45719999074935913,0.45719999074935913],"min":[17.367000579833984,-0.9143999814987183,0.0],"type":"VEC3"},{"bufferView":226,"byteOffset":0,"componentType":5126,"count":24,"normalized":false,"type":"VEC2"},{"bufferView":227,"byteOffset":0,"componentType":5125,"count":36,"type":"SCALAR"},{"bufferView":228,"byteOffset":0,"componentType":5126,"count":24,"max":[18.636999130249023,1.4223999977111816,0.45719999074935913],"min":[18.179800033569336,0.9652000069618225,0.0],"type":"VEC3"},{"bufferView":229,"byteOffset":0,"componentType":5126,"count":24,"normalized":false,"type":"VEC2"},{"bufferView":230,"byteOffset":0,"componentType":5125,"count":36,"type":"SCALAR"},{"bufferView":231,"byteOffset":0,"componentType":5126,"count":24,"max":[18.636999130249023,-0.9652000069618225,0.45719999074935913],"min":[18.179800033569336,-1.4223999977111816,0.0],"type":"VEC3"},{"bufferView":232,"byteOffset":0,"componentType":5126,"count":24,"normalized":false,"type":"VEC2"},{"bufferView":233,"byteOffset":0,"componentType":5125,"count":36,"type":"SCALAR"},{"bufferView":234,"byteOffset":0,"componentType":5126,"count":24,"max":[18.636999130249023,0.9143999814987183,0.45719999074935913],"min":[18.179800033569336,0.45719999074935913,0.0],"type":"VEC3"},{"bufferView":235,"byteOffset":0,"componentType":5126,"count":24,"normalized":false,"type":"VEC2"},{"bufferView":236,"byteOffset":0,"componentType":5125,"count":36,"type":"SCALAR"},{"bufferView":237,"byteOffset":0,"componentType":5126,"count":24,"max":[18.636999130249023,-0.45719999074935913,0.45719999074935913],"min":[18.179800033569336,-0.9143999814987183,0.0],"type":"VEC3"},{"bufferView":238,"byteOffset":0,"componentType":5126,"count":24,"normalized":false,"type":"VEC2"},{"bufferView":239,"byteOffset":0,"componentType":5125,"count":36,"type":"SCALAR"},{"bufferView":240,"byteOffset":0,"componentType":5126,"count":24,"max":[19.627599716186523,1.4223999977111816,0.45719999074935913],"min":[18.814800262451172,0.9652000069618225,0.0],"type":"VEC3"},{"bufferView":241,"byteOffset":0,"componentType":5126,"count":24,"normalized":false,"type":"VEC2"},{"bufferView":242,"byteOffset":0,"componentType":5125,"count":36,"type":"SCALAR"},{"bufferView":243,"byteOffset":0,"componentType":5126,"count":24,"max":[19.627599716186523,-0.9652000069618225,0.45719999074935913],"min":[18.814800262451172,-1.4223999977111816,0.0],"type":"VEC3"},{"bufferView":244,"byteOffset":0,"componentType":5126,"count":24,"normalized":false,"type":"VEC2"},{"bufferView":245,"byteOffset":0,"componentType":5125,"count":36,"type":"SCALAR"},{"bufferView":246,"byteOffset":0,"componentType":5126,"count":24,"max":[19.627599716186523,0.9143999814987183,0.45719999074935913],"min":[18.814800262451172,0.45719999074935913,0.0],"type":"VEC3"},{"bufferView":247,"byteOffset":0,"componentType":5126,"count":24,"normalized":false,"type":"VEC2"},{"bufferView":248,"byteOffset":0,"componentType":5125,"count":36,"type":"SCALAR"},{"bufferView":249,"byteOffset":0,"componentType":5126,"count":24,"max":[19.627599716186523,-0.45719999074935913,0.45719999074935913],"min":[18.814800262451172,-0.9143999814987183,0.0],"type":"VEC3"},{"bufferView":250,"byteOffset":0,"componentType":5126,"count":24,"normalized":false,"type":"VEC2"},{"bufferView":251,"byteOffset":0,"componentType":5125,"count":36,"type":"SCALAR"},{"bufferView":252,"byteOffset":0,"componentType":5126,"count":480,"max":[16.0,1.75,0.31791114807128906],"min":[10.0,-1.7490432262420654,-0.9819111227989197],"type":"VEC3"},{"bufferView":253,"byteOffset":0,"componentType":5125,"count":2280,"type":"SCALAR"},{"bufferView":254,"byteOffset":0,"componentType":5126,"count":768,"max":[13.941625595092773,4.644315242767334,2.0161008834838867],"min":[8.941625595092773,3.794431447982788,1.0161693096160889],"type":"VEC3"},{"bufferView":255,"byteOffset":0,"componentType":5125,"count":3705,"type":"SCALAR"},{"bufferView":256,"byteOffset":0,"componentType":5126,"count":2550,"max":[3.108624416010879e-16,1.3972374200820923,1.399999976158142],"min":[-3.108624416010879e-16,-1.3972374200820923,-1.399999976158142],"type":"VEC3"},{"bufferView":257,"byteOffset":0,"componentType":5125,"count":15000,"type":"SCALAR"},{"bufferView":258,"byteOffset":0,"componentType":5126,"count":768,"max":[13.941625595092773,-3.7943153381347656,2.0161008834838867],"min":[8.941625595092773,-4.644198894500732,1.0161693096160889],"type":"VEC3"},{"bufferView":259,"byteOffset":0,"componentType":5125,"count":3705,"type":"SCALAR"},{"bufferView":260,"byteOffset":0,"componentType":5126,"count":2550,"max":[3.108624416010879e-16,1.3972374200820923,1.399999976158142],"min":[-3.108624416010879e-16,-1.3972374200820923,-1.399999976158142],"type":"VEC3"},{"bufferView":261,"byteOffset":0,"componentType":5125,"count":15000,"type":"SCALAR"},{"bufferView":262,"byteOffset":0,"componentType":5126,"count":10,"max":[13.417561531066895,4.393439769744873,2.0952341556549072],"min":[11.797561645507813,0.0,1.923398494720459],"type":"VEC3"},{"bufferView":263,"byteOffset":0,"componentType":5125,"count":24,"type":"SCALAR"},{"bufferView":264,"byteOffset":0,"componentType":5126,"count":10,"max":[13.417561531066895,-0.0,2.0952341556549072],"min":[11.797561645507813,-4.393439769744873,1.923398494720459],"type":"VEC3"},{"bufferView":265,"byteOffset":0,"componentType":5125,"count":24,"type":"SCALAR"},{"bufferView":266,"byteOffset":0,"componentType":5126,"count":10,"max":[13.417561531066895,13.5600004196167,2.0952341556549072],"min":[11.797561645507813,4.393439769744873,1.923398494720459],"type":"VEC3"},{"bufferView":267,"byteOffset":0,"componentType":5125,"count":24,"type":"SCALAR"},{"bufferView":268,"byteOffset":0,"componentType":5126,"count":10,"max":[13.417561531066895,-4.393439769744873,2.0952341556549072],"min":[11.797561645507813,-13.5600004196167,1.923398494720459],"type":"VEC3"},{"bufferView":269,"byteOffset":0,"componentType":5125,"count":24,"type":"SCALAR"}],"asset":{"generator":"VTK","version":"2.0"},"bufferViews":[{"buffer":0,"byteLength":3636,"byteOffset":0,"target":34962},{"buffer":1,"byteLength":4848,"byteOffset":0,"target":34963},{"buffer":2,"byteLength":3636,"byteOffset":0,"target":34962},{"buffer":3,"byteLength":4848,"byteOffset":0,"target":34963},{"buffer":4,"byteLength":2424,"byteOffset":0,"target":34962},{"buffer":5,"byteLength":2424,"byteOffset":0,"target":34963},{"buffer":6,"byteLength":2424,"byteOffset":0,"target":34962},{"buffer":7,"byteLength":2424,"byteOffset":0,"target":34963},{"buffer":8,"byteLength":6060,"byteOffset":0,"target":34962},{"buffer":9,"byteLength":9696,"byteOffset":0,"target":34963},{"buffer":10,"byteLength":16128,"byteOffset":0,"target":34962},{"buffer":11,"byteLength":28500,"byteOffset":0,"target":34963},{"buffer":12,"byteLength":288,"byteOffset":0,"target":34962},{"buffer":13,"byteLength":192,"byteOffset":0,"target":34962},{"buffer":14,"byteLength":144,"byteOffset":0,"target":34963},{"buffer":15,"byteLength":288,"byteOffset":0,"target":34962},{"buffer":16,"byteLength":192,"byteOffset":0,"target":34962},{"buffer":17,"byteLength":144,"byteOffset":0,"target":34963},{"buffer":18,"byteLength":288,"byteOffset":0,"target":34962},{"buffer":19,"byteLength":192,"byteOffset":0,"target":34962},{"buffer":20,"byteLength":144,"byteOffset":0,"target":34963},{"buffer":21,"byteLength":288,"byteOffset":0,"target":34962},{"buffer":22,"byteLength":192,"byteOffset":0,"target":34962},{"buffer":23,"byteLength":144,"byteOffset":0,"target":34963},{"buffer":24,"byteLength":288,"byteOffset":0,"target":34962},{"buffer":25,"byteLength":192,"byteOffset":0,"target":34962},{"buffer":26,"byteLength":144,"byteOffset":0,"target":34963},{"buffer":27,"byteLength":288,"byteOffset":0,"target":34962},{"buffer":28,"byteLength":192,"byteOffset":0,"target":34962},{"buffer":29,"byteLength":144,"byteOffset":0,"target":34963},{"buffer":30,"byteLength":288,"byteOffset":0,"target":34962},{"buffer":31,"byteLength":192,"byteOffset":0,"target":34962},{"buffer":32,"byteLength":144,"byteOffset":0,"target":34963},{"buffer":33,"byteLength":288,"byteOffset":0,"target":34962},{"buffer":34,"byteLength":192,"byteOffset":0,"target":34962},{"buffer":35,"byteLength":144,"byteOffset":0,"target":34963},{"buffer":36,"byteLength":288,"byteOffset":0,"target":34962},{"buffer":37,"byteLength":192,"byteOffset":0,"target":34962},{"buffer":38,"byteLength":144,"byteOffset":0,"target":34963},{"buffer":39,"byteLength":288,"byteOffset":0,"target":34962},{"buffer":40,"byteLength":192,"byteOffset":0,"target":34962},{"buffer":41,"byteLength":144,"byteOffset":0,"target":34963},{"buffer":42,"byteLength":288,"byteOffset":0,"target":34962},{"buffer":43,"byteLength":192,"byteOffset":0,"target":34962},{"buffer":44,"byteLength":144,"byteOffset":0,"target":34963},{"buffer":45,"byteLength":288,"byteOffset":0,"target":34962},{"buffer":46,"byteLength":192,"byteOffset":0,"target":34962},{"buffer":47,"byteLength":144,"byteOffset":0,"target":34963},{"buffer":48,"byteLength":288,"byteOffset":0,"target":34962},{"buffer":49,"byteLength":192,"byteOffset":0,"target":34962},{"buffer":50,"byteLength":144,"byteOffset":0,"target":34963},{"buffer":51,"byteLength":288,"byteOffset":0,"target":34962},{"buffer":52,"byteLength":192,"byteOffset":0,"target":34962},{"buffer":53,"byteLength":144,"byteOffset":0,"target":34963},{"buffer":54,"byteLength":288,"byteOffset":0,"target":34962},{"buffer":55,"byteLength":192,"byteOffset":0,"target":34962},{"buffer":56,"byteLength":144,"byteOffset":0,"target":34963},{"buffer":57,"byteLength":288,"byteOffset":0,"target":34962},{"buffer":58,"byteLength":192,"byteOffset":0,"target":34962},{"buffer":59,"byteLength":144,"byteOffset":0,"target":34963},{"buffer":60,"byteLength":288,"byteOffset":0,"target":34962},{"buffer":61,"byteLength":192,"byteOffset":0,"target":34962},{"buffer":62,"byteLength":144,"byteOffset":0,"target":34963},{"buffer":63,"byteLength":288,"byteOffset":0,"target":34962},{"buffer":64,"byteLength":192,"byteOffset":0,"target":34962},{"buffer":65,"byteLength":144,"byteOffset":0,"target":34963},{"buffer":66,"byteLength":288,"byteOffset":0,"target":34962},{"buffer":67,"byteLength":192,"byteOffset":0,"target":34962},{"buffer":68,"byteLength":144,"byteOffset":0,"target":34963},{"buffer":69,"byteLength":288,"byteOffset":0,"target":34962},{"buffer":70,"byteLength":192,"byteOffset":0,"target":34962},{"buffer":71,"byteLength":144,"byteOffset":0,"target":34963},{"buffer":72,"byteLength":288,"byteOffset":0,"target":34962},{"buffer":73,"byteLength":192,"byteOffset":0,"target":34962},{"buffer":74,"byteLength":144,"byteOffset":0,"target":34963},{"buffer":75,"byteLength":288,"byteOffset":0,"target":34962},{"buffer":76,"byteLength":192,"byteOffset":0,"target":34962},{"buffer":77,"byteLength":144,"byteOffset":0,"target":34963},{"buffer":78,"byteLength":288,"byteOffset":0,"target":34962},{"buffer":79,"byteLength":192,"byteOffset":0,"target":34962},{"buffer":80,"byteLength":144,"byteOffset":0,"target":34963},{"buffer":81,"byteLength":288,"byteOffset":0,"target":34962},{"buffer":82,"byteLength":192,"byteOffset":0,"target":34962},{"buffer":83,"byteLength":144,"byteOffset":0,"target":34963},{"buffer":84,"byteLength":288,"byteOffset":0,"target":34962},{"buffer":85,"byteLength":192,"byteOffset":0,"target":34962},{"buffer":86,"byteLength":144,"byteOffset":0,"target":34963},{"buffer":87,"byteLength":288,"byteOffset":0,"target":34962},{"buffer":88,"byteLength":192,"byteOffset":0,"target":34962},{"buffer":89,"byteLength":144,"byteOffset":0,"target":34963},{"buffer":90,"byteLength":288,"byteOffset":0,"target":34962},{"buffer":91,"byteLength":192,"byteOffset":0,"target":34962},{"buffer":92,"byteLength":144,"byteOffset":0,"target":34963},{"buffer":93,"byteLength":288,"byteOffset":0,"target":34962},{"buffer":94,"byteLength":192,"byteOffset":0,"target":34962},{"buffer":95,"byteLength":144,"byteOffset":0,"target":34963},{"buffer":96,"byteLength":288,"byteOffset":0,"target":34962},{"buffer":97,"byteLength":192,"byteOffset":0,"target":34962},{"buffer":98,"byteLength":144,"byteOffset":0,"target":34963},{"buffer":99,"byteLength":288,"byteOffset":0,"target":34962},{"buffer":100,"byteLength":192,"byteOffset":0,"target":34962},{"buffer":101,"byteLength":144,"byteOffset":0,"target":34963},{"buffer":102,"byteLength":288,"byteOffset":0,"target":34962},{"buffer":103,"byteLength":192,"byteOffset":0,"target":34962},{"buffer":104,"byteLength":144,"byteOffset":0,"target":34963},{"buffer":105,"byteLength":288,"byteOffset":0,"target":34962},{"buffer":106,"byteLength":192,"byteOffset":0,"target":34962},{"buffer":107,"byteLength":144,"byteOffset":0,"target":34963},{"buffer":108,"byteLength":288,"byteOffset":0,"target":34962},{"buffer":109,"byteLength":192,"byteOffset":0,"target":34962},{"buffer":110,"byteLength":144,"byteOffset":0,"target":34963},{"buffer":111,"byteLength":288,"byteOffset":0,"target":34962},{"buffer":112,"byteLength":192,"byteOffset":0,"target":34962},{"buffer":113,"byteLength":144,"byteOffset":0,"target":34963},{"buffer":114,"byteLength":288,"byteOffset":0,"target":34962},{"buffer":115,"byteLength":192,"byteOffset":0,"target":34962},{"buffer":116,"byteLength":144,"byteOffset":0,"target":34963},{"buffer":117,"byteLength":288,"byteOffset":0,"target":34962},{"buffer":118,"byteLength":192,"byteOffset":0,"target":34962},{"buffer":119,"byteLength":144,"byteOffset":0,"target":34963},{"buffer":120,"byteLength":288,"byteOffset":0,"target":34962},{"buffer":121,"byteLength":192,"byteOffset":0,"target":34962},{"buffer":122,"byteLength":144,"byteOffset":0,"target":34963},{"buffer":123,"byteLength":288,"byteOffset":0,"target":34962},{"buffer":124,"byteLength":192,"byteOffset":0,"target":34962},{"buffer":125,"byteLength":144,"byteOffset":0,"target":34963},{"buffer":126,"byteLength":288,"byteOffset":0,"target":34962},{"buffer":127,"byteLength":192,"byteOffset":0,"target":34962},{"buffer":128,"byteLength":144,"byteOffset":0,"target":34963},{"buffer":129,"byteLength":288,"byteOffset":0,"target":34962},{"buffer":130,"byteLength":192,"byteOffset":0,"target":34962},{"buffer":131,"byteLength":144,"byteOffset":0,"target":34963},{"buffer":132,"byteLength":288,"byteOffset":0,"target":34962},{"buffer":133,"byteLength":192,"byteOffset":0,"target":34962},{"buffer":134,"byteLength":144,"byteOffset":0,"target":34963},{"buffer":135,"byteLength":288,"byteOffset":0,"target":34962},{"buffer":136,"byteLength":192,"byteOffset":0,"target":34962},{"buffer":137,"byteLength":144,"byteOffset":0,"target":34963},{"buffer":138,"byteLength":288,"byteOffset":0,"target":34962},{"buffer":139,"byteLength":192,"byteOffset":0,"target":34962},{"buffer":140,"byteLength":144,"byteOffset":0,"target":34963},{"buffer":141,"byteLength":288,"byteOffset":0,"target":34962},{"buffer":142,"byteLength":192,"byteOffset":0,"target":34962},{"buffer":143,"byteLength":144,"byteOffset":0,"target":34963},{"buffer":144,"byteLength":288,"byteOffset":0,"target":34962},{"buffer":145,"byteLength":192,"byteOffset":0,"target":34962},{"buffer":146,"byteLength":144,"byteOffset":0,"target":34963},{"buffer":147,"byteLength":288,"byteOffset":0,"target":34962},{"buffer":148,"byteLength":192,"byteOffset":0,"target":34962},{"buffer":149,"byteLength":144,"byteOffset":0,"target":34963},{"buffer":150,"byteLength":288,"byteOffset":0,"target":34962},{"buffer":151,"byteLength":192,"byteOffset":0,"target":34962},{"buffer":152,"byteLength":144,"byteOffset":0,"target":34963},{"buffer":153,"byteLength":288,"byteOffset":0,"target":34962},{"buffer":154,"byteLength":192,"byteOffset":0,"target":34962},{"buffer":155,"byteLength":144,"byteOffset":0,"target":34963},{"buffer":156,"byteLength":288,"byteOffset":0,"target":34962},{"buffer":157,"byteLength":192,"byteOffset":0,"target":34962},{"buffer":158,"byteLength":144,"byteOffset":0,"target":34963},{"buffer":159,"byteLength":288,"byteOffset":0,"target":34962},{"buffer":160,"byteLength":192,"byteOffset":0,"target":34962},{"buffer":161,"byteLength":144,"byteOffset":0,"target":34963},{"buffer":162,"byteLength":288,"byteOffset":0,"target":34962},{"buffer":163,"byteLength":192,"byteOffset":0,"target":34962},{"buffer":164,"byteLength":144,"byteOffset":0,"target":34963},{"buffer":165,"byteLength":288,"byteOffset":0,"target":34962},{"buffer":166,"byteLength":192,"byteOffset":0,"target":34962},{"buffer":167,"byteLength":144,"byteOffset":0,"target":34963},{"buffer":168,"byteLength":288,"byteOffset":0,"target":34962},{"buffer":169,"byteLength":192,"byteOffset":0,"target":34962},{"buffer":170,"byteLength":144,"byteOffset":0,"target":34963},{"buffer":171,"byteLength":288,"byteOffset":0,"target":34962},{"buffer":172,"byteLength":192,"byteOffset":0,"target":34962},{"buffer":173,"byteLength":144,"byteOffset":0,"target":34963},{"buffer":174,"byteLength":288,"byteOffset":0,"target":34962},{"buffer":175,"byteLength":192,"byteOffset":0,"target":34962},{"buffer":176,"byteLength":144,"byteOffset":0,"target":34963},{"buffer":177,"byteLength":288,"byteOffset":0,"target":34962},{"buffer":178,"byteLength":192,"byteOffset":0,"target":34962},{"buffer":179,"byteLength":144,"byteOffset":0,"target":34963},{"buffer":180,"byteLength":288,"byteOffset":0,"target":34962},{"buffer":181,"byteLength":192,"byteOffset":0,"target":34962},{"buffer":182,"byteLength":144,"byteOffset":0,"target":34963},{"buffer":183,"byteLength":288,"byteOffset":0,"target":34962},{"buffer":184,"byteLength":192,"byteOffset":0,"target":34962},{"buffer":185,"byteLength":144,"byteOffset":0,"target":34963},{"buffer":186,"byteLength":288,"byteOffset":0,"target":34962},{"buffer":187,"byteLength":192,"byteOffset":0,"target":34962},{"buffer":188,"byteLength":144,"byteOffset":0,"target":34963},{"buffer":189,"byteLength":288,"byteOffset":0,"target":34962},{"buffer":190,"byteLength":192,"byteOffset":0,"target":34962},{"buffer":191,"byteLength":144,"byteOffset":0,"target":34963},{"buffer":192,"byteLength":288,"byteOffset":0,"target":34962},{"buffer":193,"byteLength":192,"byteOffset":0,"target":34962},{"buffer":194,"byteLength":144,"byteOffset":0,"target":34963},{"buffer":195,"byteLength":288,"byteOffset":0,"target":34962},{"buffer":196,"byteLength":192,"byteOffset":0,"target":34962},{"buffer":197,"byteLength":144,"byteOffset":0,"target":34963},{"buffer":198,"byteLength":288,"byteOffset":0,"target":34962},{"buffer":199,"byteLength":192,"byteOffset":0,"target":34962},{"buffer":200,"byteLength":144,"byteOffset":0,"target":34963},{"buffer":201,"byteLength":288,"byteOffset":0,"target":34962},{"buffer":202,"byteLength":192,"byteOffset":0,"target":34962},{"buffer":203,"byteLength":144,"byteOffset":0,"target":34963},{"buffer":204,"byteLength":288,"byteOffset":0,"target":34962},{"buffer":205,"byteLength":192,"byteOffset":0,"target":34962},{"buffer":206,"byteLength":144,"byteOffset":0,"target":34963},{"buffer":207,"byteLength":288,"byteOffset":0,"target":34962},{"buffer":208,"byteLength":192,"byteOffset":0,"target":34962},{"buffer":209,"byteLength":144,"byteOffset":0,"target":34963},{"buffer":210,"byteLength":288,"byteOffset":0,"target":34962},{"buffer":211,"byteLength":192,"byteOffset":0,"target":34962},{"buffer":212,"byteLength":144,"byteOffset":0,"target":34963},{"buffer":213,"byteLength":288,"byteOffset":0,"target":34962},{"buffer":214,"byteLength":192,"byteOffset":0,"target":34962},{"buffer":215,"byteLength":144,"byteOffset":0,"target":34963},{"buffer":216,"byteLength":288,"byteOffset":0,"target":34962},{"buffer":217,"byteLength":192,"byteOffset":0,"target":34962},{"buffer":218,"byteLength":144,"byteOffset":0,"target":34963},{"buffer":219,"byteLength":288,"byteOffset":0,"target":34962},{"buffer":220,"byteLength":192,"byteOffset":0,"target":34962},{"buffer":221,"byteLength":144,"byteOffset":0,"target":34963},{"buffer":222,"byteLength":288,"byteOffset":0,"target":34962},{"buffer":223,"byteLength":192,"byteOffset":0,"target":34962},{"buffer":224,"byteLength":144,"byteOffset":0,"target":34963},{"buffer":225,"byteLength":288,"byteOffset":0,"target":34962},{"buffer":226,"byteLength":192,"byteOffset":0,"target":34962},{"buffer":227,"byteLength":144,"byteOffset":0,"target":34963},{"buffer":228,"byteLength":288,"byteOffset":0,"target":34962},{"buffer":229,"byteLength":192,"byteOffset":0,"target":34962},{"buffer":230,"byteLength":144,"byteOffset":0,"target":34963},{"buffer":231,"byteLength":288,"byteOffset":0,"target":34962},{"buffer":232,"byteLength":192,"byteOffset":0,"target":34962},{"buffer":233,"byteLength":144,"byteOffset":0,"target":34963},{"buffer":234,"byteLength":288,"byteOffset":0,"target":34962},{"buffer":235,"byteLength":192,"byteOffset":0,"target":34962},{"buffer":236,"byteLength":144,"byteOffset":0,"target":34963},{"buffer":237,"byteLength":288,"byteOffset":0,"target":34962},{"buffer":238,"byteLength":192,"byteOffset":0,"target":34962},{"buffer":239,"byteLength":144,"byteOffset":0,"target":34963},{"buffer":240,"byteLength":288,"byteOffset":0,"target":34962},{"buffer":241,"byteLength":192,"byteOffset":0,"target":34962},{"buffer":242,"byteLength":144,"byteOffset":0,"target":34963},{"buffer":243,"byteLength":288,"byteOffset":0,"target":34962},{"buffer":244,"byteLength":192,"byteOffset":0,"target":34962},{"buffer":245,"byteLength":144,"byteOffset":0,"target":34963},{"buffer":246,"byteLength":288,"byteOffset":0,"target":34962},{"buffer":247,"byteLength":192,"byteOffset":0,"target":34962},{"buffer":248,"byteLength":144,"byteOffset":0,"target":34963},{"buffer":249,"byteLength":288,"byteOffset":0,"target":34962},{"buffer":250,"byteLength":192,"byteOffset":0,"target":34962},{"buffer":251,"byteLength":144,"byteOffset":0,"target":34963},{"buffer":252,"byteLength":5760,"byteOffset":0,"target":34962},{"buffer":253,"byteLength":9120,"byteOffset":0,"target":34963},{"buffer":254,"byteLength":9216,"byteOffset":0,"target":34962},{"buffer":255,"byteLength":14820,"byteOffset":0,"target":34963},{"buffer":256,"byteLength":30600,"byteOffset":0,"target":34962},{"buffer":257,"byteLength":60000,"byteOffset":0,"target":34963},{"buffer":258,"byteLength":9216,"byteOffset":0,"target":34962},{"buffer":259,"byteLength":14820,"byteOffset":0,"target":34963},{"buffer":260,"byteLength":30600,"byteOffset":0,"target":34962},{"buffer":261,"byteLength":60000,"byteOffset":0,"target":34963},{"buffer":262,"byteLength":120,"byteOffset":0,"target":34962},{"buffer":263,"byteLength":96,"byteOffset":0,"target":34963},{"buffer":264,"byteLength":120,"byteOffset":0,"target":34962},{"buffer":265,"byteLength":96,"byteOffset":0,"target":34963},{"buffer":266,"byteLength":120,"byteOffset":0,"target":34962},{"buffer":267,"byteLength":96,"byteOffset":0,"target":34963},{"buffer":268,"byteLength":120,"byteOffset":0,"target":34962},{"buffer":269,"byteLength":96,"byteOffset":0,"target":34963}],"buffers":[{"byteLength":3636,"uri":"data:application/octet-stream;base64,"},{"byteLength":4848,"uri":"data:application/octet-stream;base64,"},{"byteLength":3636,"uri":"data:application/octet-stream;base64,"},{"byteLength":4848,"uri":"data:application/octet-stream;base64,"},{"byteLength":2424,"uri":"data:application/octet-stream;base64,"},{"byteLength":2424,"uri":"data:application/octet-stream;base64,"},{"byteLength":2424,"uri":"data:application/octet-stream;base64,"},{"byteLength":2424,"uri":"data:application/octet-stream;base64,"},{"byteLength":6060,"uri":"data:application/octet-stream;base64,"},{"byteLength":9696,"uri":"data:application/octet-stream;base64,"},{"byteLength":16128,"uri":"data:application/octet-stream;base64,"},{"byteLength":28500,"uri":"data:application/octet-stream;base64,"},{"byteLength":288,"uri":"data:application/octet-stream;base64,"},{"byteLength":192,"uri":"data:application/octet-stream;base64,"},{"byteLength":144,"uri":"data:application/octet-stream;base64,"},{"byteLength":288,"uri":"data:application/octet-stream;base64,"},{"byteLength":192,"uri":"data:application/octet-stream;base64,"},{"byteLength":144,"uri":"data:application/octet-stream;base64,"},{"byteLength":288,"uri":"data:application/octet-stream;base64,"},{"byteLength":192,"uri":"data:application/octet-stream;base64,"},{"byteLength":144,"uri":"data:application/octet-stream;base64,"},{"byteLength":288,"uri":"data:application/octet-stream;base64,"},{"byteLength":192,"uri":"data:application/octet-stream;base64,"},{"byteLength":144,"uri":"data:application/octet-stream;base64,"},{"byteLength":288,"uri":"data:application/octet-stream;base64,"},{"byteLength":192,"uri":"data:application/octet-stream;base64,"},{"byteLength":144,"uri":"data:application/octet-stream;base64,"},{"byteLength":288,"uri":"data:application/octet-stream;base64,"},{"byteLength":192,"uri":"data:application/octet-stream;base64,"},{"byteLength":144,"uri":"data:application/octet-stream;base64,"},{"byteLength":288,"uri":"data:application/octet-stream;base64,"},{"byteLength":192,"uri":"data:application/octet-stream;base64,"},{"byteLength":144,"uri":"data:application/octet-stream;base64,"},{"byteLength":288,"uri":"data:application/octet-stream;base64,"},{"byteLength":192,"uri":"data:application/octet-stream;base64,"},{"byteLength":144,"uri":"data:application/octet-stream;base64,"},{"byteLength":288,"uri":"data:application/octet-stream;base64,"},{"byteLength":192,"uri":"data:application/octet-stream;base64,"},{"byteLength":144,"uri":"data:application/octet-stream;base64,"},{"byteLength":288,"uri":"data:application/octet-stream;base64,"},{"byteLength":192,"uri":"data:application/octet-stream;base64,"},{"byteLength":144,"uri":"data:application/octet-stream;base64,"},{"byteLength":288,"uri":"data:application/octet-stream;base64,"},{"byteLength":192,"uri":"data:application/octet-stream;base64,"},{"byteLength":144,"uri":"data:application/octet-stream;base64,"},{"byteLength":288,"uri":"data:application/octet-stream;base64,"},{"byteLength":192,"uri":"data:application/octet-stream;base64,"},{"byteLength":144,"uri":"data:application/octet-stream;base64,"},{"byteLength":288,"uri":"data:application/octet-stream;base64,"},{"byteLength":192,"uri":"data:application/octet-stream;base64,"},{"byteLength":144,"uri":"data:application/octet-stream;base64,"},{"byteLength":288,"uri":"data:application/octet-stream;base64,"},{"byteLength":192,"uri":"data:application/octet-stream;base64,"},{"byteLength":144,"uri":"data:application/octet-stream;base64,"},{"byteLength":288,"uri":"data:application/octet-stream;base64,"},{"byteLength":192,"uri":"data:application/octet-stream;base64,"},{"byteLength":144,"uri":"data:application/octet-stream;base64,"},{"byteLength":288,"uri":"data:application/octet-stream;base64,"},{"byteLength":192,"uri":"data:application/octet-stream;base64,"},{"byteLength":144,"uri":"data:application/octet-stream;base64,"},{"byteLength":288,"uri":"data:application/octet-stream;base64,"},{"byteLength":192,"uri":"data:application/octet-stream;base64,"},{"byteLength":144,"uri":"data:application/octet-stream;base64,"},{"byteLength":288,"uri":"data:application/octet-stream;base64,"},{"byteLength":192,"uri":"data:application/octet-stream;base64,"},{"byteLength":144,"uri":"data:application/octet-stream;base64,"},{"byteLength":288,"uri":"data:application/octet-stream;base64,"},{"byteLength":192,"uri":"data:application/octet-stream;base64,"},{"byteLength":144,"uri":"data:application/octet-stream;base64,"},{"byteLength":288,"uri":"data:application/octet-stream;base64,"},{"byteLength":192,"uri":"data:application/octet-stream;base64,"},{"byteLength":144,"uri":"data:application/octet-stream;base64,"},{"byteLength":288,"uri":"data:application/octet-stream;base64,"},{"byteLength":192,"uri":"data:application/octet-stream;base64,"},{"byteLength":144,"uri":"data:application/octet-stream;base64,"},{"byteLength":288,"uri":"data:application/octet-stream;base64,"},{"byteLength":192,"uri":"data:application/octet-stream;base64,"},{"byteLength":144,"uri":"data:application/octet-stream;base64,"},{"byteLength":288,"uri":"data:application/octet-stream;base64,"},{"byteLength":192,"uri":"data:application/octet-stream;base64,"},{"byteLength":144,"uri":"data:application/octet-stream;base64,"},{"byteLength":288,"uri":"data:application/octet-stream;base64,"},{"byteLength":192,"uri":"data:application/octet-stream;base64,"},{"byteLength":144,"uri":"data:application/octet-stream;base64,"},{"byteLength":288,"uri":"data:application/octet-stream;base64,"},{"byteLength":192,"uri":"data:application/octet-stream;base64,"},{"byteLength":144,"uri":"data:application/octet-stream;base64,"},{"byteLength":288,"uri":"data:application/octet-stream;base64,"},{"byteLength":192,"uri":"data:application/octet-stream;base64,"},{"byteLength":144,"uri":"data:application/octet-stream;base64,"},{"byteLength":288,"uri":"data:application/octet-stream;base64,"},{"byteLength":192,"uri":"data:application/octet-stream;base64,"},{"byteLength":144,"uri":"data:application/octet-stream;base64,"},{"byteLength":288,"uri":"data:application/octet-stream;base64,"},{"byteLength":192,"uri":"data:application/octet-stream;base64,"},{"byteLength":144,"uri":"data:application/octet-stream;base64,"},{"byteLength":288,"uri":"data:application/octet-stream;base64,"},{"byteLength":192,"uri":"data:application/octet-stream;base64,"},{"byteLength":144,"uri":"data:application/octet-stream;base64,"},{"byteLength":288,"uri":"data:application/octet-stream;base64,"},{"byteLength":192,"uri":"data:application/octet-stream;base64,"},{"byteLength":144,"uri":"data:application/octet-stream;base64,"},{"byteLength":288,"uri":"data:application/octet-stream;base64,"},{"byteLength":192,"uri":"data:application/octet-stream;base64,"},{"byteLength":144,"uri":"data:application/octet-stream;base64,"},{"byteLength":288,"uri":"data:application/octet-stream;base64,"},{"byteLength":192,"uri":"data:application/octet-stream;base64,"},{"byteLength":144,"uri":"data:application/octet-stream;base64,"},{"byteLength":288,"uri":"data:application/octet-stream;base64,"},{"byteLength":192,"uri":"data:application/octet-stream;base64,"},{"byteLength":144,"uri":"data:application/octet-stream;base64,"},{"byteLength":288,"uri":"data:application/octet-stream;base64,"},{"byteLength":192,"uri":"data:application/octet-stream;base64,"},{"byteLength":144,"uri":"data:application/octet-stream;base64,"},{"byteLength":288,"uri":"data:application/octet-stream;base64,"},{"byteLength":192,"uri":"data:application/octet-stream;base64,"},{"byteLength":144,"uri":"data:application/octet-stream;base64,"},{"byteLength":288,"uri":"data:application/octet-stream;base64,"},{"byteLength":192,"uri":"data:application/octet-stream;base64,"},{"byteLength":144,"uri":"data:application/octet-stream;base64,"},{"byteLength":288,"uri":"data:application/octet-stream;base64,"},{"byteLength":192,"uri":"data:application/octet-stream;base64,"},{"byteLength":144,"uri":"data:application/octet-stream;base64,"},{"byteLength":288,"uri":"data:application/octet-stream;base64,"},{"byteLength":192,"uri":"data:application/octet-stream;base64,"},{"byteLength":144,"uri":"data:application/octet-stream;base64,"},{"byteLength":288,"uri":"data:application/octet-stream;base64,"},{"byteLength":192,"uri":"data:application/octet-stream;base64,"},{"byteLength":144,"uri":"data:application/octet-stream;base64,"},{"byteLength":288,"uri":"data:application/octet-stream;base64,"},{"byteLength":192,"uri":"data:application/octet-stream;base64,"},{"byteLength":144,"uri":"data:application/octet-stream;base64,"},{"byteLength":288,"uri":"data:application/octet-stream;base64,"},{"byteLength":192,"uri":"data:application/octet-stream;base64,"},{"byteLength":144,"uri":"data:application/octet-stream;base64,"},{"byteLength":288,"uri":"data:application/octet-stream;base64,"},{"byteLength":192,"uri":"data:application/octet-stream;base64,"},{"byteLength":144,"uri":"data:application/octet-stream;base64,"},{"byteLength":288,"uri":"data:application/octet-stream;base64,"},{"byteLength":192,"uri":"data:application/octet-stream;base64,"},{"byteLength":144,"uri":"data:application/octet-stream;base64,"},{"byteLength":288,"uri":"data:application/octet-stream;base64,"},{"byteLength":192,"uri":"data:application/octet-stream;base64,"},{"byteLength":144,"uri":"data:application/octet-stream;base64,"},{"byteLength":288,"uri":"data:application/octet-stream;base64,"},{"byteLength":192,"uri":"data:application/octet-stream;base64,"},{"byteLength":144,"uri":"data:application/octet-stream;base64,"},{"byteLength":288,"uri":"data:application/octet-stream;base64,"},{"byteLength":192,"uri":"data:application/octet-stream;base64,"},{"byteLength":144,"uri":"data:application/octet-stream;base64,"},{"byteLength":288,"uri":"data:application/octet-stream;base64,"},{"byteLength":192,"uri":"data:application/octet-stream;base64,"},{"byteLength":144,"uri":"data:application/octet-stream;base64,"},{"byteLength":288,"uri":"data:application/octet-stream;base64,"},{"byteLength":192,"uri":"data:application/octet-stream;base64,"},{"byteLength":144,"uri":"data:application/octet-stream;base64,"},{"byteLength":288,"uri":"data:application/octet-stream;base64,"},{"byteLength":192,"uri":"data:application/octet-stream;base64,"},{"byteLength":144,"uri":"data:application/octet-stream;base64,"},{"byteLength":288,"uri":"data:application/octet-stream;base64,"},{"byteLength":192,"uri":"data:application/octet-stream;base64,"},{"byteLength":144,"uri":"data:application/octet-stream;base64,"},{"byteLength":288,"uri":"data:application/octet-stream;base64,"},{"byteLength":192,"uri":"data:application/octet-stream;base64,"},{"byteLength":144,"uri":"data:application/octet-stream;base64,"},{"byteLength":288,"uri":"data:application/octet-stream;base64,"},{"byteLength":192,"uri":"data:application/octet-stream;base64,"},{"byteLength":144,"uri":"data:application/octet-stream;base64,"},{"byteLength":288,"uri":"data:application/octet-stream;base64,"},{"byteLength":192,"uri":"data:application/octet-stream;base64,"},{"byteLength":144,"uri":"data:application/octet-stream;base64,"},{"byteLength":288,"uri":"data:application/octet-stream;base64,"},{"byteLength":192,"uri":"data:application/octet-stream;base64,"},{"byteLength":144,"uri":"data:application/octet-stream;base64,"},{"byteLength":288,"uri":"data:application/octet-stream;base64,"},{"byteLength":192,"uri":"data:application/octet-stream;base64,"},{"byteLength":144,"uri":"data:application/octet-stream;base64,"},{"byteLength":288,"uri":"data:application/octet-stream;base64,"},{"byteLength":192,"uri":"data:application/octet-stream;base64,"},{"byteLength":144,"uri":"data:application/octet-stream;base64,"},{"byteLength":288,"uri":"data:application/octet-stream;base64,"},{"byteLength":192,"uri":"data:application/octet-stream;base64,"},{"byteLength":144,"uri":"data:application/octet-stream;base64,"},{"byteLength":288,"uri":"data:application/octet-stream;base64,"},{"byteLength":192,"uri":"data:application/octet-stream;base64,"},{"byteLength":144,"uri":"data:application/octet-stream;base64,"},{"byteLength":288,"uri":"data:application/octet-stream;base64,"},{"byteLength":192,"uri":"data:application/octet-stream;base64,"},{"byteLength":144,"uri":"data:application/octet-stream;base64,"},{"byteLength":288,"uri":"data:application/octet-stream;base64,"},{"byteLength":192,"uri":"data:application/octet-stream;base64,"},{"byteLength":144,"uri":"data:application/octet-stream;base64,"},{"byteLength":288,"uri":"data:application/octet-stream;base64,"},{"byteLength":192,"uri":"data:application/octet-stream;base64,"},{"byteLength":144,"uri":"data:application/octet-stream;base64,"},{"byteLength":288,"uri":"data:application/octet-stream;base64,"},{"byteLength":192,"uri":"data:application/octet-stream;base64,"},{"byteLength":144,"uri":"data:application/octet-stream;base64,"},{"byteLength":288,"uri":"data:application/octet-stream;base64,"},{"byteLength":192,"uri":"data:application/octet-stream;base64,"},{"byteLength":144,"uri":"data:application/octet-stream;base64,"},{"byteLength":288,"uri":"data:application/octet-stream;base64,"},{"byteLength":192,"uri":"data:application/octet-stream;base64,"},{"byteLength":144,"uri":"data:application/octet-stream;base64,"},{"byteLength":288,"uri":"data:application/octet-stream;base64,"},{"byteLength":192,"uri":"data:application/octet-stream;base64,"},{"byteLength":144,"uri":"data:application/octet-stream;base64,"},{"byteLength":288,"uri":"data:application/octet-stream;base64,"},{"byteLength":192,"uri":"data:application/octet-stream;base64,"},{"byteLength":144,"uri":"data:application/octet-stream;base64,"},{"byteLength":288,"uri":"data:application/octet-stream;base64,"},{"byteLength":192,"uri":"data:application/octet-stream;base64,"},{"byteLength":144,"uri":"data:application/octet-stream;base64,"},{"byteLength":288,"uri":"data:application/octet-stream;base64,"},{"byteLength":192,"uri":"data:application/octet-stream;base64,"},{"byteLength":144,"uri":"data:application/octet-stream;base64,"},{"byteLength":288,"uri":"data:application/octet-stream;base64,"},{"byteLength":192,"uri":"data:application/octet-stream;base64,"},{"byteLength":144,"uri":"data:application/octet-stream;base64,"},{"byteLength":288,"uri":"data:application/octet-stream;base64,"},{"byteLength":192,"uri":"data:application/octet-stream;base64,"},{"byteLength":144,"uri":"data:application/octet-stream;base64,"},{"byteLength":288,"uri":"data:application/octet-stream;base64,"},{"byteLength":192,"uri":"data:application/octet-stream;base64,"},{"byteLength":144,"uri":"data:application/octet-stream;base64,"},{"byteLength":288,"uri":"data:application/octet-stream;base64,"},{"byteLength":192,"uri":"data:application/octet-stream;base64,"},{"byteLength":144,"uri":"data:application/octet-stream;base64,"},{"byteLength":288,"uri":"data:application/octet-stream;base64,"},{"byteLength":192,"uri":"data:application/octet-stream;base64,"},{"byteLength":144,"uri":"data:application/octet-stream;base64,"},{"byteLength":288,"uri":"data:application/octet-stream;base64,"},{"byteLength":192,"uri":"data:application/octet-stream;base64,"},{"byteLength":144,"uri":"data:application/octet-stream;base64,"},{"byteLength":288,"uri":"data:application/octet-stream;base64,"},{"byteLength":192,"uri":"data:application/octet-stream;base64,"},{"byteLength":144,"uri":"data:application/octet-stream;base64,"},{"byteLength":288,"uri":"data:application/octet-stream;base64,"},{"byteLength":192,"uri":"data:application/octet-stream;base64,"},{"byteLength":144,"uri":"data:application/octet-stream;base64,"},{"byteLength":288,"uri":"data:application/octet-stream;base64,"},{"byteLength":192,"uri":"data:application/octet-stream;base64,"},{"byteLength":144,"uri":"data:application/octet-stream;base64,"},{"byteLength":288,"uri":"data:application/octet-stream;base64,"},{"byteLength":192,"uri":"data:application/octet-stream;base64,"},{"byteLength":144,"uri":"data:application/octet-stream;base64,"},{"byteLength":288,"uri":"data:application/octet-stream;base64,"},{"byteLength":192,"uri":"data:application/octet-stream;base64,"},{"byteLength":144,"uri":"data:application/octet-stream;base64,"},{"byteLength":288,"uri":"data:application/octet-stream;base64,"},{"byteLength":192,"uri":"data:application/octet-stream;base64,"},{"byteLength":144,"uri":"data:application/octet-stream;base64,"},{"byteLength":5760,"uri":"data:application/octet-stream;base64,"},{"byteLength":9120,"uri":"data:application/octet-stream;base64,"},{"byteLength":9216,"uri":"data:application/octet-stream;base64,"},{"byteLength":14820,"uri":"data:application/octet-stream;base64,"},{"byteLength":30600,"uri":"data:application/octet-stream;base64,"},{"byteLength":60000,"uri":"data:application/octet-stream;base64,"},{"byteLength":9216,"uri":"data:application/octet-stream;base64,"},{"byteLength":14820,"uri":"data:application/octet-stream;base64,"},{"byteLength":30600,"uri":"data:application/octet-stream;base64,"},{"byteLength":60000,"uri":"data:application/octet-stream;base64,"},{"byteLength":120,"uri":"data:application/octet-stream;base64,"},{"byteLength":96,"uri":"data:application/octet-stream;base64,"},{"byteLength":120,"uri":"data:application/octet-stream;base64,"},{"byteLength":96,"uri":"data:application/octet-stream;base64,"},{"byteLength":120,"uri":"data:application/octet-stream;base64,"},{"byteLength":96,"uri":"data:application/octet-stream;base64,"},{"byteLength":120,"uri":"data:application/octet-stream;base64,"},{"byteLength":96,"uri":"data:application/octet-stream;base64,"}],"cameras":[{"perspective":{"aspectRatio":1.0,"yfov":0.5235987755982988,"zfar":126.28987563155461,"znear":36.19133507363783},"type":"perspective"}],"materials":[{"pbrMetallicRoughness":{"baseColorFactor":[0.5019607843137255,0.5019607843137255,0.5019607843137255,0.5],"metallicFactor":0.0,"roughnessFactor":1.0}},{"pbrMetallicRoughness":{"baseColorFactor":[0.5019607843137255,0.5019607843137255,0.5019607843137255,0.5],"metallicFactor":0.0,"roughnessFactor":1.0}},{"pbrMetallicRoughness":{"baseColorFactor":[0.5019607843137255,0.5019607843137255,0.5019607843137255,0.5],"metallicFactor":0.0,"roughnessFactor":1.0}},{"pbrMetallicRoughness":{"baseColorFactor":[0.5019607843137255,0.5019607843137255,0.5019607843137255,0.5],"metallicFactor":0.0,"roughnessFactor":1.0}},{"pbrMetallicRoughness":{"baseColorFactor":[0.5019607843137255,0.5019607843137255,0.5019607843137255,0.5],"metallicFactor":0.0,"roughnessFactor":1.0}},{"pbrMetallicRoughness":{"baseColorFactor":[0.5019607843137255,0.5019607843137255,0.5019607843137255,0.5],"metallicFactor":0.0,"roughnessFactor":1.0}},{"pbrMetallicRoughness":{"baseColorFactor":[0.9568627450980393,0.6431372549019608,0.3764705882352941,1.0],"metallicFactor":0.0,"roughnessFactor":1.0}},{"pbrMetallicRoughness":{"baseColorFactor":[0.9568627450980393,0.6431372549019608,0.3764705882352941,1.0],"metallicFactor":0.0,"roughnessFactor":1.0}},{"pbrMetallicRoughness":{"baseColorFactor":[0.9568627450980393,0.6431372549019608,0.3764705882352941,1.0],"metallicFactor":0.0,"roughnessFactor":1.0}},{"pbrMetallicRoughness":{"baseColorFactor":[0.9568627450980393,0.6431372549019608,0.3764705882352941,1.0],"metallicFactor":0.0,"roughnessFactor":1.0}},{"pbrMetallicRoughness":{"baseColorFactor":[0.27450980392156865,0.5098039215686274,0.7058823529411765,1.0],"metallicFactor":0.0,"roughnessFactor":1.0}},{"pbrMetallicRoughness":{"baseColorFactor":[0.27450980392156865,0.5098039215686274,0.7058823529411765,1.0],"metallicFactor":0.0,"roughnessFactor":1.0}},{"pbrMetallicRoughness":{"baseColorFactor":[0.27450980392156865,0.5098039215686274,0.7058823529411765,1.0],"metallicFactor":0.0,"roughnessFactor":1.0}},{"pbrMetallicRoughness":{"baseColorFactor":[0.27450980392156865,0.5098039215686274,0.7058823529411765,1.0],"metallicFactor":0.0,"roughnessFactor":1.0}},{"pbrMetallicRoughness":{"baseColorFactor":[0.27450980392156865,0.5098039215686274,0.7058823529411765,1.0],"metallicFactor":0.0,"roughnessFactor":1.0}},{"pbrMetallicRoughness":{"baseColorFactor":[0.27450980392156865,0.5098039215686274,0.7058823529411765,1.0],"metallicFactor":0.0,"roughnessFactor":1.0}},{"pbrMetallicRoughness":{"baseColorFactor":[0.27450980392156865,0.5098039215686274,0.7058823529411765,1.0],"metallicFactor":0.0,"roughnessFactor":1.0}},{"pbrMetallicRoughness":{"baseColorFactor":[0.27450980392156865,0.5098039215686274,0.7058823529411765,1.0],"metallicFactor":0.0,"roughnessFactor":1.0}},{"pbrMetallicRoughness":{"baseColorFactor":[0.27450980392156865,0.5098039215686274,0.7058823529411765,1.0],"metallicFactor":0.0,"roughnessFactor":1.0}},{"pbrMetallicRoughness":{"baseColorFactor":[0.27450980392156865,0.5098039215686274,0.7058823529411765,1.0],"metallicFactor":0.0,"roughnessFactor":1.0}},{"pbrMetallicRoughness":{"baseColorFactor":[0.27450980392156865,0.5098039215686274,0.7058823529411765,1.0],"metallicFactor":0.0,"roughnessFactor":1.0}},{"pbrMetallicRoughness":{"baseColorFactor":[0.27450980392156865,0.5098039215686274,0.7058823529411765,1.0],"metallicFactor":0.0,"roughnessFactor":1.0}},{"pbrMetallicRoughness":{"baseColorFactor":[0.27450980392156865,0.5098039215686274,0.7058823529411765,1.0],"metallicFactor":0.0,"roughnessFactor":1.0}},{"pbrMetallicRoughness":{"baseColorFactor":[0.27450980392156865,0.5098039215686274,0.7058823529411765,1.0],"metallicFactor":0.0,"roughnessFactor":1.0}},{"pbrMetallicRoughness":{"baseColorFactor":[0.27450980392156865,0.5098039215686274,0.7058823529411765,1.0],"metallicFactor":0.0,"roughnessFactor":1.0}},{"pbrMetallicRoughness":{"baseColorFactor":[0.27450980392156865,0.5098039215686274,0.7058823529411765,1.0],"metallicFactor":0.0,"roughnessFactor":1.0}},{"pbrMetallicRoughness":{"baseColorFactor":[0.27450980392156865,0.5098039215686274,0.7058823529411765,1.0],"metallicFactor":0.0,"roughnessFactor":1.0}},{"pbrMetallicRoughness":{"baseColorFactor":[0.27450980392156865,0.5098039215686274,0.7058823529411765,1.0],"metallicFactor":0.0,"roughnessFactor":1.0}},{"pbrMetallicRoughness":{"baseColorFactor":[0.27450980392156865,0.5098039215686274,0.7058823529411765,1.0],"metallicFactor":0.0,"roughnessFactor":1.0}},{"pbrMetallicRoughness":{"baseColorFactor":[0.27450980392156865,0.5098039215686274,0.7058823529411765,1.0],"metallicFactor":0.0,"roughnessFactor":1.0}},{"pbrMetallicRoughness":{"baseColorFactor":[0.27450980392156865,0.5098039215686274,0.7058823529411765,1.0],"metallicFactor":0.0,"roughnessFactor":1.0}},{"pbrMetallicRoughness":{"baseColorFactor":[0.27450980392156865,0.5098039215686274,0.7058823529411765,1.0],"metallicFactor":0.0,"roughnessFactor":1.0}},{"pbrMetallicRoughness":{"baseColorFactor":[0.27450980392156865,0.5098039215686274,0.7058823529411765,1.0],"metallicFactor":0.0,"roughnessFactor":1.0}},{"pbrMetallicRoughness":{"baseColorFactor":[0.27450980392156865,0.5098039215686274,0.7058823529411765,1.0],"metallicFactor":0.0,"roughnessFactor":1.0}},{"pbrMetallicRoughness":{"baseColorFactor":[0.27450980392156865,0.5098039215686274,0.7058823529411765,1.0],"metallicFactor":0.0,"roughnessFactor":1.0}},{"pbrMetallicRoughness":{"baseColorFactor":[0.27450980392156865,0.5098039215686274,0.7058823529411765,1.0],"metallicFactor":0.0,"roughnessFactor":1.0}},{"pbrMetallicRoughness":{"baseColorFactor":[0.27450980392156865,0.5098039215686274,0.7058823529411765,1.0],"metallicFactor":0.0,"roughnessFactor":1.0}},{"pbrMetallicRoughness":{"baseColorFactor":[0.27450980392156865,0.5098039215686274,0.7058823529411765,1.0],"metallicFactor":0.0,"roughnessFactor":1.0}},{"pbrMetallicRoughness":{"baseColorFactor":[0.27450980392156865,0.5098039215686274,0.7058823529411765,1.0],"metallicFactor":0.0,"roughnessFactor":1.0}},{"pbrMetallicRoughness":{"baseColorFactor":[0.27450980392156865,0.5098039215686274,0.7058823529411765,1.0],"metallicFactor":0.0,"roughnessFactor":1.0}},{"pbrMetallicRoughness":{"baseColorFactor":[0.27450980392156865,0.5098039215686274,0.7058823529411765,1.0],"metallicFactor":0.0,"roughnessFactor":1.0}},{"pbrMetallicRoughness":{"baseColorFactor":[0.27450980392156865,0.5098039215686274,0.7058823529411765,1.0],"metallicFactor":0.0,"roughnessFactor":1.0}},{"pbrMetallicRoughness":{"baseColorFactor":[0.27450980392156865,0.5098039215686274,0.7058823529411765,1.0],"metallicFactor":0.0,"roughnessFactor":1.0}},{"pbrMetallicRoughness":{"baseColorFactor":[0.27450980392156865,0.5098039215686274,0.7058823529411765,1.0],"metallicFactor":0.0,"roughnessFactor":1.0}},{"pbrMetallicRoughness":{"baseColorFactor":[0.27450980392156865,0.5098039215686274,0.7058823529411765,1.0],"metallicFactor":0.0,"roughnessFactor":1.0}},{"pbrMetallicRoughness":{"baseColorFactor":[0.27450980392156865,0.5098039215686274,0.7058823529411765,1.0],"metallicFactor":0.0,"roughnessFactor":1.0}},{"pbrMetallicRoughness":{"baseColorFactor":[0.27450980392156865,0.5098039215686274,0.7058823529411765,1.0],"metallicFactor":0.0,"roughnessFactor":1.0}},{"pbrMetallicRoughness":{"baseColorFactor":[0.27450980392156865,0.5098039215686274,0.7058823529411765,1.0],"metallicFactor":0.0,"roughnessFactor":1.0}},{"pbrMetallicRoughness":{"baseColorFactor":[0.27450980392156865,0.5098039215686274,0.7058823529411765,1.0],"metallicFactor":0.0,"roughnessFactor":1.0}},{"pbrMetallicRoughness":{"baseColorFactor":[0.27450980392156865,0.5098039215686274,0.7058823529411765,1.0],"metallicFactor":0.0,"roughnessFactor":1.0}},{"pbrMetallicRoughness":{"baseColorFactor":[0.27450980392156865,0.5098039215686274,0.7058823529411765,1.0],"metallicFactor":0.0,"roughnessFactor":1.0}},{"pbrMetallicRoughness":{"baseColorFactor":[0.27450980392156865,0.5098039215686274,0.7058823529411765,1.0],"metallicFactor":0.0,"roughnessFactor":1.0}},{"pbrMetallicRoughness":{"baseColorFactor":[0.27450980392156865,0.5098039215686274,0.7058823529411765,1.0],"metallicFactor":0.0,"roughnessFactor":1.0}},{"pbrMetallicRoughness":{"baseColorFactor":[0.27450980392156865,0.5098039215686274,0.7058823529411765,1.0],"metallicFactor":0.0,"roughnessFactor":1.0}},{"pbrMetallicRoughness":{"baseColorFactor":[0.27450980392156865,0.5098039215686274,0.7058823529411765,1.0],"metallicFactor":0.0,"roughnessFactor":1.0}},{"pbrMetallicRoughness":{"baseColorFactor":[0.27450980392156865,0.5098039215686274,0.7058823529411765,1.0],"metallicFactor":0.0,"roughnessFactor":1.0}},{"pbrMetallicRoughness":{"baseColorFactor":[0.27450980392156865,0.5098039215686274,0.7058823529411765,1.0],"metallicFactor":0.0,"roughnessFactor":1.0}},{"pbrMetallicRoughness":{"baseColorFactor":[0.27450980392156865,0.5098039215686274,0.7058823529411765,1.0],"metallicFactor":0.0,"roughnessFactor":1.0}},{"pbrMetallicRoughness":{"baseColorFactor":[0.27450980392156865,0.5098039215686274,0.7058823529411765,1.0],"metallicFactor":0.0,"roughnessFactor":1.0}},{"pbrMetallicRoughness":{"baseColorFactor":[0.27450980392156865,0.5098039215686274,0.7058823529411765,1.0],"metallicFactor":0.0,"roughnessFactor":1.0}},{"pbrMetallicRoughness":{"baseColorFactor":[0.27450980392156865,0.5098039215686274,0.7058823529411765,1.0],"metallicFactor":0.0,"roughnessFactor":1.0}},{"pbrMetallicRoughness":{"baseColorFactor":[0.27450980392156865,0.5098039215686274,0.7058823529411765,1.0],"metallicFactor":0.0,"roughnessFactor":1.0}},{"pbrMetallicRoughness":{"baseColorFactor":[0.27450980392156865,0.5098039215686274,0.7058823529411765,1.0],"metallicFactor":0.0,"roughnessFactor":1.0}},{"pbrMetallicRoughness":{"baseColorFactor":[0.27450980392156865,0.5098039215686274,0.7058823529411765,1.0],"metallicFactor":0.0,"roughnessFactor":1.0}},{"pbrMetallicRoughness":{"baseColorFactor":[0.27450980392156865,0.5098039215686274,0.7058823529411765,1.0],"metallicFactor":0.0,"roughnessFactor":1.0}},{"pbrMetallicRoughness":{"baseColorFactor":[0.27450980392156865,0.5098039215686274,0.7058823529411765,1.0],"metallicFactor":0.0,"roughnessFactor":1.0}},{"pbrMetallicRoughness":{"baseColorFactor":[0.27450980392156865,0.5098039215686274,0.7058823529411765,1.0],"metallicFactor":0.0,"roughnessFactor":1.0}},{"pbrMetallicRoughness":{"baseColorFactor":[0.27450980392156865,0.5098039215686274,0.7058823529411765,1.0],"metallicFactor":0.0,"roughnessFactor":1.0}},{"pbrMetallicRoughness":{"baseColorFactor":[0.27450980392156865,0.5098039215686274,0.7058823529411765,1.0],"metallicFactor":0.0,"roughnessFactor":1.0}},{"pbrMetallicRoughness":{"baseColorFactor":[0.27450980392156865,0.5098039215686274,0.7058823529411765,1.0],"metallicFactor":0.0,"roughnessFactor":1.0}},{"pbrMetallicRoughness":{"baseColorFactor":[0.27450980392156865,0.5098039215686274,0.7058823529411765,1.0],"metallicFactor":0.0,"roughnessFactor":1.0}},{"pbrMetallicRoughness":{"baseColorFactor":[0.27450980392156865,0.5098039215686274,0.7058823529411765,1.0],"metallicFactor":0.0,"roughnessFactor":1.0}},{"pbrMetallicRoughness":{"baseColorFactor":[0.27450980392156865,0.5098039215686274,0.7058823529411765,1.0],"metallicFactor":0.0,"roughnessFactor":1.0}},{"pbrMetallicRoughness":{"baseColorFactor":[0.27450980392156865,0.5098039215686274,0.7058823529411765,1.0],"metallicFactor":0.0,"roughnessFactor":1.0}},{"pbrMetallicRoughness":{"baseColorFactor":[0.27450980392156865,0.5098039215686274,0.7058823529411765,1.0],"metallicFactor":0.0,"roughnessFactor":1.0}},{"pbrMetallicRoughness":{"baseColorFactor":[0.27450980392156865,0.5098039215686274,0.7058823529411765,1.0],"metallicFactor":0.0,"roughnessFactor":1.0}},{"pbrMetallicRoughness":{"baseColorFactor":[0.27450980392156865,0.5098039215686274,0.7058823529411765,1.0],"metallicFactor":0.0,"roughnessFactor":1.0}},{"pbrMetallicRoughness":{"baseColorFactor":[0.27450980392156865,0.5098039215686274,0.7058823529411765,1.0],"metallicFactor":0.0,"roughnessFactor":1.0}},{"pbrMetallicRoughness":{"baseColorFactor":[0.27450980392156865,0.5098039215686274,0.7058823529411765,1.0],"metallicFactor":0.0,"roughnessFactor":1.0}},{"pbrMetallicRoughness":{"baseColorFactor":[0.27450980392156865,0.5098039215686274,0.7058823529411765,1.0],"metallicFactor":0.0,"roughnessFactor":1.0}},{"pbrMetallicRoughness":{"baseColorFactor":[0.27450980392156865,0.5098039215686274,0.7058823529411765,1.0],"metallicFactor":0.0,"roughnessFactor":1.0}},{"pbrMetallicRoughness":{"baseColorFactor":[0.27450980392156865,0.5098039215686274,0.7058823529411765,1.0],"metallicFactor":0.0,"roughnessFactor":1.0}},{"pbrMetallicRoughness":{"baseColorFactor":[0.9568627450980393,0.6431372549019608,0.3764705882352941,1.0],"metallicFactor":0.0,"roughnessFactor":1.0}},{"pbrMetallicRoughness":{"baseColorFactor":[0.9568627450980393,0.6431372549019608,0.3764705882352941,1.0],"metallicFactor":0.0,"roughnessFactor":1.0}},{"pbrMetallicRoughness":{"baseColorFactor":[0.9568627450980393,0.6431372549019608,0.3764705882352941,1.0],"metallicFactor":0.0,"roughnessFactor":1.0}},{"pbrMetallicRoughness":{"baseColorFactor":[0.9568627450980393,0.6431372549019608,0.3764705882352941,1.0],"metallicFactor":0.0,"roughnessFactor":1.0}},{"pbrMetallicRoughness":{"baseColorFactor":[0.5019607843137255,0.5019607843137255,0.5019607843137255,1.0],"metallicFactor":0.0,"roughnessFactor":1.0}},{"pbrMetallicRoughness":{"baseColorFactor":[0.5019607843137255,0.5019607843137255,0.5019607843137255,1.0],"metallicFactor":0.0,"roughnessFactor":1.0}},{"pbrMetallicRoughness":{"baseColorFactor":[0.0,0.0,0.0,0.6],"metallicFactor":0.0,"roughnessFactor":1.0}},{"pbrMetallicRoughness":{"baseColorFactor":[0.5019607843137255,0.5019607843137255,0.5019607843137255,1.0],"metallicFactor":0.0,"roughnessFactor":1.0}},{"pbrMetallicRoughness":{"baseColorFactor":[0.0,0.0,0.0,0.6],"metallicFactor":0.0,"roughnessFactor":1.0}},{"pbrMetallicRoughness":{"baseColorFactor":[1.0,0.6470588235294118,0.0,0.5],"metallicFactor":0.0,"roughnessFactor":1.0}},{"pbrMetallicRoughness":{"baseColorFactor":[1.0,0.6470588235294118,0.0,0.5],"metallicFactor":0.0,"roughnessFactor":1.0}},{"pbrMetallicRoughness":{"baseColorFactor":[1.0,0.6470588235294118,0.0,0.5],"metallicFactor":0.0,"roughnessFactor":1.0}},{"pbrMetallicRoughness":{"baseColorFactor":[1.0,0.6470588235294118,0.0,0.5],"metallicFactor":0.0,"roughnessFactor":1.0}}],"meshes":[{"name":"mesh0","primitives":[{"attributes":{"POSITION":0},"indices":1,"material":0,"mode":4}]},{"name":"mesh1","primitives":[{"attributes":{"POSITION":2},"indices":3,"material":1,"mode":4}]},{"name":"mesh2","primitives":[{"attributes":{"POSITION":4},"indices":5,"material":2,"mode":4}]},{"name":"mesh3","primitives":[{"attributes":{"POSITION":6},"indices":7,"material":3,"mode":4}]},{"name":"mesh4","primitives":[{"attributes":{"POSITION":8},"indices":9,"material":4,"mode":4}]},{"name":"mesh5","primitives":[{"attributes":{"POSITION":10},"indices":11,"material":5,"mode":4}]},{"name":"mesh6","primitives":[{"attributes":{"POSITION":12,"TEXCOORD_0":13},"indices":14,"material":6,"mode":4}]},{"name":"mesh7","primitives":[{"attributes":{"POSITION":15,"TEXCOORD_0":16},"indices":17,"material":7,"mode":4}]},{"name":"mesh8","primitives":[{"attributes":{"POSITION":18,"TEXCOORD_0":19},"indices":20,"material":8,"mode":4}]},{"name":"mesh9","primitives":[{"attributes":{"POSITION":21,"TEXCOORD_0":22},"indices":23,"material":9,"mode":4}]},{"name":"mesh10","primitives":[{"attributes":{"POSITION":24,"TEXCOORD_0":25},"indices":26,"material":10,"mode":4}]},{"name":"mesh11","primitives":[{"attributes":{"POSITION":27,"TEXCOORD_0":28},"indices":29,"material":11,"mode":4}]},{"name":"mesh12","primitives":[{"attributes":{"POSITION":30,"TEXCOORD_0":31},"indices":32,"material":12,"mode":4}]},{"name":"mesh13","primitives":[{"attributes":{"POSITION":33,"TEXCOORD_0":34},"indices":35,"material":13,"mode":4}]},{"name":"mesh14","primitives":[{"attributes":{"POSITION":36,"TEXCOORD_0":37},"indices":38,"material":14,"mode":4}]},{"name":"mesh15","primitives":[{"attributes":{"POSITION":39,"TEXCOORD_0":40},"indices":41,"material":15,"mode":4}]},{"name":"mesh16","primitives":[{"attributes":{"POSITION":42,"TEXCOORD_0":43},"indices":44,"material":16,"mode":4}]},{"name":"mesh17","primitives":[{"attributes":{"POSITION":45,"TEXCOORD_0":46},"indices":47,"material":17,"mode":4}]},{"name":"mesh18","primitives":[{"attributes":{"POSITION":48,"TEXCOORD_0":49},"indices":50,"material":18,"mode":4}]},{"name":"mesh19","primitives":[{"attributes":{"POSITION":51,"TEXCOORD_0":52},"indices":53,"material":19,"mode":4}]},{"name":"mesh20","primitives":[{"attributes":{"POSITION":54,"TEXCOORD_0":55},"indices":56,"material":20,"mode":4}]},{"name":"mesh21","primitives":[{"attributes":{"POSITION":57,"TEXCOORD_0":58},"indices":59,"material":21,"mode":4}]},{"name":"mesh22","primitives":[{"attributes":{"POSITION":60,"TEXCOORD_0":61},"indices":62,"material":22,"mode":4}]},{"name":"mesh23","primitives":[{"attributes":{"POSITION":63,"TEXCOORD_0":64},"indices":65,"material":23,"mode":4}]},{"name":"mesh24","primitives":[{"attributes":{"POSITION":66,"TEXCOORD_0":67},"indices":68,"material":24,"mode":4}]},{"name":"mesh25","primitives":[{"attributes":{"POSITION":69,"TEXCOORD_0":70},"indices":71,"material":25,"mode":4}]},{"name":"mesh26","primitives":[{"attributes":{"POSITION":72,"TEXCOORD_0":73},"indices":74,"material":26,"mode":4}]},{"name":"mesh27","primitives":[{"attributes":{"POSITION":75,"TEXCOORD_0":76},"indices":77,"material":27,"mode":4}]},{"name":"mesh28","primitives":[{"attributes":{"POSITION":78,"TEXCOORD_0":79},"indices":80,"material":28,"mode":4}]},{"name":"mesh29","primitives":[{"attributes":{"POSITION":81,"TEXCOORD_0":82},"indices":83,"material":29,"mode":4}]},{"name":"mesh30","primitives":[{"attributes":{"POSITION":84,"TEXCOORD_0":85},"indices":86,"material":30,"mode":4}]},{"name":"mesh31","primitives":[{"attributes":{"POSITION":87,"TEXCOORD_0":88},"indices":89,"material":31,"mode":4}]},{"name":"mesh32","primitives":[{"attributes":{"POSITION":90,"TEXCOORD_0":91},"indices":92,"material":32,"mode":4}]},{"name":"mesh33","primitives":[{"attributes":{"POSITION":93,"TEXCOORD_0":94},"indices":95,"material":33,"mode":4}]},{"name":"mesh34","primitives":[{"attributes":{"POSITION":96,"TEXCOORD_0":97},"indices":98,"material":34,"mode":4}]},{"name":"mesh35","primitives":[{"attributes":{"POSITION":99,"TEXCOORD_0":100},"indices":101,"material":35,"mode":4}]},{"name":"mesh36","primitives":[{"attributes":{"POSITION":102,"TEXCOORD_0":103},"indices":104,"material":36,"mode":4}]},{"name":"mesh37","primitives":[{"attributes":{"POSITION":105,"TEXCOORD_0":106},"indices":107,"material":37,"mode":4}]},{"name":"mesh38","primitives":[{"attributes":{"POSITION":108,"TEXCOORD_0":109},"indices":110,"material":38,"mode":4}]},{"name":"mesh39","primitives":[{"attributes":{"POSITION":111,"TEXCOORD_0":112},"indices":113,"material":39,"mode":4}]},{"name":"mesh40","primitives":[{"attributes":{"POSITION":114,"TEXCOORD_0":115},"indices":116,"material":40,"mode":4}]},{"name":"mesh41","primitives":[{"attributes":{"POSITION":117,"TEXCOORD_0":118},"indices":119,"material":41,"mode":4}]},{"name":"mesh42","primitives":[{"attributes":{"POSITION":120,"TEXCOORD_0":121},"indices":122,"material":42,"mode":4}]},{"name":"mesh43","primitives":[{"attributes":{"POSITION":123,"TEXCOORD_0":124},"indices":125,"material":43,"mode":4}]},{"name":"mesh44","primitives":[{"attributes":{"POSITION":126,"TEXCOORD_0":127},"indices":128,"material":44,"mode":4}]},{"name":"mesh45","primitives":[{"attributes":{"POSITION":129,"TEXCOORD_0":130},"indices":131,"material":45,"mode":4}]},{"name":"mesh46","primitives":[{"attributes":{"POSITION":132,"TEXCOORD_0":133},"indices":134,"material":46,"mode":4}]},{"name":"mesh47","primitives":[{"attributes":{"POSITION":135,"TEXCOORD_0":136},"indices":137,"material":47,"mode":4}]},{"name":"mesh48","primitives":[{"attributes":{"POSITION":138,"TEXCOORD_0":139},"indices":140,"material":48,"mode":4}]},{"name":"mesh49","primitives":[{"attributes":{"POSITION":141,"TEXCOORD_0":142},"indices":143,"material":49,"mode":4}]},{"name":"mesh50","primitives":[{"attributes":{"POSITION":144,"TEXCOORD_0":145},"indices":146,"material":50,"mode":4}]},{"name":"mesh51","primitives":[{"attributes":{"POSITION":147,"TEXCOORD_0":148},"indices":149,"material":51,"mode":4}]},{"name":"mesh52","primitives":[{"attributes":{"POSITION":150,"TEXCOORD_0":151},"indices":152,"material":52,"mode":4}]},{"name":"mesh53","primitives":[{"attributes":{"POSITION":153,"TEXCOORD_0":154},"indices":155,"material":53,"mode":4}]},{"name":"mesh54","primitives":[{"attributes":{"POSITION":156,"TEXCOORD_0":157},"indices":158,"material":54,"mode":4}]},{"name":"mesh55","primitives":[{"attributes":{"POSITION":159,"TEXCOORD_0":160},"indices":161,"material":55,"mode":4}]},{"name":"mesh56","primitives":[{"attributes":{"POSITION":162,"TEXCOORD_0":163},"indices":164,"material":56,"mode":4}]},{"name":"mesh57","primitives":[{"attributes":{"POSITION":165,"TEXCOORD_0":166},"indices":167,"material":57,"mode":4}]},{"name":"mesh58","primitives":[{"attributes":{"POSITION":168,"TEXCOORD_0":169},"indices":170,"material":58,"mode":4}]},{"name":"mesh59","primitives":[{"attributes":{"POSITION":171,"TEXCOORD_0":172},"indices":173,"material":59,"mode":4}]},{"name":"mesh60","primitives":[{"attributes":{"POSITION":174,"TEXCOORD_0":175},"indices":176,"material":60,"mode":4}]},{"name":"mesh61","primitives":[{"attributes":{"POSITION":177,"TEXCOORD_0":178},"indices":179,"material":61,"mode":4}]},{"name":"mesh62","primitives":[{"attributes":{"POSITION":180,"TEXCOORD_0":181},"indices":182,"material":62,"mode":4}]},{"name":"mesh63","primitives":[{"attributes":{"POSITION":183,"TEXCOORD_0":184},"indices":185,"material":63,"mode":4}]},{"name":"mesh64","primitives":[{"attributes":{"POSITION":186,"TEXCOORD_0":187},"indices":188,"material":64,"mode":4}]},{"name":"mesh65","primitives":[{"attributes":{"POSITION":189,"TEXCOORD_0":190},"indices":191,"material":65,"mode":4}]},{"name":"mesh66","primitives":[{"attributes":{"POSITION":192,"TEXCOORD_0":193},"indices":194,"material":66,"mode":4}]},{"name":"mesh67","primitives":[{"attributes":{"POSITION":195,"TEXCOORD_0":196},"indices":197,"material":67,"mode":4}]},{"name":"mesh68","primitives":[{"attributes":{"POSITION":198,"TEXCOORD_0":199},"indices":200,"material":68,"mode":4}]},{"name":"mesh69","primitives":[{"attributes":{"POSITION":201,"TEXCOORD_0":202},"indices":203,"material":69,"mode":4}]},{"name":"mesh70","primitives":[{"attributes":{"POSITION":204,"TEXCOORD_0":205},"indices":206,"material":70,"mode":4}]},{"name":"mesh71","primitives":[{"attributes":{"POSITION":207,"TEXCOORD_0":208},"indices":209,"material":71,"mode":4}]},{"name":"mesh72","primitives":[{"attributes":{"POSITION":210,"TEXCOORD_0":211},"indices":212,"material":72,"mode":4}]},{"name":"mesh73","primitives":[{"attributes":{"POSITION":213,"TEXCOORD_0":214},"indices":215,"material":73,"mode":4}]},{"name":"mesh74","primitives":[{"attributes":{"POSITION":216,"TEXCOORD_0":217},"indices":218,"material":74,"mode":4}]},{"name":"mesh75","primitives":[{"attributes":{"POSITION":219,"TEXCOORD_0":220},"indices":221,"material":75,"mode":4}]},{"name":"mesh76","primitives":[{"attributes":{"POSITION":222,"TEXCOORD_0":223},"indices":224,"material":76,"mode":4}]},{"name":"mesh77","primitives":[{"attributes":{"POSITION":225,"TEXCOORD_0":226},"indices":227,"material":77,"mode":4}]},{"name":"mesh78","primitives":[{"attributes":{"POSITION":228,"TEXCOORD_0":229},"indices":230,"material":78,"mode":4}]},{"name":"mesh79","primitives":[{"attributes":{"POSITION":231,"TEXCOORD_0":232},"indices":233,"material":79,"mode":4}]},{"name":"mesh80","primitives":[{"attributes":{"POSITION":234,"TEXCOORD_0":235},"indices":236,"material":80,"mode":4}]},{"name":"mesh81","primitives":[{"attributes":{"POSITION":237,"TEXCOORD_0":238},"indices":239,"material":81,"mode":4}]},{"name":"mesh82","primitives":[{"attributes":{"POSITION":240,"TEXCOORD_0":241},"indices":242,"material":82,"mode":4}]},{"name":"mesh83","primitives":[{"attributes":{"POSITION":243,"TEXCOORD_0":244},"indices":245,"material":83,"mode":4}]},{"name":"mesh84","primitives":[{"attributes":{"POSITION":246,"TEXCOORD_0":247},"indices":248,"material":84,"mode":4}]},{"name":"mesh85","primitives":[{"attributes":{"POSITION":249,"TEXCOORD_0":250},"indices":251,"material":85,"mode":4}]},{"name":"mesh86","primitives":[{"attributes":{"POSITION":252},"indices":253,"material":86,"mode":4}]},{"name":"mesh87","primitives":[{"attributes":{"POSITION":254},"indices":255,"material":87,"mode":4}]},{"name":"mesh88","primitives":[{"attributes":{"POSITION":256},"indices":257,"material":88,"mode":4}]},{"name":"mesh89","primitives":[{"attributes":{"POSITION":258},"indices":259,"material":89,"mode":4}]},{"name":"mesh90","primitives":[{"attributes":{"POSITION":260},"indices":261,"material":90,"mode":4}]},{"name":"mesh91","primitives":[{"attributes":{"POSITION":262},"indices":263,"material":91,"mode":4}]},{"name":"mesh92","primitives":[{"attributes":{"POSITION":264},"indices":265,"material":92,"mode":4}]},{"name":"mesh93","primitives":[{"attributes":{"POSITION":266},"indices":267,"material":93,"mode":4}]},{"name":"mesh94","primitives":[{"attributes":{"POSITION":268},"indices":269,"material":94,"mode":4}]}],"nodes":[{"mesh":0,"name":"mesh0"},{"mesh":1,"name":"mesh1"},{"mesh":2,"name":"mesh2"},{"mesh":3,"name":"mesh3"},{"mesh":4,"name":"mesh4"},{"mesh":5,"name":"mesh5"},{"mesh":6,"name":"mesh6"},{"mesh":7,"name":"mesh7"},{"mesh":8,"name":"mesh8"},{"mesh":9,"name":"mesh9"},{"mesh":10,"name":"mesh10"},{"mesh":11,"name":"mesh11"},{"mesh":12,"name":"mesh12"},{"mesh":13,"name":"mesh13"},{"mesh":14,"name":"mesh14"},{"mesh":15,"name":"mesh15"},{"mesh":16,"name":"mesh16"},{"mesh":17,"name":"mesh17"},{"mesh":18,"name":"mesh18"},{"mesh":19,"name":"mesh19"},{"mesh":20,"name":"mesh20"},{"mesh":21,"name":"mesh21"},{"mesh":22,"name":"mesh22"},{"mesh":23,"name":"mesh23"},{"mesh":24,"name":"mesh24"},{"mesh":25,"name":"mesh25"},{"mesh":26,"name":"mesh26"},{"mesh":27,"name":"mesh27"},{"mesh":28,"name":"mesh28"},{"mesh":29,"name":"mesh29"},{"mesh":30,"name":"mesh30"},{"mesh":31,"name":"mesh31"},{"mesh":32,"name":"mesh32"},{"mesh":33,"name":"mesh33"},{"mesh":34,"name":"mesh34"},{"mesh":35,"name":"mesh35"},{"mesh":36,"name":"mesh36"},{"mesh":37,"name":"mesh37"},{"mesh":38,"name":"mesh38"},{"mesh":39,"name":"mesh39"},{"mesh":40,"name":"mesh40"},{"mesh":41,"name":"mesh41"},{"mesh":42,"name":"mesh42"},{"mesh":43,"name":"mesh43"},{"mesh":44,"name":"mesh44"},{"mesh":45,"name":"mesh45"},{"mesh":46,"name":"mesh46"},{"mesh":47,"name":"mesh47"},{"mesh":48,"name":"mesh48"},{"mesh":49,"name":"mesh49"},{"mesh":50,"name":"mesh50"},{"mesh":51,"name":"mesh51"},{"mesh":52,"name":"mesh52"},{"mesh":53,"name":"mesh53"},{"mesh":54,"name":"mesh54"},{"mesh":55,"name":"mesh55"},{"mesh":56,"name":"mesh56"},{"mesh":57,"name":"mesh57"},{"mesh":58,"name":"mesh58"},{"mesh":59,"name":"mesh59"},{"mesh":60,"name":"mesh60"},{"mesh":61,"name":"mesh61"},{"mesh":62,"name":"mesh62"},{"mesh":63,"name":"mesh63"},{"mesh":64,"name":"mesh64"},{"mesh":65,"name":"mesh65"},{"mesh":66,"name":"mesh66"},{"mesh":67,"name":"mesh67"},{"mesh":68,"name":"mesh68"},{"mesh":69,"name":"mesh69"},{"mesh":70,"name":"mesh70"},{"mesh":71,"name":"mesh71"},{"mesh":72,"name":"mesh72"},{"mesh":73,"name":"mesh73"},{"mesh":74,"name":"mesh74"},{"mesh":75,"name":"mesh75"},{"mesh":76,"name":"mesh76"},{"mesh":77,"name":"mesh77"},{"mesh":78,"name":"mesh78"},{"mesh":79,"name":"mesh79"},{"mesh":80,"name":"mesh80"},{"mesh":81,"name":"mesh81"},{"mesh":82,"name":"mesh82"},{"mesh":83,"name":"mesh83"},{"mesh":84,"name":"mesh84"},{"mesh":85,"name":"mesh85"},{"mesh":86,"name":"mesh86"},{"mesh":87,"name":"mesh87"},{"matrix":[1.0,0.0,0.0,0.0,0.0,1.0,0.0,0.0,0.0,0.0,1.0,0.0,9.1,4.219315295,1.616135105,1.0],"mesh":88,"name":"mesh88"},{"mesh":89,"name":"mesh89"},{"matrix":[1.0,0.0,0.0,0.0,0.0,1.0,0.0,0.0,0.0,0.0,1.0,0.0,9.1,-4.219315295,1.616135105,1.0],"mesh":90,"name":"mesh90"},{"mesh":91,"name":"mesh91"},{"mesh":92,"name":"mesh92"},{"mesh":93,"name":"mesh93"},{"mesh":94,"name":"mesh94"},{"camera":0,"matrix":[0.7071067811865476,-0.7071067811865476,1.3163025823474793e-18,-0.0,0.16987489334070155,0.16987489334070155,0.9707136762325804,0.0,-0.6863982230545803,-0.6863982230545803,0.2402393780691031,-0.0,-38.32562196174381,-52.164945005567056,20.66677528591644,1.0],"name":"Camera Node"},{"children":[0,1,2,3,4,5,6,7,8,9,10,11,12,13,14,15,16,17,18,19,20,21,22,23,24,25,26,27,28,29,30,31,32,33,34,35,36,37,38,39,40,41,42,43,44,45,46,47,48,49,50,51,52,53,54,55,56,57,58,59,60,61,62,63,64,65,66,67,68,69,70,71,72,73,74,75,76,77,78,79,80,81,82,83,84,85,86,87,88,89,90,91,92,93,94,95],"name":"Renderer Node"}],"scene":0,"scenes":[{"name":"Layer 0","nodes":[96]}]}